<?xml version="1.0" standalone="no"?>
<!DOCTYPE svg PUBLIC "-//W3C//DTD SVG 1.1//EN" "http://www.w3.org/Graphics/SVG/1.1/DTD/svg11.dtd" >
<svg xmlns="http://www.w3.org/2000/svg" xmlns:xlink="http://www.w3.org/1999/xlink" version="1.1">
<metadata>
Created by FontForge 20170731 at Mon Apr 20 19:07:41 2015
 By Aleksey,,,
Copyright 2014 Pria Ravichandran (pria.ravichandran@gmail.com)
</metadata>
<defs>
<font id="Palanquin-SemiBold" horiz-adv-x="332" >
  <font-face 
    font-family="Palanquin SemiBold"
    font-weight="600"
    font-stretch="normal"
    units-per-em="1000"
    panose-1="2 11 0 4 2 2 3 2 2 4"
    ascent="770"
    descent="-230"
    x-height="485"
    cap-height="680"
    bbox="-509 -471 2311 1320"
    underline-thickness="50"
    underline-position="-200"
    unicode-range="U+000D-FB02"
  />
<missing-glyph horiz-adv-x="684" 
d="M589 696v-696h-495v696h495zM208 606v-517h267l-1 517h-266z" />
    <glyph glyph-name=".notdef" horiz-adv-x="684" 
d="M589 696v-696h-495v696h495zM208 606v-517h267l-1 517h-266z" />
    <glyph glyph-name=".null" horiz-adv-x="0" 
 />
    <glyph glyph-name=".null" horiz-adv-x="0" 
 />
    <glyph glyph-name="nonmarkingreturn" horiz-adv-x="333" 
 />
    <glyph glyph-name="CR" unicode="&#xd;" horiz-adv-x="0" 
 />
    <glyph glyph-name="space" unicode=" " horiz-adv-x="236" 
 />
    <glyph glyph-name="exclam" unicode="!" horiz-adv-x="244" 
d="M181 702l-15 -506q-22 10 -44 20.5t-44 20.5l-17 465h120zM121 133q28 0 47.5 -19.5t19.5 -47.5t-19.5 -47t-47.5 -19q-27 0 -47 19t-20 47t20 47.5t47 19.5z" />
    <glyph glyph-name="quotedbl" unicode="&#x22;" horiz-adv-x="337" 
d="M261 732q28 0 47.5 -22t19.5 -59q0 -53 -35 -109.5t-86 -84.5l-26 53q25 20 42 39t23 50q-19 1 -36 20.5t-17 44.5t19.5 46.5t48.5 21.5zM85 732q28 0 48 -22t20 -59q0 -53 -34.5 -109.5t-87.5 -84.5l-25 53q25 20 42 39t22 50q-17 1 -34.5 20.5t-17.5 44.5t19.5 46.5
t47.5 21.5z" />
    <glyph glyph-name="numbersign" unicode="#" horiz-adv-x="544" 
d="M491 513l-26 -114h49l9 -85h-78l-27 -117h96l9 -85h-125l-28 -123l-95 5l27 118h-125l-28 -123l-95 5l27 118h-50l-10 85h79l27 117h-96l-10 85h126l27 116l96 -2l-27 -114h124l27 116zM224 314l-26 -117h122l28 117h-124z" />
    <glyph glyph-name="dollar" unicode="$" horiz-adv-x="547" 
d="M375 806v-128q23 -5 44 -13.5t40 -16.5q-9 -23 -19 -45.5t-19 -44.5q-29 14 -64.5 27t-81.5 13q-51 0 -83.5 -20.5t-32.5 -59.5q0 -95 171.5 -145.5t171.5 -199.5q0 -56 -33.5 -100.5t-93.5 -66.5v-129l-78 7v106q-10 -1 -21.5 -2t-23.5 -1h-15v-110h-77v123
q-34 8 -62.5 19.5t-41.5 21.5l26 90q29 -15 76.5 -30t92.5 -15q67 0 101 23t34 63q0 91 -171 140.5t-171 203.5q0 53 31 95t85 64v131l77 -4v-109q9 1 18.5 2t17.5 1q7 0 12.5 -0.5t11.5 -1.5v112h78z" />
    <glyph glyph-name="percent" unicode="%" horiz-adv-x="917" 
d="M663 706l-301 -710l-113 4l301 710zM31 533q0 78 50 123.5t113 45.5q66 0 115 -44.5t49 -124.5q0 -78 -50 -124t-113 -46q-65 0 -114.5 44.5t-49.5 125.5zM128 533q0 -45 19.5 -66.5t47.5 -21.5q25 0 45.5 21.5t20.5 65.5q0 43 -19.5 65t-47.5 22q-24 0 -45 -21.5
t-21 -64.5zM559 169q0 79 50 124t114 45q65 0 113.5 -44t48.5 -124q0 -78 -49.5 -124t-112.5 -46q-65 0 -114.5 44.5t-49.5 124.5zM656 170q0 -45 19.5 -66.5t47.5 -21.5q25 0 45.5 21.5t20.5 65.5q0 43 -20 65t-46 22q-25 0 -46 -21.5t-21 -64.5z" />
    <glyph glyph-name="ampersand" unicode="&#x26;" horiz-adv-x="684" 
d="M165 218q0 -68 44.5 -98.5t100.5 -30.5q38 0 70 11.5t56 33.5l-186 170l-33 30q-25 -22 -38 -52t-14 -64zM460 558q-30 14 -61 27t-77 13q-42 0 -65.5 -25t-23.5 -59q0 -35 22 -65.5t67 -70.5l172 -158q14 31 22.5 70t11.5 84l99 -40q-3 -54 -15 -102t-32 -89l80 -71
l-66 -83l-78 71q-37 -34 -88 -53t-118 -19q-109 1 -186 58.5t-77 170.5q0 57 28.5 109t71.5 87q-14 19 -21.5 43.5t-7.5 52.5q0 75 55 131t149 56q49 0 94 -15t83 -33z" />
    <glyph glyph-name="quotesingle" unicode="'" horiz-adv-x="162" 
d="M85 732q28 0 48 -22t20 -59q0 -53 -34.5 -109.5t-87.5 -84.5l-25 53q25 20 42 39t22 50q-17 1 -34.5 20.5t-17.5 44.5t19.5 46.5t47.5 21.5z" />
    <glyph glyph-name="parenleft" unicode="(" horiz-adv-x="274" 
d="M169 -39q-60 78 -92.5 171.5t-32.5 188.5q0 93 32 183.5t93 175.5l89 -32q-43 -56 -75.5 -154t-32.5 -172q0 -76 32 -176.5t75 -151.5z" />
    <glyph glyph-name="parenright" unicode=")" horiz-adv-x="274" 
d="M105 680q59 -78 92 -171.5t33 -187.5q0 -93 -33 -184t-93 -176l-88 33q43 55 74.5 153.5t31.5 172.5q0 75 -31 176t-74 150z" />
    <glyph glyph-name="asterisk" unicode="*" horiz-adv-x="367" 
d="M229 666l107 23l26 -78l-107 -21l73 -105l-67 -52l-77 104l-77 -104l-68 52l73 104q-18 5 -52.5 11.5t-53.5 10.5l25 78l107 -23q0 18 0.5 50.5t0.5 52.5h89z" />
    <glyph glyph-name="plus" unicode="+" horiz-adv-x="511" 
d="M494 231h-182v-227l-106 4v223h-181l-8 86h189v217l106 -3v-214h172z" />
    <glyph glyph-name="comma" unicode="," horiz-adv-x="175" 
d="M91 133q28 0 48.5 -22.5t20.5 -58.5q0 -53 -35 -109.5t-87 -85.5l-27 54q26 20 43 39t23 50q-18 1 -35 21t-17 45t19 46t47 21z" />
    <glyph glyph-name="hyphen" unicode="-" horiz-adv-x="300" 
d="M284 229h-258l-10 89h258z" />
    <glyph glyph-name="period" unicode="." horiz-adv-x="157" 
d="M79 133q28 0 47 -19t19 -47q0 -29 -19 -48t-47 -19t-48 19t-20 48q0 28 20 47t48 19z" />
    <glyph glyph-name="slash" unicode="/" horiz-adv-x="428" 
d="M423 706l-302 -710l-115 4l300 710z" />
    <glyph glyph-name="zero" unicode="0" horiz-adv-x="617" 
d="M54 286q0 137 72.5 215t182.5 78t181 -76t71 -216q0 -137 -73 -218.5t-180 -81.5q-110 0 -182 79t-72 220zM160 289q0 -99 43 -152t106 -53q60 0 104 52.5t44 147.5q0 98 -43 148.5t-106 50.5q-61 0 -104.5 -50.5t-43.5 -143.5z" />
    <glyph glyph-name="one" unicode="1" horiz-adv-x="429" 
d="M376 0h-302l-9 80h108v355l-58 -36q-13 19 -26.5 38.5t-26.5 38.5l149 90h75v-486h80q3 -20 5.5 -40.5t4.5 -39.5z" />
    <glyph glyph-name="two" unicode="2" horiz-adv-x="503" 
d="M230 579q113 0 157.5 -56.5t44.5 -121.5q0 -58 -34.5 -108t-107.5 -111l-112 -95h266l14 -87h-427v78l198 176q58 51 78.5 82.5t21.5 64.5q0 37 -26 61.5t-75 24.5q-40 0 -86 -26t-49 -27l-49 78q22 16 69.5 41.5t116.5 25.5z" />
    <glyph glyph-name="three" unicode="3" horiz-adv-x="530" 
d="M249 579q104 0 155.5 -51t51.5 -120q0 -48 -27.5 -85.5t-61.5 -50.5q35 -9 68 -51t33 -104q0 -81 -63.5 -137t-170.5 -56q-55 0 -111.5 19t-99.5 41l58 76q39 -23 74 -34t82 -11q48 0 86.5 27t38.5 74q0 50 -38 80t-123 30h-36l-16 87h58q66 0 104.5 25t38.5 68
q0 33 -28 57t-76 24t-87 -16.5t-65 -34.5l-54 76q46 30 97.5 48.5t111.5 18.5z" />
    <glyph glyph-name="four" unicode="4" horiz-adv-x="581" 
d="M537 63h-93v-132h-114v132h-284l-15 93l330 415h83v-415h105zM153 156h177v230z" />
    <glyph glyph-name="five" unicode="5" horiz-adv-x="543" 
d="M85 212l17 354h358l-13 -92h-247l-7 -144q19 10 40.5 15t43.5 5q111 0 164.5 -61.5t54.5 -145.5q0 -94 -64.5 -156.5t-177.5 -62.5q-56 0 -112 18.5t-98 40.5l57 80q38 -22 73.5 -33.5t82.5 -11.5q58 0 96 33.5t38 91.5q0 54 -31 85t-79 31q-36 0 -60.5 -16t-33.5 -31
h-102z" />
    <glyph glyph-name="six" unicode="6" horiz-adv-x="554" 
d="M517 200q0 -83 -57 -148t-152 -65q-108 0 -181 69t-73 206q0 110 82 227.5t214 144.5l49 -73q-80 -19 -139 -77t-84 -129q27 19 60.5 32.5t67.5 13.5q97 0 155 -60.5t58 -140.5zM415 194q0 47 -30.5 86t-84.5 39q-51 0 -88 -27.5t-52 -60.5q7 -67 41.5 -109t100.5 -42
q51 0 82 35t31 79z" />
    <glyph glyph-name="seven" unicode="7" horiz-adv-x="501" 
d="M52 -38l284 512h-278l-14 92h399l34 -46l-319 -589z" />
    <glyph glyph-name="eight" unicode="8" horiz-adv-x="564" 
d="M512 181q0 -79 -60.5 -136.5t-168.5 -57.5q-110 0 -170.5 57t-60.5 137q0 51 36 98t82 61q-40 17 -66 52t-26 79q0 69 54.5 120.5t150.5 51.5q95 0 149 -51.5t54 -120.5q0 -44 -27 -79t-65 -52q44 -14 81 -59.5t37 -99.5zM181 471q-1 -36 25.5 -60.5t76.5 -31.5
q49 7 74.5 31.5t25.5 60.5q0 32 -28 56t-75 24q-44 0 -71.5 -24.5t-27.5 -55.5zM282 78h1q48 0 87 27t39 74q0 41 -32.5 73.5t-93.5 42.5q-64 -10 -95.5 -42.5t-31.5 -73.5q0 -47 38 -74t88 -27z" />
    <glyph glyph-name="nine" unicode="9" horiz-adv-x="554" 
d="M36 366q0 82 59 147.5t154 65.5q108 0 178.5 -69.5t70.5 -205.5q0 -110 -81.5 -227.5t-212.5 -145.5l-51 74q81 19 139 76.5t83 126.5q-25 -19 -57 -31t-65 -12q-98 0 -157.5 60.5t-59.5 140.5zM140 372q0 -47 30 -86t83 -39q51 0 88 27.5t52 59.5q-7 69 -41.5 110.5
t-99.5 41.5q-51 0 -81.5 -35t-30.5 -79z" />
    <glyph glyph-name="colon" unicode=":" horiz-adv-x="157" 
d="M79 468q28 0 47 -19.5t19 -47.5t-19 -47.5t-47 -19.5t-48 19.5t-20 47.5t20 47.5t48 19.5zM79 142q28 0 47 -19t19 -47q0 -29 -19 -48t-47 -19t-48 19t-20 48q0 28 20 47t48 19z" />
    <glyph glyph-name="semicolon" unicode=";" horiz-adv-x="177" 
d="M94 468q28 0 47.5 -19.5t19.5 -47.5t-19.5 -47.5t-47.5 -19.5t-48 19.5t-20 47.5t20 47.5t48 19.5zM91 142q28 0 48.5 -22.5t20.5 -58.5q0 -52 -35 -109t-87 -86l-27 54q26 20 43 39t23 50q-18 1 -35 21t-17 45t19 46t47 21z" />
    <glyph glyph-name="less" unicode="&#x3c;" horiz-adv-x="336" 
d="M283 19l-269 198v56l269 197l23 -91l-180 -134l180 -134z" />
    <glyph glyph-name="equal" unicode="=" horiz-adv-x="493" 
d="M472 314h-441l-10 85h443zM472 112h-441l-10 85h443z" />
    <glyph glyph-name="greater" unicode="&#x3e;" horiz-adv-x="336" 
d="M322 217l-268 -198l-23 92q45 33 90 66.5t90 67.5l-180 133l23 92l268 -198v-55z" />
    <glyph glyph-name="question" unicode="?" horiz-adv-x="411" 
d="M198 701q100 0 149 -48.5t49 -126.5q0 -55 -48 -112t-121 -94l-15 -151l-81 34l-8 175q73 24 120 62.5t47 83.5q0 41 -26 62t-69 21q-37 0 -81 -15.5t-91 -48.5l-15 101q44 28 89 42.5t101 14.5zM166 133q28 0 47.5 -19t19.5 -47q0 -29 -19.5 -48t-47.5 -19t-47.5 19
t-19.5 48q0 28 19.5 47t47.5 19z" />
    <glyph glyph-name="at" unicode="@" horiz-adv-x="806" 
d="M576 387l-23 -196q0 -22 10 -32t21 -10q33 0 58 40.5t25 110.5q0 93 -62.5 151.5t-161.5 58.5q-111 0 -200.5 -77.5t-89.5 -210.5q0 -107 71 -168t167 -61q37 0 81.5 7t84.5 28q7 -21 14 -42.5t14 -42.5q-51 -27 -103 -34.5t-102 -7.5q-123 0 -225.5 87.5t-102.5 233.5
q0 153 106 265.5t287 112.5q137 0 226.5 -83t89.5 -211q0 -122 -51.5 -184t-131.5 -62q-22 0 -43 7.5t-37 20.5q-17 -10 -40.5 -18.5t-46.5 -8.5q-89 0 -131.5 44.5t-42.5 114.5q0 95 70 151t159 56h78q8 -10 16.5 -20t15.5 -20zM409 149q19 0 33 12t18 30q0 6 0.5 13.5
t1.5 14.5l17 125h-12q-51 0 -90.5 -32.5t-39.5 -91.5q0 -26 16.5 -48.5t55.5 -22.5z" />
    <glyph glyph-name="A" unicode="A" horiz-adv-x="634" 
d="M314 526l-99 -264h200zM365 680l263 -664l-113 -16l-65 171h-268l-64 -171h-112l260 680h99z" />
    <glyph glyph-name="B" unicode="B" horiz-adv-x="639" 
d="M318 680q101 0 165 -42t64 -145q0 -41 -19.5 -72.5t-50.5 -53.5q49 -22 81 -63.5t32 -106.5q0 -98 -68 -147.5t-176 -49.5h-257v680h229zM304 586h-103v-189h95q60 0 96 21.5t36 72.5q0 56 -33.5 75.5t-90.5 19.5zM349 305h-148v-212h138q59 0 96.5 25t37.5 78
q0 54 -34 81.5t-90 27.5z" />
    <glyph glyph-name="C" unicode="C" horiz-adv-x="595" 
d="M508 570q-41 13 -69.5 21t-74.5 8q-87 -1 -136 -71.5t-49 -189.5q0 -104 41 -180.5t135 -76.5q46 0 83 9t67 22l42 -84q-36 -19 -90 -30.5t-96 -11.5q-158 0 -229 102.5t-71 248.5q0 154 78 255.5t227 101.5q31 0 84 -10t93 -32z" />
    <glyph glyph-name="D" unicode="D" horiz-adv-x="700" 
d="M89 0v680h241q159 0 233.5 -95.5t74.5 -240.5q0 -154 -80.5 -248.5t-229.5 -95.5h-239zM335 584h-134v-490h126q88 0 142 60.5t54 188.5q0 110 -45.5 175.5t-142.5 65.5z" />
    <glyph glyph-name="E" unicode="E" horiz-adv-x="566" 
d="M89 0v680h394l17 -88h-299v-203h187q4 -22 8.5 -44.5t8.5 -44.5h-204v-212h325q4 -22 8.5 -44t8.5 -44h-454z" />
    <glyph glyph-name="F" unicode="F" horiz-adv-x="495" 
d="M394 296h-193v-296h-112v680h376l17 -88h-281v-209h177z" />
    <glyph glyph-name="G" unicode="G" horiz-adv-x="656" 
d="M346 364h239v-279q0 -13 -0.5 -25.5t-0.5 -24.5l1 -1q-37 -20 -92 -34t-113 -14q-158 0 -238.5 101.5t-80.5 248.5q0 157 90 257.5t242 100.5q31 0 86 -10t95 -33l-35 -81q-41 13 -69.5 20.5t-74.5 7.5q-94 0 -155.5 -66t-61.5 -195q0 -118 51.5 -187t147.5 -69
q34 0 60 4.5t45 9.5v183h-145z" />
    <glyph glyph-name="H" unicode="H" horiz-adv-x="688" 
d="M486 0v295h-285v-295h-112v680l112 5v-299h285v294h113v-680h-113z" />
    <glyph glyph-name="I" unicode="I" horiz-adv-x="291" 
d="M89 0v680h112v-680h-112z" />
    <glyph glyph-name="J" unicode="J" horiz-adv-x="300" 
d="M97 160v520h113v-539q0 -67 -31 -101.5t-117 -61.5l-45 82q52 19 66 36t14 64z" />
    <glyph glyph-name="K" unicode="K" horiz-adv-x="626" 
d="M484 0l-225 302l-67 -78v-224h-113v680h113v-300l268 315l82 -65l-209 -242l290 -388h-139z" />
    <glyph glyph-name="L" unicode="L" horiz-adv-x="534" 
d="M521 0h-432v680h112v-592h304z" />
    <glyph glyph-name="M" unicode="M" horiz-adv-x="770" 
d="M377 212l-176 236v-448h-112v680h70l235 -325l218 325h70v-680h-114v432l-148 -214z" />
    <glyph glyph-name="N" unicode="N" horiz-adv-x="732" 
d="M89 0v680h107l278 -396q14 -20 28 -41l28 -42v479h113v-680h-108l-283 405l-51 76v-481h-112z" />
    <glyph glyph-name="O" unicode="O" horiz-adv-x="740" 
d="M61 337q0 155 80.5 255.5t228.5 103.5q159 0 234 -103.5t75 -248.5q0 -154 -80.5 -254.5t-229.5 -103.5q-158 0 -233 103.5t-75 247.5zM179 338q0 -110 45.5 -183.5t142.5 -73.5q89 0 141.5 67.5t52.5 195.5q0 110 -45.5 182.5t-143.5 72.5q-87 0 -140 -71t-53 -190z" />
    <glyph glyph-name="P" unicode="P" horiz-adv-x="599" 
d="M89 0v680h204q110 0 186.5 -49.5t76.5 -165.5q-1 -115 -83 -168t-190 -53h-82v-244h-112zM290 586h-89v-249h88q63 0 104 29t44 93q0 71 -39 99t-108 28z" />
    <glyph glyph-name="Q" unicode="Q" horiz-adv-x="740" 
d="M602 -31l-68 63q-34 -21 -75 -33t-90 -13q-158 0 -233 103.5t-75 247.5q0 155 80.5 255.5t228.5 103.5q159 0 234 -103.5t75 -248.5q0 -75 -20.5 -140t-57.5 -111l67 -65zM179 338q0 -110 45.5 -183.5t142.5 -73.5q25 0 47.5 6.5t41.5 17.5l-88 82l77 59l77 -76
q19 32 29 76t10 98q0 110 -45.5 182.5t-143.5 72.5q-87 0 -140 -71t-53 -190z" />
    <glyph glyph-name="R" unicode="R" horiz-adv-x="628" 
d="M290 586h-89v-229h88q63 0 105.5 25.5t42.5 87.5q0 65 -39.5 90.5t-107.5 25.5zM487 0l-149 268q-13 -2 -27 -2.5t-28 -0.5h-82v-265h-112v680h204q110 0 186.5 -49t76.5 -156q0 -66 -33 -110.5t-85 -68.5l170 -296h-121z" />
    <glyph glyph-name="S" unicode="S" horiz-adv-x="547" 
d="M82 131q29 -15 76.5 -30t92.5 -15q67 0 101 23t34 63q0 91 -171 140.5t-171 203.5q0 75 60 127.5t169 52.5q51 0 100 -15t86 -33q-9 -23 -19 -45.5t-19 -44.5q-27 13 -62 25.5t-79 12.5q-51 0 -86 -18.5t-35 -59.5q0 -95 171.5 -145.5t171.5 -199.5q0 -81 -64.5 -133.5
t-185.5 -52.5q-43 0 -108.5 17.5t-87.5 36.5z" />
    <glyph glyph-name="T" unicode="T" horiz-adv-x="565" 
d="M558 591h-228v-591h-114v591h-209v89h534z" />
    <glyph glyph-name="U" unicode="U" horiz-adv-x="706" 
d="M195 254q0 -85 43.5 -129t113.5 -44q72 0 114.5 45t42.5 128v426h114v-435q0 -110 -73 -183t-198 -73t-197.5 73t-72.5 183v435h113v-426z" />
    <glyph glyph-name="V" unicode="V" horiz-adv-x="634" 
d="M269 0l-263 664l111 16l202 -528l196 528h113l-260 -680h-99z" />
    <glyph glyph-name="W" unicode="W" horiz-adv-x="1013" 
d="M673 0l-169 509l-162 -509h-103l-233 664l111 16l174 -520l162 520h106l171 -519l165 519h113l-231 -680h-104z" />
    <glyph glyph-name="X" unicode="X" horiz-adv-x="656" 
d="M10 7l249 337l-235 319l110 17l194 -265l200 265h118l-261 -343l248 -337h-119l-197 266l-202 -276z" />
    <glyph glyph-name="Y" unicode="Y" horiz-adv-x="590" 
d="M235 0l1 268l-230 396l117 16l168 -299l175 299h119l-236 -414v-266h-114z" />
    <glyph glyph-name="Z" unicode="Z" horiz-adv-x="576" 
d="M552 0h-521q-4 22 -7 44l-6 44q99 125 200.5 251.5t200.5 251.5h-359q-3 22 -6.5 44.5t-7.5 44.5h491l12 -89l-409 -503h399l6 -44t7 -44z" />
    <glyph glyph-name="bracketleft" unicode="[" horiz-adv-x="308" 
d="M72 696h230l-17 -88h-102v-609h102l17 -87h-230v784z" />
    <glyph glyph-name="backslash" unicode="\" horiz-adv-x="428" 
d="M306 -4l-300 710l115 4l302 -710z" />
    <glyph glyph-name="bracketright" unicode="]" horiz-adv-x="308" 
d="M235 -88h-229l15 87h102v609h-102l-15 88h229v-784z" />
    <glyph glyph-name="asciicircum" unicode="^" horiz-adv-x="446" 
d="M128 143h-117l175 247h74l175 -247h-116l-96 136z" />
    <glyph glyph-name="underscore" unicode="_" horiz-adv-x="413" 
d="M397 0h-371l-10 88h372z" />
    <glyph glyph-name="grave" unicode="`" horiz-adv-x="209" 
d="M16 750h118l60 -161h-86z" />
    <glyph glyph-name="a" unicode="a" horiz-adv-x="512" 
d="M147 142q0 -24 19 -44.5t53 -20.5q31 0 61.5 15.5t55.5 40.5v86h-108q-40 0 -60.5 -23t-20.5 -54zM76 454q28 19 83 31.5t86 12.5q86 0 145 -49t59 -125v-324h-61q-7 10 -14 21.5t-14 21.5q-26 -22 -64 -38.5t-75 -16.5q-87 0 -129.5 43t-42.5 111q0 74 50 113.5
t131 39.5h105q-3 43 -22 71.5t-66 28.5q-38 0 -75.5 -10t-64.5 -23l-16 46t-15 46z" />
    <glyph glyph-name="b" unicode="b" horiz-adv-x="571" 
d="M72 0v695l113 11v-243q29 18 62 28.5t61 10.5q107 0 162.5 -73.5t55.5 -183.5t-56.5 -183.5t-161.5 -73.5q-32 0 -74.5 14t-73.5 39l-28 -41h-60zM185 119q22 -16 48 -25.5t49 -9.5q71 0 99.5 50.5t28.5 109.5q0 66 -26.5 114t-101.5 48q-23 0 -49 -10t-48 -26v-251z" />
    <glyph glyph-name="c" unicode="c" horiz-adv-x="480" 
d="M287 402q-61 0 -93.5 -45.5t-32.5 -113.5q0 -69 31.5 -114t93.5 -45q39 0 65.5 8.5t59.5 24.5l32 -82q-32 -24 -79.5 -35.5t-78.5 -11.5q-115 0 -178 70t-63 185q1 114 64.5 184.5t178.5 70.5q30 0 77 -12.5t81 -36.5l-33 -81q-33 15 -59.5 24.5t-65.5 9.5z" />
    <glyph glyph-name="d" unicode="d" horiz-adv-x="579" 
d="M289 406q-72 0 -100 -50.5t-28 -110.5q0 -65 26.5 -113t101.5 -48q25 0 52.5 11.5t51.5 29.5v240q-24 19 -51.5 30t-52.5 11zM507 706v-706h-61l-31 46q-32 -28 -75 -43t-79 -15q-106 0 -161.5 73.5t-55.5 183.5t58.5 183.5t163.5 73.5q28 0 63 -10.5t64 -29.5v233z" />
    <glyph glyph-name="e" unicode="e" horiz-adv-x="539" 
d="M499 212h-336q7 -57 43 -93t102 -36q38 0 66 9t60 24q9 -20 17.5 -41t16.5 -41q-33 -24 -82 -35t-80 -11q-124 0 -193 69.5t-69 184.5t64 185.5t174 70.5q125 0 171 -86.5t46 -199.5zM391 288q-10 54 -37.5 83.5t-74.5 29.5q-48 0 -77.5 -30t-36.5 -83h226z" />
    <glyph glyph-name="f" unicode="f" horiz-adv-x="351" 
d="M84 531q0 79 45 125t126 46q22 0 49 -8.5t41 -18.5l-31 -83q-13 5 -26 8.5t-25 3.5q-35 0 -50.5 -24.5t-15.5 -61.5v-43h91l36 -88h-127v-387h-113v387h-74v88h74v56z" />
    <glyph glyph-name="g" unicode="g" horiz-adv-x="579" 
d="M393 365q-25 18 -52 29.5t-52 11.5q-72 0 -100.5 -50.5t-28.5 -110.5q0 -66 27 -113.5t102 -47.5q25 0 52 11.5t52 29.5v240zM507 -12q0 -84 -57 -140.5t-178 -56.5q-31 0 -87 13t-93 38q9 20 17.5 40.5t16.5 40.5q40 -19 71.5 -30t71.5 -11q59 0 91.5 28t32.5 79v41
q-30 -19 -65.5 -30.5t-66.5 -11.5q-106 0 -161.5 73t-55.5 183q0 111 58 184.5t164 73.5q35 0 78.5 -16t74.5 -43l27 42h61v-497z" />
    <glyph glyph-name="h" unicode="h" horiz-adv-x="577" 
d="M185 442q31 28 74.5 44t79.5 16q94 0 134.5 -54.5t40.5 -135.5v-312h-113v305q0 47 -22.5 74t-67.5 27q-29 0 -64 -16.5t-62 -41.5v-348h-112v695l112 11v-264z" />
    <glyph glyph-name="i" unicode="i" horiz-adv-x="250" 
d="M125 563q-28 0 -47 19t-19 47q-1 28 18.5 47.5t47.5 19.5t47.5 -19.5t19.5 -47.5t-19.5 -47t-47.5 -19zM68 0v485h114v-485h-114z" />
    <glyph glyph-name="j" unicode="j" horiz-adv-x="266" 
d="M137 563q-28 0 -47 19t-19 47t19 47.5t47 19.5t48 -19.5t20 -47.5t-20 -47t-48 -19zM81 3v482h114v-489q0 -77 -35.5 -121.5t-130.5 -74.5l-43 85q51 19 73 45t22 73z" />
    <glyph glyph-name="k" unicode="k" horiz-adv-x="516" 
d="M72 0v695l113 11v-409l212 201l64 -78q-34 -32 -69.5 -64t-70.5 -64l186 -292h-131l-134 219q-14 -13 -29 -26.5t-28 -26.5v-166h-113z" />
    <glyph glyph-name="l" unicode="l" horiz-adv-x="257" 
d="M72 0v695l113 11v-706h-113z" />
    <glyph glyph-name="m" unicode="m" horiz-adv-x="880" 
d="M470 425q31 34 81 55.5t91 21.5q94 0 135 -54.5t41 -135.5v-312h-114v305q0 47 -22.5 74t-67.5 27q-29 0 -62 -16t-60 -40q1 -9 2 -18.5t1 -19.5v-312h-114v305q0 47 -22.5 74t-66.5 27q-28 0 -57 -13t-55 -35v-358h-113v485h62l29 -48q32 30 78 47.5t83 17.5
q56 0 93.5 -20.5t57.5 -56.5z" />
    <glyph glyph-name="n" unicode="n" horiz-adv-x="573" 
d="M163 427q32 34 81.5 54.5t89.5 20.5q93 0 134.5 -54.5t41.5 -135.5v-312h-113v305q0 47 -22.5 74t-67.5 27q-29 0 -64 -16.5t-63 -41.5v-348h-113v485h62z" />
    <glyph glyph-name="o" unicode="o" horiz-adv-x="574" 
d="M279 -12q-113 1 -174 70.5t-61 185.5q1 114 65 183.5t178 70.5q117 0 180 -72t63 -187q-1 -114 -69 -182.5t-182 -68.5zM414 239q0 73 -30.5 117.5t-93.5 44.5t-96 -40.5t-33 -115.5q0 -76 28 -118.5t91 -42.5t98 39t36 116z" />
    <glyph glyph-name="p" unicode="p" horiz-adv-x="571" 
d="M185 119q22 -16 48 -25.5t49 -9.5q71 0 99.5 50.5t28.5 109.5q0 66 -26.5 114t-101.5 48q-23 0 -49 -10t-48 -26v-251zM72 -219v704h60l25 -39q32 25 74.5 40.5t76.5 15.5q107 0 162.5 -73.5t55.5 -183.5t-56.5 -183.5t-161.5 -73.5q-28 0 -61 10t-62 28v-234z" />
    <glyph glyph-name="q" unicode="q" horiz-adv-x="579" 
d="M507 485v-694l-114 -10v249q-30 -19 -65.5 -30.5t-66.5 -11.5q-106 0 -161.5 73.5t-55.5 183.5t58.5 183.5t163.5 73.5q36 0 79 -16t75 -42l26 41h61zM289 406q-72 0 -100 -50.5t-28 -110.5q0 -65 26.5 -113t101.5 -48q25 0 52.5 11.5t51.5 29.5v240q-24 19 -51.5 30
t-52.5 11z" />
    <glyph glyph-name="r" unicode="r" horiz-adv-x="349" 
d="M67 0v485h61q9 -18 18.5 -35.5t18.5 -34.5q29 25 72 47.5t82 22.5l23 -91q-36 0 -79.5 -20t-82.5 -56v-318h-113z" />
    <glyph glyph-name="s" unicode="s" horiz-adv-x="437" 
d="M349 368q-31 15 -61.5 24.5t-67.5 9.5q-31 0 -49 -12.5t-18 -34.5q0 -17 21.5 -30.5t61.5 -28.5q60 -21 112 -59.5t52 -100.5q0 -70 -50.5 -109t-148.5 -39q-31 0 -81 11t-83 36l34 82q33 -16 66 -24.5t63 -8.5q42 0 64.5 12.5t22.5 34.5q0 24 -23.5 42.5t-67.5 32.5
q-57 19 -108.5 53.5t-51.5 93.5q0 68 50 106.5t136 38.5q31 0 79 -12.5t82 -35.5z" />
    <glyph glyph-name="t" unicode="t" horiz-adv-x="356" 
d="M341 7q-15 -10 -41.5 -17.5t-48.5 -7.5q-81 0 -128 42t-47 121v250h-66v87h66v117l113 23v-140h88l35 -87h-123v-231q0 -37 17 -61.5t53 -24.5q13 0 25.5 3.5t24.5 8.5z" />
    <glyph glyph-name="u" unicode="u" horiz-adv-x="564" 
d="M402 50q-33 -31 -79 -49.5t-85 -18.5q-94 0 -135 55t-41 135v313h114v-306q0 -46 22.5 -73.5t67.5 -27.5q26 0 58 14t59 35v358h113v-485h-62z" />
    <glyph glyph-name="v" unicode="v" horiz-adv-x="492" 
d="M195 0l-185 469l116 16l123 -322l117 322h117l-187 -485h-101z" />
    <glyph glyph-name="w" unicode="w" horiz-adv-x="754" 
d="M484 0l-110 321l-103 -321h-100l-161 469l116 16l97 -312l93 312h122l97 -312l92 312h118l-163 -485h-98z" />
    <glyph glyph-name="x" unicode="x" horiz-adv-x="527" 
d="M9 0l183 246l-168 222l116 17l125 -169l130 169h123l-186 -257l171 -228h-124l-122 158l-123 -158h-125z" />
    <glyph glyph-name="y" unicode="y" horiz-adv-x="492" 
d="M162 -42l25 66l-177 445l115 16l124 -321l117 321h117l-176 -456l-40 -105q-21 -54 -73 -93t-112 -52l-39 90q36 16 71 35.5t48 53.5z" />
    <glyph glyph-name="z" unicode="z" horiz-adv-x="455" 
d="M424 421l-252 -330h248l10 -91h-393l-15 59l249 333h-210l-22 93h379z" />
    <glyph glyph-name="braceleft" unicode="{" horiz-adv-x="285" 
d="M184 538q0 -25 17.5 -60.5t17.5 -67.5q0 -36 -9.5 -60.5t-32.5 -40.5q21 -16 31.5 -42.5t10.5 -60.5q0 -28 -17.5 -66t-17.5 -61q0 -12 10.5 -23.5t35.5 -11.5h36q3 -22 6 -43t5 -43h-28q-83 0 -121 29.5t-38 91.5q0 28 17 70t17 68q0 23 -17 38t-34 15h-42v75h42
q20 0 32.5 15.5t12.5 39.5q0 9 -1.5 19.5t-4.5 22.5v-1q-6 27 -13 54.5t-7 50.5q0 59 40 86t117 27h28q-2 -22 -5 -43.5t-6 -43.5h-36q-27 0 -36.5 -12.5t-9.5 -21.5z" />
    <glyph glyph-name="bar" unicode="|" horiz-adv-x="267" 
d="M190 704v-713l-112 9v712z" />
    <glyph glyph-name="braceright" unicode="}" horiz-adv-x="285" 
d="M99 78q0 27 -17.5 61.5t-17.5 66.5q0 36 10.5 61t32.5 40q-22 17 -32.5 43.5t-10.5 59.5q0 28 17.5 64.5t17.5 64.5q0 10 -10.5 21.5t-34.5 11.5h-36q-3 22 -5 43.5t-5 43.5h27q81 0 121 -29.5t40 -91.5q0 -30 -17.5 -72t-17.5 -68q0 -21 16 -37t34 -16h42v-73h-42
q-19 0 -33 -14.5t-14 -38.5q0 -9 2 -20.5t6 -24.5v1q6 -26 13.5 -52.5t7.5 -48.5q0 -61 -41 -88.5t-117 -27.5h-27q3 22 5 43t5 43h36q23 0 34 11t11 23z" />
    <glyph glyph-name="asciitilde" unicode="~" horiz-adv-x="436" 
d="M415 332q0 -81 -35 -115t-83 -34q-50 0 -84 17.5t-64 17.5q-9 0 -19 -8t-11 -30h-99q0 81 35.5 114.5t82.5 33.5q52 0 84.5 -18t61.5 -18q10 0 20.5 8.5t11.5 31.5h99z" />
    <glyph glyph-name="dv_CandrabinduInverted" horiz-adv-x="0" 
d="M249 1044q69 0 130.5 -30.5t101.5 -108.5q-20 -13 -41.5 -27t-42.5 -27q-29 55 -69.5 76.5t-78.5 21.5t-80.5 -23.5t-67.5 -74.5l-84 54q40 78 101.5 108.5t130.5 30.5zM249 758q-30 0 -50.5 21.5t-20.5 50.5q0 31 20.5 51.5t50.5 20.5t51 -20.5t21 -51.5
q0 -29 -21 -50.5t-51 -21.5z" />
    <glyph glyph-name="uni00A0" unicode="&#xa0;" horiz-adv-x="236" 
 />
    <glyph glyph-name="exclamdown" unicode="&#xa1;" horiz-adv-x="244" 
d="M121 567q-28 0 -47.5 20t-19.5 48q0 27 19.5 47t47.5 20t47.5 -20t19.5 -47q0 -28 -19.5 -48t-47.5 -20zM61 0l16 505l89 -41l15 -464h-120z" />
    <glyph glyph-name="cent" unicode="&#xa2;" horiz-adv-x="480" 
d="M342 609v-120q26 -4 54 -14.5t49 -25.5l-33 -81q-33 15 -59.5 24.5t-65.5 9.5q-61 0 -93.5 -45.5t-32.5 -113.5q0 -69 31.5 -114t93.5 -45q39 0 65.5 8.5t59.5 24.5l32 -82q-19 -15 -46 -25.5t-54 -15.5v-108l-109 8v98q-91 14 -140.5 81.5t-49.5 169.5q1 100 50 167
t139 82v117h109z" />
    <glyph glyph-name="sterling" unicode="&#xa3;" horiz-adv-x="495" 
d="M240 500v-114h123l37 -86h-160v-94q0 -34 -5.5 -66.5t-18.5 -51.5h249l8 -44l8 -44h-418q0 22 -0.5 44t-0.5 44h4q33 1 46.5 24.5t13.5 60.5v127h-74v86h74v119q0 82 44 130.5t128 48.5q23 0 49 -8t41 -20q-8 -20 -16 -40.5t-15 -41.5q-12 5 -26 8.5t-25 3.5
q-36 0 -51 -24.5t-15 -61.5z" />
    <glyph glyph-name="currency" unicode="&#xa4;" horiz-adv-x="679" 
d="M480 28q-30 -19 -65.5 -29.5t-75.5 -11.5q-40 1 -75.5 12t-65.5 30l-106 -108l-69 83l100 101q-17 28 -27 63t-10 74t10 73.5t28 61.5l-101 103l69 82l106 -107q31 19 67.5 30.5t76.5 12.5q40 -1 75 -12t64 -30l106 106l68 -82l-98 -99q19 -29 28.5 -64t10.5 -75
q-1 -40 -11 -75t-28 -64l98 -99l-68 -83zM480 241q-1 63 -41 106t-98 43q-57 -1 -97.5 -43t-41.5 -104q1 -63 40 -106t96 -44q57 0 99 42.5t43 105.5z" />
    <glyph glyph-name="yen" unicode="&#xa5;" horiz-adv-x="590" 
d="M235 0v69h-161q-3 21 -5.5 42t-4.5 42h171v75h-161q-3 21 -5.5 42t-4.5 42h146l-204 352l58 8l58 8l169 -299l175 299h119l-210 -368h131l10 -84h-167v-75h157l10 -84h-168v-69h-113z" />
    <glyph glyph-name="brokenbar" unicode="&#xa6;" horiz-adv-x="267" 
d="M190 704v-298l-112 9v297zM190 288v-297l-112 9v296z" />
    <glyph glyph-name="section" unicode="&#xa7;" horiz-adv-x="615" 
d="M428 206q13 10 20 24.5t7 30.5q0 63 -101.5 102.5t-170.5 96.5q-11 -10 -17.5 -23.5t-6.5 -29.5q0 -66 98.5 -105t170.5 -96zM82 25q29 -14 76.5 -29.5t92.5 -15.5q67 0 101 23.5t34 63.5q0 88 -171 136t-171 201q0 44 20.5 81t57.5 60q-4 13 -6.5 27.5t-2.5 29.5
q0 76 60.5 127t168.5 51q49 0 98 -15t86 -32q-9 -23 -18 -45.5t-19 -44.5q-31 14 -65.5 27t-80.5 13q-51 0 -83.5 -20.5t-32.5 -59.5q0 -95 171 -143t171 -197q0 -44 -20 -81t-58 -62q5 -13 8 -26.5t3 -28.5q0 -79 -65.5 -131.5t-184.5 -52.5q-43 0 -108.5 18t-87.5 38z" />
    <glyph glyph-name="dieresis" unicode="&#xa8;" horiz-adv-x="334" 
d="M76 725q25 0 41.5 -17.5t16.5 -41.5q0 -25 -16.5 -42t-41.5 -17t-42.5 17t-17.5 42q0 24 17.5 41.5t42.5 17.5zM258 725q25 0 42 -17.5t17 -41.5q0 -25 -17 -42t-42 -17q-24 0 -42 17t-18 42q0 24 18 41.5t42 17.5z" />
    <glyph glyph-name="copyright" unicode="&#xa9;" horiz-adv-x="854" 
d="M807 336q0 -156 -102.5 -266t-277.5 -110t-277.5 110t-102.5 266q0 157 102.5 267t277.5 110t277.5 -110t102.5 -267zM124 337q0 -131 81.5 -219.5t221.5 -88.5t221.5 88.5t81.5 219.5t-81.5 219.5t-221.5 88.5t-221.5 -88.5t-81.5 -219.5zM446 475q-54 0 -83 -37.5
t-29 -98.5q0 -66 28 -103t83 -37q37 0 61 8.5t55 23.5l31 -83q-31 -24 -75.5 -34.5t-72.5 -10.5q-107 0 -166.5 64t-59.5 171q0 105 63 169.5t164 64.5q28 0 72.5 -11t76.5 -33l-32 -85q-30 15 -54.5 23.5t-61.5 8.5z" />
    <glyph glyph-name="ordfeminine" unicode="&#xaa;" horiz-adv-x="341" 
d="M112 472q0 -12 8 -21t25 -9q19 0 36.5 7t31.5 20v34h-51q-24 0 -37 -7.5t-13 -23.5zM44 673q18 12 54.5 20.5t58.5 8.5q59 0 100.5 -35t41.5 -85v-211h-47l-21 28q-16 -13 -40 -24.5t-49 -11.5q-57 0 -86.5 29.5t-29.5 74.5q0 49 34 76.5t88 27.5h63q0 25 -15.5 38
t-37.5 13q-25 0 -50.5 -7t-43.5 -14q-5 17 -10 35.5t-10 36.5z" />
    <glyph glyph-name="guillemotleft" unicode="&#xab;" horiz-adv-x="377" 
d="M188 221v47q39 34 77.5 69.5t78.5 69.5l21 -75l-46 -44t-46 -43l46 -44t46 -43l-21 -75q-40 34 -78.5 69t-77.5 69zM23 268l155 139l23 -75l-92 -87q22 -22 45.5 -44t46.5 -43l-23 -75l-155 138v47z" />
    <glyph glyph-name="logicalnot" unicode="&#xac;" horiz-adv-x="511" 
d="M490 356v-244l-96 5v200h-370l-8 89h466z" />
    <glyph glyph-name="softhyphen" unicode="&#xad;" horiz-adv-x="131" 
 />
    <glyph glyph-name="registered" unicode="&#xae;" horiz-adv-x="743" 
d="M707 487q0 -139 -90.5 -235t-245.5 -96q-154 0 -244.5 96t-90.5 235q0 140 90.5 236.5t244.5 96.5q155 0 245.5 -96.5t90.5 -236.5zM108 488q0 -114 69.5 -190t193.5 -77q123 1 193.5 77t70.5 190q0 116 -70.5 191.5t-193.5 75.5q-124 0 -193.5 -75.5t-69.5 -191.5z
M355 613h-34v-97h34q35 0 58 9t23 39q0 33 -22 41t-59 8zM540 304h-91q-18 37 -35 73.5t-34 73.5q-7 0 -14 -0.5t-14 -0.5h-31v-146h-81v376h137q60 0 102 -27t42 -86q0 -37 -19 -62t-46 -38q21 -41 42.5 -82t41.5 -81z" />
    <glyph glyph-name="macron" unicode="&#xaf;" horiz-adv-x="288" 
d="M16 709h257v-89h-257v89z" />
    <glyph glyph-name="degree" unicode="&#xb0;" horiz-adv-x="249" 
d="M125 718q46 0 81 -32.5t35 -78.5q0 -48 -35 -79t-81 -31q-48 0 -82.5 31t-34.5 79q0 46 34.5 78.5t82.5 32.5zM170 605q0 19 -13 32.5t-32 13.5t-31.5 -13.5t-12.5 -30.5q0 -18 12.5 -32.5t31.5 -14.5t32 13.5t13 31.5z" />
    <glyph glyph-name="plusminus" unicode="&#xb1;" horiz-adv-x="458" 
d="M436 299h-157v-167l-97 5v162h-152l-9 79h161v156l97 -3v-153h148zM436 0h-406l-7 79h408z" />
    <glyph glyph-name="twosuperior" unicode="&#xb2;" horiz-adv-x="398" 
d="M180 771q84 0 122 -43t38 -89q0 -44 -25 -82t-80 -84l-70 -58h176l12 -78h-322v72l142 118q34 28 48.5 54t14.5 58q0 18 -15.5 33.5t-46.5 15.5q-30 0 -61 -19.5t-32 -20.5l-38 74q16 12 50.5 30.5t86.5 18.5z" />
    <glyph glyph-name="threesuperior" unicode="&#xb3;" horiz-adv-x="421" 
d="M193 771q78 0 117 -39t39 -90q0 -36 -21 -64.5t-46 -38.5q27 -6 51.5 -37.5t24.5 -77.5q0 -61 -47.5 -103t-128.5 -42q-42 0 -84.5 14.5t-74.5 30.5l44 72q29 -18 51.5 -26.5t54.5 -8.5q36 0 58 17t22 45q0 37 -23.5 56.5t-73.5 19.5h-27l-11 78h43q50 0 67 20t17 44
q0 16 -14.5 31t-51.5 15q-35 0 -58.5 -12t-42.5 -26l-41 70q35 23 72.5 37.5t83.5 14.5z" />
    <glyph glyph-name="acute" unicode="&#xb4;" horiz-adv-x="209" 
d="M76 750h118l-92 -161h-86z" />
    <glyph glyph-name="mu" unicode="&#xb5;" horiz-adv-x="573" 
d="M412 50q-33 -31 -79.5 -49.5t-84.5 -18.5q-19 0 -34.5 2.5t-28.5 7.5v-201l-112 -10v704h112v-306q0 -46 22.5 -73.5t67.5 -27.5q27 0 58.5 14t57.5 35v358h114v-485h-62z" />
    <glyph glyph-name="paragraph" unicode="&#xb6;" horiz-adv-x="907" 
d="M344 0v243h-27q-107 0 -190 53.5t-83 168.5q0 116 76.5 165.5t185.5 49.5h569v-89h-95v-591h-114v591h-208v-591h-114z" />
    <glyph glyph-name="periodcentered" unicode="&#xb7;" horiz-adv-x="157" 
d="M79 328q28 0 47 -19t19 -47t-19 -47.5t-47 -19.5t-48 19.5t-20 47.5t20 47t48 19z" />
    <glyph glyph-name="cedilla" unicode="&#xb8;" horiz-adv-x="244" 
d="M93 13h83l-20 -48q31 -10 51.5 -35.5t20.5 -51.5q0 -51 -37.5 -75t-84.5 -24q-19 0 -46.5 7t-43.5 19l26 67q13 -6 32 -12t32 -6q14 0 27 4.5t13 17.5q0 16 -25 29.5t-64 17.5z" />
    <glyph glyph-name="onesuperior" unicode="&#xb9;" horiz-adv-x="372" 
d="M320 336h-248l-8 78h82v235l-44 -25l-40 71l60 34t59 34h67v-349h63z" />
    <glyph glyph-name="ordmasculine" unicode="&#xba;" horiz-adv-x="382" 
d="M186 363q-75 1 -117.5 46.5t-42.5 123.5t45 123.5t119 45.5q78 0 121.5 -46.5t43.5 -124.5q0 -77 -47 -122t-122 -46zM257 530q0 45 -16 68.5t-49 23.5q-28 0 -48 -21t-20 -68q0 -46 16.5 -68.5t47.5 -22.5t50 21t19 67z" />
    <glyph glyph-name="guillemotright" unicode="&#xbb;" horiz-adv-x="377" 
d="M33 407l154 -139v-47l-154 -138l-23 75l92 87l-92 87zM198 407l155 -139v-47l-155 -138l-23 75l93 87l-93 87z" />
    <glyph glyph-name="onequarter" unicode="&#xbc;" horiz-adv-x="880" 
d="M320 336h-248l-8 78h82v235l-44 -25l-40 71l60 34t59 34h67v-349h63zM614 498l-287 -502l-119 4l286 501zM839 -79h-78v-85h-102v85h-207l-4 34q-1 12 -3 24.5t-3 23.5l20 26q56 73 114.5 146t113.5 146h71v-318h87zM547 3h112v143z" />
    <glyph glyph-name="onehalf" unicode="&#xbd;" horiz-adv-x="921" 
d="M320 336h-248l-8 78h82v235l-44 -25l-40 71l60 34t59 34h67v-349h63zM492 501l120 -3q-72 -125 -144 -251t-144 -251l-119 4zM702 324q84 0 122 -43t38 -89q0 -58 -42 -103t-132 -120h175l12 -79h-322v73l142 118q33 28 48.5 54t15.5 57q0 17 -15.5 33.5t-46.5 16.5
t-62 -19.5t-32 -20.5l-38 74q16 11 50.5 29.5t86.5 18.5z" />
    <glyph glyph-name="threequarters" unicode="&#xbe;" horiz-adv-x="900" 
d="M635 498l-287 -502l-121 4l288 501zM192 771q79 0 118 -39t39 -90q0 -37 -21.5 -65t-46.5 -38q27 -6 51.5 -37.5t24.5 -77.5q0 -61 -47.5 -103.5t-127.5 -42.5q-42 0 -84.5 15t-74.5 31l44 71q28 -17 51 -25.5t54 -8.5q36 0 58.5 17t22.5 45q0 37 -23.5 56t-73.5 19h-27
q-2 20 -5.5 40t-5.5 39h43q53 0 68.5 21.5t15.5 42.5q0 13 -14.5 29.5t-51.5 16.5q-35 0 -59 -12t-43 -26l-40 70q34 22 71.5 37t83.5 15zM860 -79h-78v-85h-103v85h-206l-9 58q0 7 -1 12.5t-2 11.5l22 26l228 292h71v-318h87zM566 3h113v143q-28 -36 -56.5 -71.5
t-56.5 -71.5z" />
    <glyph glyph-name="questiondown" unicode="&#xbf;" horiz-adv-x="446" 
d="M268 519q-28 0 -47.5 20t-19.5 48q0 27 19.5 46.5t47.5 19.5t47.5 -19.5t19.5 -46.5q0 -28 -19.5 -48t-47.5 -20zM235 -48q-99 0 -147.5 49t-48.5 126q0 56 48 113t121 94l14 150l81 -33l8 -175q-73 -24 -120 -63t-47 -85q0 -40 26 -60.5t69 -20.5q37 0 81 15t91 49
l15 -102q-44 -28 -89 -42.5t-102 -14.5z" />
    <glyph glyph-name="Agrave" unicode="&#xc0;" horiz-adv-x="634" 
d="M211 900h119l60 -161h-86zM314 526l-99 -264h200zM365 680l263 -664l-113 -16l-65 171h-268l-64 -171h-112l260 680h99z" />
    <glyph glyph-name="Aacute" unicode="&#xc1;" horiz-adv-x="634" 
d="M302 900h118l-92 -161h-86zM314 526l-99 -264h200zM365 680l263 -664l-113 -16l-65 171h-268l-64 -171h-112l260 680h99z" />
    <glyph glyph-name="Acircumflex" unicode="&#xc2;" horiz-adv-x="634" 
d="M244 739h-107l140 161h68l141 -161h-105l-68 76zM314 526l-99 -264h200zM365 680l263 -664l-113 -16l-65 171h-268l-64 -171h-112l260 680h99z" />
    <glyph glyph-name="Atilde" unicode="&#xc3;" horiz-adv-x="634" 
d="M394 861h73q0 -63 -31 -88t-71 -25q-36 0 -58.5 19.5t-48.5 19.5q-12 0 -21 -11t-10 -23h-76q0 63 31 87.5t70 24.5q38 0 61.5 -19t51.5 -19q12 0 20.5 10.5t8.5 23.5zM415 262l-102 264q-25 -66 -49.5 -132t-49.5 -132h201zM365 680l263 -664q-28 -4 -56.5 -8t-56.5 -8
l-66 171h-267l-32 -86t-32 -85h-112q64 169 130 340t130 340h99z" />
    <glyph glyph-name="Adieresis" unicode="&#xc4;" horiz-adv-x="634" 
d="M222 875q25 0 41.5 -17.5t16.5 -41.5q0 -25 -16.5 -42t-41.5 -17t-42.5 17t-17.5 42q0 24 17.5 41.5t42.5 17.5zM404 875q25 0 42 -17.5t17 -41.5q0 -25 -17 -42t-42 -17q-24 0 -42 17t-18 42q0 24 18 41.5t42 17.5zM314 526l-99 -264h200zM365 680l263 -664l-113 -16
l-65 171h-268l-64 -171h-112l260 680h99z" />
    <glyph glyph-name="Aring" unicode="&#xc5;" horiz-adv-x="634" 
d="M313 934q41 0 71.5 -28t30.5 -68q0 -42 -30.5 -68t-71.5 -26q-42 0 -72.5 26t-30.5 68q0 40 30.5 68t72.5 28zM313 797q16 0 28 12.5t12 28.5t-12 28t-28 12q-17 0 -29 -12t-12 -28t12 -28.5t29 -12.5zM314 526l-99 -264h200zM365 680l263 -664l-113 -16l-65 171h-268
l-64 -171h-112l260 680h99z" />
    <glyph glyph-name="AE" unicode="&#xc6;" horiz-adv-x="935" 
d="M457 0v171h-235q-28 -43 -56.5 -86t-57.5 -85q-26 4 -53 8l-54 8l444 664h408l16 -88h-298v-203h185l18 -89h-203v-212h324l8 -44l8 -44h-454zM283 262h174v263z" />
    <glyph glyph-name="Ccedilla" unicode="&#xc7;" horiz-adv-x="595" 
d="M508 570q-41 13 -69.5 21t-74.5 8q-87 -1 -136 -71.5t-49 -189.5q0 -104 41 -180.5t135 -76.5q46 0 83 9t67 22l42 -84q-29 -15 -70 -25.5t-80 -14.5l-9 -23q31 -10 51.5 -35.5t20.5 -51.5q0 -51 -37.5 -75t-84.5 -24q-19 0 -46.5 7t-43.5 19l26 67q13 -6 32 -12t32 -6
q14 0 27 4.5t13 17.5q0 16 -24.5 29.5t-64.5 17.5l26 66q-134 15 -194 114.5t-60 233.5q0 154 78 255.5t227 101.5q31 0 84 -10t93 -32z" />
    <glyph glyph-name="Egrave" unicode="&#xc8;" horiz-adv-x="566" 
d="M188 900h119l60 -161h-86zM89 0v680h394l17 -88h-299v-203h187q4 -22 8.5 -44.5t8.5 -44.5h-204v-212h325q4 -22 8.5 -44t8.5 -44h-454z" />
    <glyph glyph-name="Eacute" unicode="&#xc9;" horiz-adv-x="566" 
d="M279 900h118l-92 -161h-86zM89 0v680h394l17 -88h-299v-203h187q4 -22 8.5 -44.5t8.5 -44.5h-204v-212h325q4 -22 8.5 -44t8.5 -44h-454z" />
    <glyph glyph-name="Ecircumflex" unicode="&#xca;" horiz-adv-x="566" 
d="M221 739h-107l140 161h68l141 -161h-105l-68 76zM89 0v680h394l17 -88h-299v-203h187q4 -22 8.5 -44.5t8.5 -44.5h-204v-212h325q4 -22 8.5 -44t8.5 -44h-454z" />
    <glyph glyph-name="Edieresis" unicode="&#xcb;" horiz-adv-x="566" 
d="M381 875q25 0 42 -17.5t17 -42.5t-17 -42t-42 -17q-24 0 -42 17t-18 42t18 42.5t42 17.5zM199 875q25 0 41.5 -17.5t16.5 -42.5t-16.5 -42t-41.5 -17t-42.5 17t-17.5 42t17.5 42.5t42.5 17.5zM89 0v680h394l17 -88h-299v-203h187q4 -22 8.5 -44.5t8.5 -44.5h-204v-212
h325q4 -22 8.5 -44t8.5 -44h-454z" />
    <glyph glyph-name="Igrave" unicode="&#xcc;" horiz-adv-x="291" 
d="M43 900h118l61 -161h-86zM89 0v680h112v-680h-112z" />
    <glyph glyph-name="Iacute" unicode="&#xcd;" horiz-adv-x="291" 
d="M134 900h118q-23 -40 -46 -80.5t-47 -80.5h-85zM89 0v680h112v-680h-112z" />
    <glyph glyph-name="Icircumflex" unicode="&#xce;" horiz-adv-x="291" 
d="M76 739h-107q34 40 69.5 80.5t70.5 80.5h68l140 -161h-104q-17 19 -34.5 38t-33.5 38q-17 -19 -35 -38t-34 -38zM89 0v680h112v-680h-112z" />
    <glyph glyph-name="Idieresis" unicode="&#xcf;" horiz-adv-x="291" 
d="M236 875q25 0 42 -17.5t17 -42.5t-17 -42t-42 -17t-42.5 17t-17.5 42t17.5 42.5t42.5 17.5zM54 875q25 0 41.5 -17.5t16.5 -42.5t-16.5 -42t-41.5 -17t-42.5 17t-17.5 42t17.5 42.5t42.5 17.5zM89 0v680h112v-680h-112z" />
    <glyph glyph-name="Eth" unicode="&#xd0;" horiz-adv-x="707" 
d="M95 0v295h-66l-11 88h77v297h242q158 0 233 -95.5t75 -240.5q0 -154 -80.5 -248.5t-229.5 -95.5h-240zM290 295h-81v-201h125q88 0 141.5 60.5t53.5 188.5q0 110 -45.5 175.5t-142.5 65.5h-132v-201h72z" />
    <glyph glyph-name="Ntilde" unicode="&#xd1;" horiz-adv-x="732" 
d="M457 861h72q0 -63 -30.5 -88t-70.5 -25q-36 0 -58.5 19.5t-49.5 19.5q-12 0 -21 -11t-9 -23h-76q0 63 30.5 87.5t70.5 24.5q38 0 61.5 -19t50.5 -19q12 0 20.5 10.5t9.5 23.5zM89 0v680h107l278 -396q14 -20 28 -41l28 -42v479h113v-680h-108l-283 405l-51 76v-481h-112z
" />
    <glyph glyph-name="Ograve" unicode="&#xd2;" horiz-adv-x="740" 
d="M269 900h118l60 -161h-86zM61 337q0 155 80.5 255.5t228.5 103.5q159 0 234 -103.5t75 -248.5q0 -154 -80.5 -254.5t-229.5 -103.5q-158 0 -233 103.5t-75 247.5zM179 338q0 -110 45.5 -183.5t142.5 -73.5q89 0 141.5 67.5t52.5 195.5q0 110 -45.5 182.5t-143.5 72.5
q-87 0 -140 -71t-53 -190z" />
    <glyph glyph-name="Oacute" unicode="&#xd3;" horiz-adv-x="740" 
d="M359 900h119l-93 -161h-86zM61 337q0 155 80.5 255.5t228.5 103.5q159 0 234 -103.5t75 -248.5q0 -154 -80.5 -254.5t-229.5 -103.5q-158 0 -233 103.5t-75 247.5zM179 338q0 -110 45.5 -183.5t142.5 -73.5q89 0 141.5 67.5t52.5 195.5q0 110 -45.5 182.5t-143.5 72.5
q-87 0 -140 -71t-53 -190z" />
    <glyph glyph-name="Ocircumflex" unicode="&#xd4;" horiz-adv-x="740" 
d="M301 739h-107l140 161h68l141 -161h-105l-68 76zM61 337q0 155 80.5 255.5t228.5 103.5q159 0 234 -103.5t75 -248.5q0 -154 -80.5 -254.5t-229.5 -103.5q-158 0 -233 103.5t-75 247.5zM179 338q0 -110 45.5 -183.5t142.5 -73.5q89 0 141.5 67.5t52.5 195.5
q0 110 -45.5 182.5t-143.5 72.5q-87 0 -140 -71t-53 -190z" />
    <glyph glyph-name="Otilde" unicode="&#xd5;" horiz-adv-x="740" 
d="M452 861h72q0 -63 -31 -88t-70 -25q-37 0 -59 19.5t-49 19.5q-12 0 -21 -11t-10 -23h-75q0 63 30.5 87.5t70.5 24.5q37 0 60.5 -19t51.5 -19q12 0 20.5 10.5t9.5 23.5zM370 696q159 0 234 -104t75 -248q0 -154 -81 -254.5t-230 -103.5q-158 0 -232.5 103t-74.5 248
q0 155 80 255.5t229 103.5zM178 338q0 -110 46 -183.5t143 -73.5q89 0 141 67.5t52 195.5q0 110 -45.5 182.5t-142.5 72.5q-87 0 -140.5 -71.5t-53.5 -189.5z" />
    <glyph glyph-name="Odieresis" unicode="&#xd6;" horiz-adv-x="740" 
d="M279 875q25 0 42 -17.5t17 -41.5q0 -25 -17 -42t-42 -17t-42.5 17t-17.5 42q0 24 17.5 41.5t42.5 17.5zM461 875q25 0 42.5 -17.5t17.5 -41.5q0 -25 -17.5 -42t-42.5 -17q-24 0 -41.5 17t-17.5 42q0 24 17.5 41.5t41.5 17.5zM61 337q0 155 80.5 255.5t228.5 103.5
q159 0 234 -103.5t75 -248.5q0 -154 -80.5 -254.5t-229.5 -103.5q-158 0 -233 103.5t-75 247.5zM179 338q0 -110 45.5 -183.5t142.5 -73.5q89 0 141.5 67.5t52.5 195.5q0 110 -45.5 182.5t-143.5 72.5q-87 0 -140 -71t-53 -190z" />
    <glyph glyph-name="multiply" unicode="&#xd7;" horiz-adv-x="530" 
d="M21 44l174 212l-167 208l106 16l128 -159q32 40 65.5 79t65.5 79h116l-190 -231q16 -22 33.5 -44t35.5 -44l105 -131h-115q-31 38 -62.5 77t-62.5 76q-32 -40 -64.5 -79t-64.5 -77z" />
    <glyph glyph-name="Oslash" unicode="&#xd8;" horiz-adv-x="740" 
d="M61 337q0 155 80.5 255.5t228.5 103.5q159 0 234 -103.5t75 -248.5q0 -154 -80.5 -254.5t-229.5 -103.5q-158 0 -233 103.5t-75 247.5zM372 599q-87 0 -140 -71t-53 -190q0 -58 13 -107.5t39 -83.5l188 446q-11 3 -22.5 4.5t-24.5 1.5zM323 88q10 -3 21 -5t23 -2
q89 0 141.5 67.5t52.5 195.5q0 56 -12.5 103.5t-37.5 81.5z" />
    <glyph glyph-name="Ugrave" unicode="&#xd9;" horiz-adv-x="706" 
d="M258 900h118l61 -161h-86zM195 254q0 -85 43.5 -129t113.5 -44q72 0 114.5 45t42.5 128v426h114v-435q0 -110 -73 -183t-198 -73t-197.5 73t-72.5 183v435h113v-426z" />
    <glyph glyph-name="Uacute" unicode="&#xda;" horiz-adv-x="706" 
d="M327 900h118l-92 -161h-86zM195 254q0 -85 43.5 -129t113.5 -44q72 0 114.5 45t42.5 128v426h114v-435q0 -110 -73 -183t-198 -73t-197.5 73t-72.5 183v435h113v-426z" />
    <glyph glyph-name="Ucircumflex" unicode="&#xdb;" horiz-adv-x="706" 
d="M285 739h-107l140 161h69l140 -161h-105l-68 76q-16 -19 -34 -38t-35 -38zM195 254q0 -85 43.5 -129t113.5 -44q72 0 114.5 45t42.5 128v426h114v-435q0 -110 -73 -183t-198 -73t-197.5 73t-72.5 183v435h113v-426z" />
    <glyph glyph-name="Udieresis" unicode="&#xdc;" horiz-adv-x="706" 
d="M444 875q25 0 42 -17.5t17 -42.5t-17 -42t-42 -17q-24 0 -42 17t-18 42t18 42.5t42 17.5zM262 875q25 0 41.5 -17.5t16.5 -42.5t-16.5 -42t-41.5 -17t-42.5 17t-17.5 42t17.5 42.5t42.5 17.5zM195 254q0 -85 43.5 -129t113.5 -44q72 0 114.5 45t42.5 128v426h114v-435
q0 -110 -73 -183t-198 -73t-197.5 73t-72.5 183v435h113v-426z" />
    <glyph glyph-name="Yacute" unicode="&#xdd;" horiz-adv-x="590" 
d="M269 900h119l-93 -161h-86zM235 0l1 268l-230 396l117 16l168 -299l175 299h119l-236 -414v-266h-114z" />
    <glyph glyph-name="Thorn" unicode="&#xde;" horiz-adv-x="602" 
d="M89 0v680h112v-114h92q110 0 186.5 -49t76.5 -165t-83.5 -169.5t-189.5 -53.5h-82v-129h-112zM290 473h-89v-250h88q63 0 103.5 29.5t44.5 93.5q0 71 -39 99t-108 28z" />
    <glyph glyph-name="germandbls" unicode="&#xdf;" horiz-adv-x="624" 
d="M73 473q0 102 61 162.5t168 60.5q98 0 166 -47.5t68 -141.5q0 -44 -23 -83t-59 -56q49 -14 88 -61.5t39 -113.5q0 -94 -68.5 -143.5t-176.5 -49.5h-87v93h81q54 0 93.5 26.5t39.5 76.5q0 51 -36.5 80.5t-87.5 29.5h-82v91h33q63 0 95.5 28.5t32.5 74.5q0 48 -33 73.5
t-79 25.5q-54 0 -87.5 -34.5t-33.5 -93.5v-471h-112v473z" />
    <glyph glyph-name="agrave" unicode="&#xe0;" horiz-adv-x="512" 
d="M143 750h119l60 -161h-86zM147 142q0 -24 19 -44.5t53 -20.5q31 0 61.5 15.5t55.5 40.5v86h-108q-40 0 -60.5 -23t-20.5 -54zM76 454q28 19 83 31.5t86 12.5q86 0 145 -49t59 -125v-324h-61q-7 10 -14 21.5t-14 21.5q-26 -22 -64 -38.5t-75 -16.5q-87 0 -129.5 43
t-42.5 111q0 74 50 113.5t131 39.5h105q-3 43 -22 71.5t-66 28.5q-38 0 -75.5 -10t-64.5 -23l-16 46t-15 46z" />
    <glyph glyph-name="aacute" unicode="&#xe1;" horiz-adv-x="512" 
d="M235 750h118l-93 -161h-86zM147 142q0 -24 19 -44.5t53 -20.5q31 0 61.5 15.5t55.5 40.5v86h-108q-40 0 -60.5 -23t-20.5 -54zM76 454q28 19 83 31.5t86 12.5q86 0 145 -49t59 -125v-324h-61q-7 10 -14 21.5t-14 21.5q-26 -22 -64 -38.5t-75 -16.5q-87 0 -129.5 43
t-42.5 111q0 74 50 113.5t131 39.5h105q-3 43 -22 71.5t-66 28.5q-38 0 -75.5 -10t-64.5 -23l-16 46t-15 46z" />
    <glyph glyph-name="acircumflex" unicode="&#xe2;" horiz-adv-x="512" 
d="M191 589h-108l142 161h66l141 -161h-104l-68 76q-17 -19 -35 -38t-34 -38zM147 142q0 -24 19 -44.5t53 -20.5q31 0 61.5 15.5t55.5 40.5v86h-108q-40 0 -60.5 -23t-20.5 -54zM76 454q28 19 83 31.5t86 12.5q86 0 145 -49t59 -125v-324h-61q-7 10 -14 21.5t-14 21.5
q-26 -22 -64 -38.5t-75 -16.5q-87 0 -129.5 43t-42.5 111q0 74 50 113.5t131 39.5h105q-3 43 -22 71.5t-66 28.5q-38 0 -75.5 -10t-64.5 -23l-16 46t-15 46z" />
    <glyph glyph-name="atilde" unicode="&#xe3;" horiz-adv-x="512" 
d="M335 711h72q0 -63 -31 -88t-71 -25q-37 0 -58.5 19.5t-49.5 19.5q-12 0 -21 -11t-9 -23h-77q0 63 31.5 87.5t71.5 24.5q38 0 61 -19t50 -19q11 0 20.5 10.5t10.5 23.5zM147 142q0 -24 19 -44.5t53 -20.5q31 0 61.5 15.5t55.5 40.5v86h-108q-40 0 -60.5 -23t-20.5 -54z
M76 454q28 19 83 31.5t86 12.5q86 0 145 -49t59 -125v-324h-61q-7 10 -14 21.5t-14 21.5q-26 -22 -64 -38.5t-75 -16.5q-87 0 -129.5 43t-42.5 111q0 74 50 113.5t131 39.5h105q-3 43 -22 71.5t-66 28.5q-38 0 -75.5 -10t-64.5 -23l-16 46t-15 46z" />
    <glyph glyph-name="adieresis" unicode="&#xe4;" horiz-adv-x="512" 
d="M347 725q25 0 42 -17.5t17 -42.5t-17 -42t-42 -17q-24 0 -42 17t-18 42t18 42.5t42 17.5zM165 725q25 0 42 -17.5t17 -42.5t-17 -42t-42 -17t-43 17t-18 42t18 42.5t43 17.5zM147 142q0 -24 19 -44.5t53 -20.5q31 0 61.5 15.5t55.5 40.5v86h-108q-40 0 -60.5 -23
t-20.5 -54zM76 454q28 19 83 31.5t86 12.5q86 0 145 -49t59 -125v-324h-61q-7 10 -14 21.5t-14 21.5q-26 -22 -64 -38.5t-75 -16.5q-87 0 -129.5 43t-42.5 111q0 74 50 113.5t131 39.5h105q-3 43 -22 71.5t-66 28.5q-38 0 -75.5 -10t-64.5 -23l-16 46t-15 46z" />
    <glyph glyph-name="aring" unicode="&#xe5;" horiz-adv-x="512" 
d="M254 784q41 0 72 -28t31 -69t-31 -67t-72 -26t-72 26t-31 67t31 69t72 28zM254 647q17 0 28.5 12t11.5 28q0 17 -11.5 29t-28.5 12q-16 0 -28 -12t-12 -29q0 -16 12 -28t28 -12zM147 142q0 -24 19 -44.5t53 -20.5q31 0 61.5 15.5t55.5 40.5v86h-108q-40 0 -60.5 -23
t-20.5 -54zM76 454q28 19 83 31.5t86 12.5q86 0 145 -49t59 -125v-324h-61q-7 10 -14 21.5t-14 21.5q-26 -22 -64 -38.5t-75 -16.5q-87 0 -129.5 43t-42.5 111q0 74 50 113.5t131 39.5h105q-3 43 -22 71.5t-66 28.5q-38 0 -75.5 -10t-64.5 -23l-16 46t-15 46z" />
    <glyph glyph-name="ae" unicode="&#xe6;" horiz-adv-x="828" 
d="M788 212h-336q7 -57 43 -93t102 -36q39 0 66.5 9t60.5 24q8 -20 16.5 -41t17.5 -41q-33 -24 -82.5 -35t-80.5 -11q-69 0 -120.5 22t-84.5 62q-25 -31 -72 -57.5t-96 -26.5q-89 0 -131 41.5t-42 109.5q0 74 50 111.5t131 37.5h106v14q0 42 -23 67.5t-66 25.5
q-38 0 -75.5 -10t-64.5 -23l-16 46t-15 46q28 19 83 31.5t86 12.5q49 0 89.5 -18t67.5 -49q30 31 73 49t95 18q127 0 172.5 -86t45.5 -200zM679 288q-8 54 -36.5 83.5t-74.5 29.5q-47 0 -76.5 -30t-38.5 -83h226zM147 139q0 -24 19 -43t53 -19q35 0 69 18.5t59 50.5
q-4 15 -7.5 31.5t-5.5 34.5h-106q-40 0 -60.5 -21t-20.5 -52z" />
    <glyph glyph-name="ccedilla" unicode="&#xe7;" horiz-adv-x="480" 
d="M287 402q-61 0 -93.5 -45.5t-32.5 -113.5q0 -69 31.5 -114t93.5 -45q39 0 65.5 8.5t59.5 24.5l32 -82q-24 -17 -56.5 -28t-61.5 -16l-10 -26q30 -10 50.5 -35.5t20.5 -51.5q0 -51 -37 -75t-84 -24q-20 0 -48 7t-43 19l27 67q12 -6 31.5 -12t32.5 -6t25.5 4.5t12.5 17.5
q0 16 -24 29.5t-63 17.5l26 68q-96 12 -147 80t-51 172q1 114 64.5 184.5t178.5 70.5q30 0 77 -12.5t81 -36.5l-33 -81q-33 15 -59.5 24.5t-65.5 9.5z" />
    <glyph glyph-name="egrave" unicode="&#xe8;" horiz-adv-x="539" 
d="M178 750h118l61 -161h-86zM499 212h-336q7 -57 43 -93t102 -36q38 0 66 9t60 24q9 -20 17.5 -41t16.5 -41q-33 -24 -82 -35t-80 -11q-124 0 -193 69.5t-69 184.5t64 185.5t174 70.5q125 0 171 -86.5t46 -199.5zM391 288q-10 54 -37.5 83.5t-74.5 29.5q-48 0 -77.5 -30
t-36.5 -83h226z" />
    <glyph glyph-name="eacute" unicode="&#xe9;" horiz-adv-x="539" 
d="M269 750h119l-94 -161h-85zM499 212h-336q7 -57 43 -93t102 -36q38 0 66 9t60 24q9 -20 17.5 -41t16.5 -41q-33 -24 -82 -35t-80 -11q-124 0 -193 69.5t-69 184.5t64 185.5t174 70.5q125 0 171 -86.5t46 -199.5zM391 288q-10 54 -37.5 83.5t-74.5 29.5q-48 0 -77.5 -30
t-36.5 -83h226z" />
    <glyph glyph-name="ecircumflex" unicode="&#xea;" horiz-adv-x="539" 
d="M217 589h-107l141 161h67l141 -161h-104l-69 76q-16 -19 -34 -38t-35 -38zM499 212h-336q7 -57 43 -93t102 -36q38 0 66 9t60 24q9 -20 17.5 -41t16.5 -41q-33 -24 -82 -35t-80 -11q-124 0 -193 69.5t-69 184.5t64 185.5t174 70.5q125 0 171 -86.5t46 -199.5zM391 288
q-10 54 -37.5 83.5t-74.5 29.5q-48 0 -77.5 -30t-36.5 -83h226z" />
    <glyph glyph-name="edieresis" unicode="&#xeb;" horiz-adv-x="539" 
d="M372 725q25 0 42 -17.5t17 -42.5t-17 -42t-42 -17t-42.5 17t-17.5 42t17.5 42.5t42.5 17.5zM189 725q25 0 42.5 -17.5t17.5 -42.5t-17.5 -42t-42.5 -17t-42.5 17t-17.5 42t17.5 42.5t42.5 17.5zM499 212h-336q7 -57 43 -93t102 -36q38 0 66 9t60 24q9 -20 17.5 -41
t16.5 -41q-33 -24 -82 -35t-80 -11q-124 0 -193 69.5t-69 184.5t64 185.5t174 70.5q125 0 171 -86.5t46 -199.5zM391 288q-10 54 -37.5 83.5t-74.5 29.5q-48 0 -77.5 -30t-36.5 -83h226z" />
    <glyph glyph-name="igrave" unicode="&#xec;" horiz-adv-x="250" 
d="M3 750h119l58 -161h-85zM67 0v485h114v-485h-114z" />
    <glyph glyph-name="iacute" unicode="&#xed;" horiz-adv-x="250" 
d="M128 750h119l-93 -161h-86zM67 0v485h114v-485h-114z" />
    <glyph glyph-name="icircumflex" unicode="&#xee;" horiz-adv-x="250" 
d="M58 589h-107l140 161h67l142 -161h-105l-68 76zM67 0v485h114v-485h-114z" />
    <glyph glyph-name="idieresis" unicode="&#xef;" horiz-adv-x="250" 
d="M216 725q25 0 42 -17.5t17 -42.5t-17 -42t-42 -17t-42.5 17t-17.5 42t17.5 42.5t42.5 17.5zM34 725q25 0 42 -17.5t17 -42.5t-17 -42t-42 -17t-42 17t-17 42t17 42.5t42 17.5zM67 0v485h114v-485h-114z" />
    <glyph glyph-name="eth" unicode="&#xf0;" horiz-adv-x="554" 
d="M402 624l-46 -38q61 -60 101.5 -142t40.5 -181q0 -136 -70.5 -205.5t-178.5 -69.5q-95 0 -154 64.5t-59 147.5q0 81 59.5 141.5t157.5 60.5q34 0 68 -14.5t60 -33.5q-13 50 -40 94t-62 78l-106 -85l-45 78l76 62q-25 15 -51.5 26t-52.5 17l50 75q34 -7 67.5 -22t66.5 -35
l74 60zM140 195q0 -44 30.5 -79.5t81.5 -35.5q65 0 99.5 42t41.5 109q-15 33 -52 61t-88 28q-53 0 -83 -39t-30 -86z" />
    <glyph glyph-name="ntilde" unicode="&#xf1;" horiz-adv-x="573" 
d="M390 711h71q0 -63 -30.5 -88t-71.5 -25q-36 0 -57.5 19.5t-49.5 19.5q-13 0 -21.5 -11t-8.5 -23h-78q0 63 31.5 87.5t71.5 24.5q37 0 60.5 -19t51.5 -19q11 0 20.5 10.5t10.5 23.5zM67 0v485h61l35 -58q32 34 81.5 54.5t89.5 20.5q93 0 134.5 -54.5t41.5 -135.5v-312
h-113v304q0 47 -23 74.5t-67 27.5q-29 0 -64.5 -17t-62.5 -42v-347h-113z" />
    <glyph glyph-name="ograve" unicode="&#xf2;" horiz-adv-x="574" 
d="M185 750h119l59 -161h-86zM279 -12q-113 1 -174 70.5t-61 185.5q1 114 65 183.5t178 70.5q117 0 180 -72t63 -187q-1 -114 -69 -182.5t-182 -68.5zM414 239q0 73 -30.5 117.5t-93.5 44.5t-96 -40.5t-33 -115.5q0 -76 28 -118.5t91 -42.5t98 39t36 116z" />
    <glyph glyph-name="oacute" unicode="&#xf3;" horiz-adv-x="574" 
d="M276 750h118l-92 -161h-86zM279 -12q-113 1 -174 70.5t-61 185.5q1 114 65 183.5t178 70.5q117 0 180 -72t63 -187q-1 -114 -69 -182.5t-182 -68.5zM414 239q0 73 -30.5 117.5t-93.5 44.5t-96 -40.5t-33 -115.5q0 -76 28 -118.5t91 -42.5t98 39t36 116z" />
    <glyph glyph-name="ocircumflex" unicode="&#xf4;" horiz-adv-x="574" 
d="M218 589h-107l141 161h66l142 -161h-105l-68 76zM279 -12q-113 1 -174 70.5t-61 185.5q1 114 65 183.5t178 70.5q117 0 180 -72t63 -187q-1 -114 -69 -182.5t-182 -68.5zM414 239q0 73 -30.5 117.5t-93.5 44.5t-96 -40.5t-33 -115.5q0 -76 28 -118.5t91 -42.5t98 39
t36 116z" />
    <glyph glyph-name="otilde" unicode="&#xf5;" horiz-adv-x="574" 
d="M368 711h73q0 -63 -31 -88t-71 -25q-36 0 -58 19.5t-50 19.5q-12 0 -20.5 -11t-8.5 -23h-78q0 63 31.5 87.5t70.5 24.5q38 0 61.5 -19t50.5 -19q12 0 21 10t9 24zM278 -12q-112 0 -173 70.5t-61 185.5q1 113 65 183.5t178 70.5q117 0 179.5 -72t62.5 -187
q0 -113 -68 -182t-183 -69zM414 239q0 73 -31 117.5t-93 44.5t-96 -40.5t-34 -115.5q0 -77 28.5 -119t91.5 -42q61 0 97.5 39t36.5 116z" />
    <glyph glyph-name="odieresis" unicode="&#xf6;" horiz-adv-x="574" 
d="M196 725q25 0 41.5 -17.5t16.5 -41.5q0 -25 -16.5 -42t-41.5 -17t-42 17t-17 42q0 24 17 41.5t42 17.5zM378 725q25 0 42.5 -17.5t17.5 -41.5q0 -25 -17.5 -42t-42.5 -17q-24 0 -42 17t-18 42q0 24 18 41.5t42 17.5zM279 -12q-113 1 -174 70.5t-61 185.5q1 114 65 183.5
t178 70.5q117 0 180 -72t63 -187q-1 -114 -69 -182.5t-182 -68.5zM414 239q0 73 -30.5 117.5t-93.5 44.5t-96 -40.5t-33 -115.5q0 -76 28 -118.5t91 -42.5t98 39t36 116z" />
    <glyph glyph-name="divide" unicode="&#xf7;" horiz-adv-x="481" 
d="M239 360q-31 0 -51.5 21.5t-20.5 49.5q0 31 20.5 51.5t51.5 20.5q30 0 51 -20.5t21 -51.5q0 -28 -21 -49.5t-51 -21.5zM463 229h-437l-9 89h436zM239 32q-30 0 -50.5 21.5t-20.5 50.5q0 31 20.5 52t50.5 21t51.5 -21t21.5 -52q0 -29 -21.5 -50.5t-51.5 -21.5z" />
    <glyph glyph-name="oslash" unicode="&#xf8;" horiz-adv-x="574" 
d="M279 -12q-113 1 -174 70.5t-61 185.5q1 114 65 183.5t178 70.5q117 0 180 -72t63 -187q-1 -114 -69 -182.5t-182 -68.5zM314 397q-3 2 -11 3t-13 1q-63 0 -96 -40.5t-33 -115.5q0 -28 4 -52t13 -43zM280 84q63 0 98 39t36 116q0 26 -5 50t-13 42l-136 -245q4 -1 9.5 -1.5
t10.5 -0.5z" />
    <glyph glyph-name="ugrave" unicode="&#xf9;" horiz-adv-x="564" 
d="M166 750h118l60 -161h-85zM402 50q-33 -31 -79 -49.5t-85 -18.5q-94 0 -135 55t-41 135v313h114v-306q0 -46 22.5 -73.5t67.5 -27.5q26 0 58 14t59 35v358h113v-485h-62z" />
    <glyph glyph-name="uacute" unicode="&#xfa;" horiz-adv-x="564" 
d="M273 750h118l-93 -161h-85zM402 50q-33 -31 -79 -49.5t-85 -18.5q-94 0 -135 55t-41 135v313h114v-306q0 -46 22.5 -73.5t67.5 -27.5q26 0 58 14t59 35v358h113v-485h-62z" />
    <glyph glyph-name="ucircumflex" unicode="&#xfb;" horiz-adv-x="564" 
d="M216 589h-109l142 161h67l141 -161h-104l-69 76zM402 50q-33 -31 -79 -49.5t-85 -18.5q-94 0 -135 55t-41 135v313h114v-306q0 -46 22.5 -73.5t67.5 -27.5q26 0 58 14t59 35v358h113v-485h-62z" />
    <glyph glyph-name="udieresis" unicode="&#xfc;" horiz-adv-x="564" 
d="M193 725q25 0 41.5 -17.5t16.5 -41.5q0 -25 -16.5 -42t-41.5 -17t-43 17t-18 42q0 24 18 41.5t43 17.5zM375 725q25 0 42 -17.5t17 -41.5q0 -25 -17 -42t-42 -17q-24 0 -41.5 17t-17.5 42q0 24 17.5 41.5t41.5 17.5zM402 50q-33 -31 -79 -49.5t-85 -18.5q-94 0 -135 55
t-41 135v313h114v-306q0 -46 22.5 -73.5t67.5 -27.5q26 0 58 14t59 35v358h113v-485h-62z" />
    <glyph glyph-name="yacute" unicode="&#xfd;" horiz-adv-x="492" 
d="M238 750h119l-93 -161h-86zM162 -42l25 66l-177 445l115 16l124 -321l117 321h117l-176 -456l-40 -105q-21 -54 -73 -93t-112 -52l-39 90q36 16 71 35.5t48 53.5z" />
    <glyph glyph-name="thorn" unicode="&#xfe;" horiz-adv-x="571" 
d="M185 119q22 -16 48 -25.5t49 -9.5q71 0 99.5 50.5t28.5 109.5q0 66 -26.5 114t-101.5 48q-23 0 -49 -10t-48 -26v-251zM72 -219v914l113 11v-243q29 18 62 28.5t61 10.5q107 0 162.5 -73.5t55.5 -183.5t-56.5 -183.5t-161.5 -73.5q-28 0 -61 10t-62 28v-234z" />
    <glyph glyph-name="ydieresis" unicode="&#xff;" horiz-adv-x="492" 
d="M342 725q25 0 41.5 -17.5t16.5 -41.5q0 -25 -16.5 -42t-41.5 -17t-43 17t-18 42q0 24 18 41.5t43 17.5zM158 725q25 0 42 -17.5t17 -41.5q0 -25 -17 -42t-42 -17t-42.5 17t-17.5 42q0 24 17.5 41.5t42.5 17.5zM162 -42l25 66l-177 445l115 16l124 -321l117 321h117
l-176 -456l-40 -105q-21 -54 -73 -93t-112 -52l-39 90q36 16 71 35.5t48 53.5z" />
    <glyph glyph-name="Amacron" unicode="&#x100;" horiz-adv-x="634" 
d="M182 859h257v-89h-257v89zM314 526l-99 -264h200zM365 680l263 -664l-113 -16l-65 171h-268l-64 -171h-112l260 680h99z" />
    <glyph glyph-name="amacron" unicode="&#x101;" horiz-adv-x="512" 
d="M129 709h257v-90h-257v90zM147 142q0 -24 19 -44.5t53 -20.5q31 0 61.5 15.5t55.5 40.5v86h-108q-40 0 -60.5 -23t-20.5 -54zM76 454q28 19 83 31.5t86 12.5q86 0 145 -49t59 -125v-324h-61q-7 10 -14 21.5t-14 21.5q-26 -22 -64 -38.5t-75 -16.5q-87 0 -129.5 43
t-42.5 111q0 74 50 113.5t131 39.5h105q-3 43 -22 71.5t-66 28.5q-38 0 -75.5 -10t-64.5 -23l-16 46t-15 46z" />
    <glyph glyph-name="Abreve" unicode="&#x102;" horiz-adv-x="634" 
d="M456 897q0 -60 -34 -107t-108 -48q-74 1 -108.5 48t-34.5 107h78q0 -26 15 -49.5t50 -23.5q34 0 49.5 23.5t15.5 49.5h77zM314 526l-99 -264h200zM365 680l263 -664l-113 -16l-65 171h-268l-64 -171h-112l260 680h99z" />
    <glyph glyph-name="abreve" unicode="&#x103;" horiz-adv-x="512" 
d="M396 747q0 -60 -34.5 -107t-107.5 -48q-75 1 -109.5 48t-34.5 107h79q0 -26 14.5 -50t50.5 -24q34 0 49 24t15 50h78zM147 142q0 -24 19 -44.5t53 -20.5q31 0 61.5 15.5t55.5 40.5v86h-108q-40 0 -60.5 -23t-20.5 -54zM76 454q28 19 83 31.5t86 12.5q86 0 145 -49
t59 -125v-324h-61q-7 10 -14 21.5t-14 21.5q-26 -22 -64 -38.5t-75 -16.5q-87 0 -129.5 43t-42.5 111q0 74 50 113.5t131 39.5h105q-3 43 -22 71.5t-66 28.5q-38 0 -75.5 -10t-64.5 -23l-16 46t-15 46z" />
    <glyph glyph-name="Aogonek" unicode="&#x104;" horiz-adv-x="634" 
d="M365 680l263 -664q-16 -14 -39 -48.5t-23 -56.5q0 -16 9.5 -25t26.5 -9q9 0 21.5 4.5t23.5 13.5l33 -69q-21 -17 -44.5 -25t-51.5 -8q-51 0 -82 31.5t-31 77.5q0 24 13 55t29 47q-16 42 -32 83.5t-32 83.5h-267l-32 -86t-32 -85h-112q64 169 130 340t130 340h99zM415 262
l-102 264q-25 -66 -49.5 -132t-49.5 -132h201z" />
    <glyph glyph-name="aogonek" unicode="&#x105;" horiz-adv-x="512" 
d="M76 454q28 19 83 31.5t86 12.5q86 0 145 -49t59 -125v-324q-16 -15 -31 -40t-15 -49q0 -16 9 -25t27 -9q8 0 20.5 4.5t23.5 13.5l34 -69q-21 -17 -45.5 -25t-52.5 -8q-49 0 -81 31.5t-32 77.5q0 39 19.5 72t42.5 53l-8 16q-26 -22 -64 -38.5t-75 -16.5q-87 0 -129.5 43
t-42.5 111q0 74 50 113.5t131 39.5h105q-3 43 -22 71.5t-66 28.5q-38 0 -75.5 -10t-64.5 -23l-16 46t-15 46zM147 142q0 -24 19 -44.5t53 -20.5q31 0 61.5 15.5t55.5 40.5v86h-108q-40 0 -60.5 -23t-20.5 -54z" />
    <glyph glyph-name="Cacute" unicode="&#x106;" horiz-adv-x="595" 
d="M355 900h118l-93 -161h-85zM508 570q-41 13 -69.5 21t-74.5 8q-87 -1 -136 -71.5t-49 -189.5q0 -104 41 -180.5t135 -76.5q46 0 83 9t67 22l42 -84q-36 -19 -90 -30.5t-96 -11.5q-158 0 -229 102.5t-71 248.5q0 154 78 255.5t227 101.5q31 0 84 -10t93 -32z" />
    <glyph glyph-name="cacute" unicode="&#x107;" horiz-adv-x="480" 
d="M275 750h118l-93 -161h-85zM287 402q-61 0 -93.5 -45.5t-32.5 -113.5q0 -69 31.5 -114t93.5 -45q39 0 65.5 8.5t59.5 24.5l32 -82q-32 -24 -79.5 -35.5t-78.5 -11.5q-115 0 -178 70t-63 185q1 114 64.5 184.5t178.5 70.5q30 0 77 -12.5t81 -36.5l-33 -81
q-33 15 -59.5 24.5t-65.5 9.5z" />
    <glyph glyph-name="Ccaron" unicode="&#x10c;" horiz-adv-x="595" 
d="M189 900h107l69 -76l68 76h105l-141 -161h-68zM508 570q-41 13 -69.5 21t-74.5 8q-87 -1 -136 -71.5t-49 -189.5q0 -104 41 -180.5t135 -76.5q46 0 83 9t67 22l42 -84q-36 -19 -90 -30.5t-96 -11.5q-158 0 -229 102.5t-71 248.5q0 154 78 255.5t227 101.5q31 0 84 -10
t93 -32z" />
    <glyph glyph-name="ccaron" unicode="&#x10d;" horiz-adv-x="480" 
d="M109 750h107l69 -76l69 76h104l-141 -161h-67zM287 402q-61 0 -93.5 -45.5t-32.5 -113.5q0 -69 31.5 -114t93.5 -45q39 0 65.5 8.5t59.5 24.5l32 -82q-32 -24 -79.5 -35.5t-78.5 -11.5q-115 0 -178 70t-63 185q1 114 64.5 184.5t178.5 70.5q30 0 77 -12.5t81 -36.5
l-33 -81q-33 15 -59.5 24.5t-65.5 9.5z" />
    <glyph glyph-name="Dcaron" unicode="&#x10e;" horiz-adv-x="700" 
d="M140 900h107l69 -76l68 76h105l-141 -162h-68zM89 0v680h241q159 0 233.5 -95.5t74.5 -240.5q0 -154 -80.5 -248.5t-229.5 -95.5h-239zM335 584h-134v-490h126q88 0 142 60.5t54 188.5q0 110 -45.5 175.5t-142.5 65.5z" />
    <glyph glyph-name="dcaron" unicode="&#x10f;" horiz-adv-x="741" 
d="M664 732q28 0 48 -22t20 -59q0 -53 -34.5 -109.5t-88.5 -84.5l-25 53q26 20 43 39t23 50q-19 1 -36.5 20.5t-17.5 44.5t20 46.5t48 21.5zM289 406q-72 0 -100 -50.5t-28 -110.5q0 -65 26.5 -113t101.5 -48q25 0 52.5 11.5t51.5 29.5v240q-24 19 -51.5 30t-52.5 11z
M507 706v-706h-61l-31 46q-32 -28 -75 -43t-79 -15q-106 0 -161.5 73.5t-55.5 183.5t58.5 183.5t163.5 73.5q28 0 63 -10.5t64 -29.5v233z" />
    <glyph glyph-name="Dcroat" unicode="&#x110;" horiz-adv-x="707" 
d="M95 0v295h-66l-11 88h77v297h242q158 0 233 -95.5t75 -240.5q0 -154 -80.5 -248.5t-229.5 -95.5h-240zM290 295h-81v-201h125q88 0 141.5 60.5t53.5 188.5q0 110 -45.5 175.5t-142.5 65.5h-132v-201h72z" />
    <glyph glyph-name="dcroat" unicode="&#x111;" horiz-adv-x="579" 
d="M289 406q-72 0 -100 -50.5t-28 -110.5q0 -65 26.5 -113t101.5 -48q25 0 52.5 11.5t51.5 29.5v240q-24 19 -51.5 30t-52.5 11zM563 550h-56v-550h-61l-31 46q-32 -28 -75 -43t-79 -15q-106 0 -161.5 73.5t-55.5 183.5t58.5 183.5t163.5 73.5q28 0 63 -10.5t64 -29.5v88
h-88l-10 83h98v62l114 11v-73h46z" />
    <glyph glyph-name="Emacron" unicode="&#x112;" horiz-adv-x="566" 
d="M159 859h257v-90h-257v90zM89 0v680h394l17 -88h-299v-203h187q4 -22 8.5 -44.5t8.5 -44.5h-204v-212h325q4 -22 8.5 -44t8.5 -44h-454z" />
    <glyph glyph-name="emacron" unicode="&#x113;" horiz-adv-x="539" 
d="M150 709h256v-90h-256v90zM499 212h-336q7 -57 43 -93t102 -36q38 0 66 9t60 24q9 -20 17.5 -41t16.5 -41q-33 -24 -82 -35t-80 -11q-124 0 -193 69.5t-69 184.5t64 185.5t174 70.5q125 0 171 -86.5t46 -199.5zM391 288q-10 54 -37.5 83.5t-74.5 29.5q-48 0 -77.5 -30
t-36.5 -83h226z" />
    <glyph glyph-name="Edotaccent" unicode="&#x116;" horiz-adv-x="566" 
d="M290 884q28 0 47 -20t19 -48t-19 -47t-47 -19t-48 19t-20 47t20 48t48 20zM89 0v680h394l17 -88h-299v-203h187q4 -22 8.5 -44.5t8.5 -44.5h-204v-212h325q4 -22 8.5 -44t8.5 -44h-454z" />
    <glyph glyph-name="edotaccent" unicode="&#x117;" horiz-adv-x="539" 
d="M281 734q28 0 46.5 -20t18.5 -48t-18.5 -47t-46.5 -19t-48 19t-20 47t20 48t48 20zM499 212h-336q7 -57 43 -93t102 -36q38 0 66 9t60 24q9 -20 17.5 -41t16.5 -41q-33 -24 -82 -35t-80 -11q-124 0 -193 69.5t-69 184.5t64 185.5t174 70.5q125 0 171 -86.5t46 -199.5z
M391 288q-10 54 -37.5 83.5t-74.5 29.5q-48 0 -77.5 -30t-36.5 -83h226z" />
    <glyph glyph-name="Eogonek" unicode="&#x118;" horiz-adv-x="566" 
d="M89 0v680h394l17 -88h-299v-203h187q4 -22 8.5 -44.5t8.5 -44.5h-204v-212h325q4 -22 8.5 -44t8.5 -44h-68q-16 -16 -31 -42t-15 -47q0 -16 10 -25t27 -9q8 0 20.5 4.5t23.5 13.5q8 -17 17 -34.5t16 -34.5q-21 -17 -44.5 -25t-51.5 -8q-51 0 -82 31.5t-31 77.5
q0 22 11.5 51.5t26.5 46.5h-283z" />
    <glyph glyph-name="eogonek" unicode="&#x119;" horiz-adv-x="539" 
d="M499 212h-336q7 -57 43 -93t102 -36q38 0 66 9t60 24q9 -20 17.5 -41t16.5 -41q-15 -10 -34 -18.5t-38 -14.5q-17 -15 -32 -41.5t-15 -48.5q0 -16 9 -25t27 -9q9 0 21 4.5t23 13.5l33 -69q-21 -17 -44.5 -25t-51.5 -8q-50 0 -81.5 31.5t-31.5 77.5q0 19 8 44t21 44
q-114 7 -176 74.5t-62 177.5q0 115 64 185.5t174 70.5q126 0 171.5 -86.5t45.5 -199.5zM391 288q-10 54 -37.5 83.5t-74.5 29.5q-48 0 -77.5 -30t-36.5 -83h226z" />
    <glyph glyph-name="Ecaron" unicode="&#x11a;" horiz-adv-x="566" 
d="M113 900h107q17 -19 35 -38t34 -38q17 19 34.5 38t33.5 38h105l-140 -161h-69zM89 0v680h394l17 -88h-299v-203h187q4 -22 8.5 -44.5t8.5 -44.5h-204v-212h325q4 -22 8.5 -44t8.5 -44h-454z" />
    <glyph glyph-name="ecaron" unicode="&#x11b;" horiz-adv-x="539" 
d="M108 750h107q18 -19 35.5 -38t34.5 -38l68 76h104l-141 -161h-67zM499 212h-336q7 -57 43 -93t102 -36q38 0 66 9t60 24q9 -20 17.5 -41t16.5 -41q-33 -24 -82 -35t-80 -11q-124 0 -193 69.5t-69 184.5t64 185.5t174 70.5q125 0 171 -86.5t46 -199.5zM391 288
q-10 54 -37.5 83.5t-74.5 29.5q-48 0 -77.5 -30t-36.5 -83h226z" />
    <glyph glyph-name="Gbreve" unicode="&#x11e;" horiz-adv-x="656" 
d="M537 897q0 -60 -34.5 -107t-108.5 -48q-74 1 -108.5 48t-34.5 107h79q0 -26 14.5 -50t49.5 -24q34 0 50 24t16 50h77zM346 364h239v-279q0 -13 -0.5 -25.5t-0.5 -24.5l1 -1q-37 -20 -92 -34t-113 -14q-158 0 -238.5 101.5t-80.5 248.5q0 157 90 257.5t242 100.5
q31 0 86 -10t95 -33l-35 -81q-41 13 -69.5 20.5t-74.5 7.5q-94 0 -155.5 -66t-61.5 -195q0 -118 51.5 -187t147.5 -69q34 0 60 4.5t45 9.5v183h-145z" />
    <glyph glyph-name="gbreve" unicode="&#x11f;" horiz-adv-x="579" 
d="M427 747q0 -60 -34.5 -107t-108.5 -48q-74 1 -108.5 48t-34.5 107h78q0 -26 15 -50t50 -24q34 0 49.5 24t15.5 50h78zM393 365q-25 18 -52 29.5t-52 11.5q-72 0 -100.5 -50.5t-28.5 -110.5q0 -66 27 -113.5t102 -47.5q25 0 52 11.5t52 29.5v240zM507 -12
q0 -84 -57 -140.5t-178 -56.5q-31 0 -87 13t-93 38q9 20 17.5 40.5t16.5 40.5q40 -19 71.5 -30t71.5 -11q59 0 91.5 28t32.5 79v41q-30 -19 -65.5 -30.5t-66.5 -11.5q-106 0 -161.5 73t-55.5 183q0 111 58 184.5t164 73.5q35 0 78.5 -16t74.5 -43l27 42h61v-497z" />
    <glyph glyph-name="Gcedilla" unicode="&#x122;" horiz-adv-x="656" 
d="M346 364h239v-287q0 -11 -0.5 -21.5t-0.5 -20.5l1 -1q-31 -17 -76 -29t-92 -16l-9 -24q31 -10 51 -35t20 -51q0 -51 -37.5 -75.5t-84.5 -24.5q-19 0 -46.5 7.5t-43.5 18.5q7 16 13 33.5t13 34.5q13 -7 32 -13t32 -6t26 5t13 18q0 16 -24 29.5t-63 17.5l25 65
q-135 14 -204 112.5t-69 234.5q0 157 90 257.5t242 100.5q31 0 86 -10t95 -33l-35 -81q-41 13 -69.5 20.5t-74.5 7.5q-94 0 -155.5 -66t-61.5 -195q0 -118 51.5 -187t147.5 -69q34 0 60 4.5t45 9.5v183h-145z" />
    <glyph glyph-name="gcedilla" unicode="&#x123;" horiz-adv-x="579" 
d="M267 546q-28 0 -48 22.5t-20 59.5q0 52 32.5 98t77.5 69q6 -13 12.5 -26.5t13.5 -27.5q-16 -7 -32 -23t-21 -38q17 0 35 -20.5t18 -44.5t-20 -46.5t-48 -22.5zM393 365q-25 18 -52 29.5t-52 11.5q-72 0 -100.5 -50.5t-28.5 -110.5q0 -66 27 -113.5t102 -47.5
q25 0 52 11.5t52 29.5v240zM507 -12q0 -84 -57 -140.5t-178 -56.5q-31 0 -87 13t-93 38q9 20 17.5 40.5t16.5 40.5q40 -19 71.5 -30t71.5 -11q59 0 91.5 28t32.5 79v41q-30 -19 -65.5 -30.5t-66.5 -11.5q-106 0 -161.5 73t-55.5 183q0 111 58 184.5t164 73.5q35 0 78.5 -16
t74.5 -43l27 42h61v-497z" />
    <glyph glyph-name="Imacron" unicode="&#x12a;" horiz-adv-x="291" 
d="M14 859h257v-90h-257v90zM89 0v680h112v-680h-112z" />
    <glyph glyph-name="imacron" unicode="&#x12b;" horiz-adv-x="250" 
d="M-4 709h256v-90h-256v90zM67 0v485h114v-485h-114z" />
    <glyph glyph-name="Iogonek" unicode="&#x12e;" horiz-adv-x="291" 
d="M89 1v679h112v-680q-17 -19 -34.5 -39.5t-17.5 -49.5q0 -16 9.5 -25t26.5 -9q9 0 21.5 4.5t23.5 13.5l33 -69q-21 -17 -44.5 -25t-51.5 -8q-51 0 -82 31.5t-31 77.5q0 26 10 54t25 45z" />
    <glyph glyph-name="iogonek" unicode="&#x12f;" horiz-adv-x="250" 
d="M124 563q-28 0 -47 19t-19 47t19 47.5t47 19.5t47.5 -19.5t19.5 -47.5t-19.5 -47t-47.5 -19zM181 485v-485h-4q-16 -15 -31 -41t-15 -48q0 -16 8.5 -25t27.5 -9q8 0 20 4.5t24 13.5q8 -17 16.5 -34.5t17.5 -34.5q-22 -17 -46 -25t-52 -8q-49 0 -81 31.5t-32 77.5
q0 15 7.5 36.5t17.5 34.5q0 1 -0.5 2.5t-0.5 2.5q0 6 3 12.5t6 10.5v484h114z" />
    <glyph glyph-name="Idotaccent" unicode="&#x130;" horiz-adv-x="291" 
d="M145 884q28 0 46.5 -20t18.5 -48t-18.5 -47t-46.5 -19t-48 19t-20 47t20 48t48 20zM89 0v680h112v-680h-112z" />
    <glyph glyph-name="dotlessi" unicode="&#x131;" horiz-adv-x="250" 
d="M67 0v485h114v-485h-114z" />
    <glyph glyph-name="Kcedilla" unicode="&#x136;" horiz-adv-x="626" 
d="M484 0l-225 302l-67 -78v-224h-113v680h113v-300l268 315l82 -65l-209 -242l290 -388h-139zM326 -21q27 0 47 -22t20 -59q0 -53 -32.5 -99t-77.5 -68q-7 13 -13 26.5t-13 26.5q16 8 32 24t22 38q-19 1 -36 21t-17 45t20 46t48 21z" />
    <glyph glyph-name="kcedilla" unicode="&#x137;" horiz-adv-x="516" 
d="M72 0v695l113 11v-409l212 201l64 -78q-34 -32 -69.5 -64t-70.5 -64l186 -292h-131l-134 219q-14 -13 -29 -26.5t-28 -26.5v-166h-113zM267 -21q29 0 49.5 -22t20.5 -59q0 -53 -33.5 -99t-77.5 -68l-26 53q16 8 32 24t22 38q-18 1 -35.5 21t-17.5 45t19 46t47 21z" />
    <glyph glyph-name="Lacute" unicode="&#x139;" horiz-adv-x="534" 
d="M168 900h118l-93 -161h-85zM521 0h-432v680h112v-592h304z" />
    <glyph glyph-name="lacute" unicode="&#x13a;" horiz-adv-x="257" 
d="M138 835h120q-22 -31 -44.5 -61.5t-44.5 -61.5h-86q13 31 27.5 61.5t27.5 61.5zM72 0v673l113 12v-685h-113z" />
    <glyph glyph-name="Lcedilla" unicode="&#x13b;" horiz-adv-x="534" 
d="M521 0h-432v680h112v-592h304zM309 -21q28 0 48.5 -22t20.5 -59q0 -53 -33 -99t-78 -68l-25 53q16 7 31.5 23.5t21.5 38.5q-19 0 -36 20t-17 45t19.5 46.5t47.5 21.5z" />
    <glyph glyph-name="lcedilla" unicode="&#x13c;" horiz-adv-x="257" 
d="M72 0v695l113 11v-706h-113zM133 -21q28 0 47.5 -22t19.5 -59q0 -53 -32.5 -99t-77.5 -68q-6 13 -12.5 26.5t-13.5 26.5q16 8 32 24t22 38q-19 1 -36 21t-17 45q0 24 20 45.5t48 21.5z" />
    <glyph glyph-name="Lcaron" unicode="&#x13d;" horiz-adv-x="534" 
d="M391 732q28 0 48.5 -22t20.5 -59q0 -53 -35 -109.5t-87 -84.5l-26 53q25 20 42 39t22 50q-17 1 -34.5 20.5t-17.5 44.5t19.5 46.5t47.5 21.5zM521 0h-432v680h112v-592h304z" />
    <glyph glyph-name="lcaron" unicode="&#x13e;" horiz-adv-x="419" 
d="M341 732q28 0 48.5 -22.5t20.5 -58.5q0 -53 -35 -109.5t-87 -85.5q-6 13 -12.5 26.5t-13.5 26.5q25 21 42.5 40t22.5 50q-18 1 -35 20.5t-17 44.5q0 24 19.5 46t46.5 22zM72 0v695l113 11v-706h-113z" />
    <glyph glyph-name="Lslash" unicode="&#x141;" horiz-adv-x="544" 
d="M531 0h-432v227l-44 -34l-44 78l88 68v341h113v-253l97 76l45 -77l-142 -111v-227h303z" />
    <glyph glyph-name="lslash" unicode="&#x142;" horiz-adv-x="257" 
d="M300 447l-115 -90v-357h-113v269q-17 -14 -35 -28l-36 -28q-10 19 -21.5 39t-22.5 39q29 22 57.5 45t57.5 46v313l113 11v-237l69 55q12 -19 23.5 -38.5t22.5 -38.5z" />
    <glyph glyph-name="Nacute" unicode="&#x143;" horiz-adv-x="732" 
d="M364 900h119q-24 -40 -47 -80.5t-46 -80.5h-86zM89 0v680h107l278 -396q14 -20 28 -41l28 -42v479h113v-680h-108l-283 405l-51 76v-481h-112z" />
    <glyph glyph-name="nacute" unicode="&#x144;" horiz-adv-x="573" 
d="M285 750h118l-93 -161h-85zM163 427q32 34 81.5 54.5t89.5 20.5q93 0 134.5 -54.5t41.5 -135.5v-312h-113v305q0 47 -22.5 74t-67.5 27q-29 0 -64 -16.5t-63 -41.5v-348h-113v485h62z" />
    <glyph glyph-name="Ncedilla" unicode="&#x145;" horiz-adv-x="732" 
d="M89 0v680h107l278 -396q14 -20 28 -41l28 -42v479h113v-680h-108l-283 405l-51 76v-481h-112zM371 -20q29 0 48.5 -22.5t19.5 -58.5q0 -54 -32.5 -99.5t-77.5 -67.5q-7 13 -13.5 26.5t-12.5 26.5q16 7 32 23t22 38q-18 1 -35 21t-17 45q0 27 19 47.5t47 20.5z" />
    <glyph glyph-name="ncedilla" unicode="&#x146;" horiz-adv-x="573" 
d="M163 427q32 34 81.5 54.5t89.5 20.5q93 0 134.5 -54.5t41.5 -135.5v-312h-113v305q0 47 -22.5 74t-67.5 27q-29 0 -64 -16.5t-63 -41.5v-348h-113v485h62zM287 -21q28 0 47.5 -22t19.5 -59q0 -53 -32.5 -99t-77.5 -68l-25 53q16 7 32 23.5t21 38.5q-18 0 -35 20t-17 45
t19.5 46.5t47.5 21.5z" />
    <glyph glyph-name="Ncaron" unicode="&#x147;" horiz-adv-x="732" 
d="M198 900h108q16 -19 34 -38t35 -38q16 19 33.5 38t34.5 38h104l-140 -161h-68zM89 0v680h107l278 -396q14 -20 28 -41l28 -42v479h113v-680h-108l-283 405l-51 76v-481h-112z" />
    <glyph glyph-name="ncaron" unicode="&#x148;" horiz-adv-x="573" 
d="M129 750h108l69 -76l69 76h103l-141 -161h-67zM163 427q32 34 81.5 54.5t89.5 20.5q93 0 134.5 -54.5t41.5 -135.5v-312h-113v305q0 47 -22.5 74t-67.5 27q-29 0 -64 -16.5t-63 -41.5v-348h-113v485h62z" />
    <glyph glyph-name="Omacron" unicode="&#x14c;" horiz-adv-x="740" 
d="M240 859h256v-89h-256v89zM61 337q0 155 80.5 255.5t228.5 103.5q159 0 234 -103.5t75 -248.5q0 -154 -80.5 -254.5t-229.5 -103.5q-158 0 -233 103.5t-75 247.5zM179 338q0 -110 45.5 -183.5t142.5 -73.5q89 0 141.5 67.5t52.5 195.5q0 110 -45.5 182.5t-143.5 72.5
q-87 0 -140 -71t-53 -190z" />
    <glyph glyph-name="omacron" unicode="&#x14d;" horiz-adv-x="574" 
d="M156 709h256v-89h-256v89zM279 -12q-113 1 -174 70.5t-61 185.5q1 114 65 183.5t178 70.5q117 0 180 -72t63 -187q-1 -114 -69 -182.5t-182 -68.5zM414 239q0 73 -30.5 117.5t-93.5 44.5t-96 -40.5t-33 -115.5q0 -76 28 -118.5t91 -42.5t98 39t36 116z" />
    <glyph glyph-name="Ohungarumlaut" unicode="&#x150;" horiz-adv-x="740" 
d="M470 900h110l-93 -161h-77zM299 900h109l-93 -161h-76zM61 337q0 155 80.5 255.5t228.5 103.5q159 0 234 -103.5t75 -248.5q0 -154 -80.5 -254.5t-229.5 -103.5q-158 0 -233 103.5t-75 247.5zM179 338q0 -110 45.5 -183.5t142.5 -73.5q89 0 141.5 67.5t52.5 195.5
q0 110 -45.5 182.5t-143.5 72.5q-87 0 -140 -71t-53 -190z" />
    <glyph glyph-name="ohungarumlaut" unicode="&#x151;" horiz-adv-x="574" 
d="M387 750h109l-93 -161h-78zM215 750h110l-93 -161h-77zM279 -12q-113 1 -174 70.5t-61 185.5q1 114 65 183.5t178 70.5q117 0 180 -72t63 -187q-1 -114 -69 -182.5t-182 -68.5zM414 239q0 73 -30.5 117.5t-93.5 44.5t-96 -40.5t-33 -115.5q0 -76 28 -118.5t91 -42.5
t98 39t36 116z" />
    <glyph glyph-name="OE" unicode="&#x152;" horiz-adv-x="993" 
d="M516 571q-40 13 -66 20.5t-71 7.5q-88 -1 -144 -71.5t-56 -189.5q0 -104 48.5 -180.5t141.5 -76.5q46 0 81 9t66 22v459zM969 0h-453v10q-34 -10 -72 -17t-69 -7q-158 0 -236 102.5t-78 248.5q0 154 85.5 255.5t234.5 101.5q24 0 61 -6.5t74 -19.5v12h394l17 -88h-299
v-203h187l17 -89h-204v-212h325z" />
    <glyph glyph-name="oe" unicode="&#x153;" horiz-adv-x="868" 
d="M829 212h-337q7 -57 42.5 -93t101.5 -36q40 0 68 9t60 24l34 -82q-33 -24 -82.5 -35t-80.5 -11q-51 0 -93 12t-74 34q-33 -24 -79.5 -35t-77.5 -11q-123 0 -195 69.5t-72 183.5q0 115 71.5 185.5t195.5 70.5q26 0 72.5 -10.5t80.5 -33.5q29 21 66 33t80 12
q127 0 173 -86.5t46 -199.5zM160 243q0 -69 39 -114.5t114 -45.5q30 0 51 5.5t43 15.5q-17 28 -25 63t-8 75q0 41 7.5 76t23.5 63q-21 9 -42 15t-50 6q-74 0 -113.5 -46t-39.5 -113zM719 288q-8 54 -36 83.5t-74 29.5q-49 0 -78 -30t-37 -83h225z" />
    <glyph glyph-name="Racute" unicode="&#x154;" horiz-adv-x="628" 
d="M280 900h118l-93 -161h-85zM290 586h-89v-229h88q63 0 105.5 25.5t42.5 87.5q0 65 -39.5 90.5t-107.5 25.5zM487 0l-149 268q-13 -2 -27 -2.5t-28 -0.5h-82v-265h-112v680h204q110 0 186.5 -49t76.5 -156q0 -66 -33 -110.5t-85 -68.5l170 -296h-121z" />
    <glyph glyph-name="racute" unicode="&#x155;" horiz-adv-x="349" 
d="M173 750h118l-92 -161h-86zM67 0v485h61q9 -18 18.5 -35.5t18.5 -34.5q29 25 72 47.5t82 22.5l23 -91q-36 0 -79.5 -20t-82.5 -56v-318h-113z" />
    <glyph glyph-name="Rcedilla" unicode="&#x156;" horiz-adv-x="628" 
d="M290 586h-89v-229h88q63 0 105.5 25.5t42.5 87.5q0 65 -39.5 90.5t-107.5 25.5zM487 0l-149 268q-13 -2 -27 -2.5t-28 -0.5h-82v-265h-112v680h204q110 0 186.5 -49t76.5 -156q0 -66 -33 -110.5t-85 -68.5l170 -296h-121zM333 -21q28 0 48 -22t20 -59q0 -53 -32.5 -99
t-78.5 -68l-25 53q16 7 32 23.5t23 38.5q-19 0 -36.5 20t-17.5 45t19.5 46.5t47.5 21.5z" />
    <glyph glyph-name="rcedilla" unicode="&#x157;" horiz-adv-x="349" 
d="M67 0v485h61q9 -18 18.5 -35.5t18.5 -34.5q29 25 72 47.5t82 22.5l23 -91q-36 0 -79.5 -20t-82.5 -56v-318h-113zM128 -21q28 0 47.5 -22t19.5 -59q0 -53 -32 -99t-78 -68l-25 53q16 8 32 24t22 38q-19 1 -36.5 21t-17.5 45q0 24 20 45.5t48 21.5z" />
    <glyph glyph-name="Rcaron" unicode="&#x158;" horiz-adv-x="628" 
d="M117 900h107l69 -76l68 76h105l-141 -161h-68zM290 586h-89v-229h88q63 0 105.5 25.5t42.5 87.5q0 65 -39.5 90.5t-107.5 25.5zM487 0l-149 268q-13 -2 -27 -2.5t-28 -0.5h-82v-265h-112v680h204q110 0 186.5 -49t76.5 -156q0 -66 -33 -110.5t-85 -68.5l170 -296h-121z
" />
    <glyph glyph-name="rcaron" unicode="&#x159;" horiz-adv-x="349" 
d="M0 750h107l69 -76l68 76h105l-142 -161h-66zM67 0v485h61q9 -18 18.5 -35.5t18.5 -34.5q29 25 72 47.5t82 22.5l23 -91q-36 0 -79.5 -20t-82.5 -56v-318h-113z" />
    <glyph glyph-name="Sacute" unicode="&#x15a;" horiz-adv-x="547" 
d="M248 900h118q-23 -40 -46 -80.5t-47 -80.5h-85zM82 131q29 -15 76.5 -30t92.5 -15q67 0 101 23t34 63q0 91 -171 140.5t-171 203.5q0 75 60 127.5t169 52.5q51 0 100 -15t86 -33q-9 -23 -19 -45.5t-19 -44.5q-27 13 -62 25.5t-79 12.5q-51 0 -86 -18.5t-35 -59.5
q0 -95 171.5 -145.5t171.5 -199.5q0 -81 -64.5 -133.5t-185.5 -52.5q-43 0 -108.5 17.5t-87.5 36.5z" />
    <glyph glyph-name="sacute" unicode="&#x15b;" horiz-adv-x="437" 
d="M212 750h118l-93 -161h-85zM349 368q-31 15 -61.5 24.5t-67.5 9.5q-31 0 -49 -12.5t-18 -34.5q0 -17 21.5 -30.5t61.5 -28.5q60 -21 112 -59.5t52 -100.5q0 -70 -50.5 -109t-148.5 -39q-31 0 -81 11t-83 36l34 82q33 -16 66 -24.5t63 -8.5q42 0 64.5 12.5t22.5 34.5
q0 24 -23.5 42.5t-67.5 32.5q-57 19 -108.5 53.5t-51.5 93.5q0 68 50 106.5t136 38.5q31 0 79 -12.5t82 -35.5z" />
    <glyph glyph-name="Scedilla" unicode="&#x15e;" horiz-adv-x="547" 
d="M82 131q29 -15 76.5 -30t92.5 -15q67 0 101 23t34 63q0 91 -171 140.5t-171 203.5q0 75 60 127.5t169 52.5q51 0 100 -15t86 -33q-9 -23 -19 -45.5t-19 -44.5q-29 14 -64.5 27t-81.5 13q-51 0 -83.5 -20.5t-32.5 -59.5q0 -95 171.5 -145.5t171.5 -199.5
q0 -75 -54.5 -125.5t-157.5 -58.5l-9 -24q30 -10 50.5 -35t20.5 -51q0 -51 -37.5 -75.5t-84.5 -24.5q-19 0 -46.5 7.5t-43.5 18.5q7 16 13 33.5t13 34.5q13 -7 32.5 -13t31.5 -6q14 0 26.5 5t12.5 18q0 16 -24 29.5t-63 17.5q6 16 13 33.5t13 34.5q-43 6 -89.5 20t-62.5 29z
" />
    <glyph glyph-name="scedilla" unicode="&#x15f;" horiz-adv-x="437" 
d="M349 368q-31 15 -61.5 24.5t-67.5 9.5q-31 0 -49 -12.5t-18 -34.5q0 -17 21.5 -30.5t61.5 -28.5q60 -21 112 -59.5t52 -100.5q0 -63 -41 -101.5t-119 -45.5l-10 -24q30 -10 51 -35.5t21 -51.5q0 -51 -37.5 -75t-84.5 -24q-19 0 -47 7t-43 19l26 67q13 -6 32 -12t32 -6
t26 4.5t13 17.5q0 16 -24.5 29.5t-63.5 17.5l27 69q-31 4 -64.5 15t-56.5 28l34 82q33 -16 66 -24.5t63 -8.5q42 0 64.5 12.5t22.5 34.5q0 24 -23.5 42.5t-67.5 32.5q-57 19 -108.5 53.5t-51.5 93.5q0 68 50 106.5t136 38.5q31 0 79 -12.5t82 -35.5z" />
    <glyph glyph-name="Scaron" unicode="&#x160;" horiz-adv-x="547" 
d="M113 900h107l69 -76l68 76h105l-141 -161h-68zM82 131q29 -15 76.5 -30t92.5 -15q67 0 101 23t34 63q0 91 -171 140.5t-171 203.5q0 75 60 127.5t169 52.5q51 0 100 -15t86 -33q-9 -23 -19 -45.5t-19 -44.5q-27 13 -62 25.5t-79 12.5q-51 0 -86 -18.5t-35 -59.5
q0 -95 171.5 -145.5t171.5 -199.5q0 -81 -64.5 -133.5t-185.5 -52.5q-43 0 -108.5 17.5t-87.5 36.5z" />
    <glyph glyph-name="scaron" unicode="&#x161;" horiz-adv-x="437" 
d="M46 750h108l69 -76l69 76h103l-141 -161h-67zM349 368q-31 15 -61.5 24.5t-67.5 9.5q-31 0 -49 -12.5t-18 -34.5q0 -17 21.5 -30.5t61.5 -28.5q60 -21 112 -59.5t52 -100.5q0 -70 -50.5 -109t-148.5 -39q-31 0 -81 11t-83 36l34 82q33 -16 66 -24.5t63 -8.5
q42 0 64.5 12.5t22.5 34.5q0 24 -23.5 42.5t-67.5 32.5q-57 19 -108.5 53.5t-51.5 93.5q0 68 50 106.5t136 38.5q31 0 79 -12.5t82 -35.5z" />
    <glyph glyph-name="Tcedilla" unicode="&#x162;" horiz-adv-x="565" 
d="M558 591h-228v-591h-13l-14 -35q30 -10 50.5 -35t20.5 -51q0 -51 -37.5 -75.5t-84.5 -24.5q-19 0 -46.5 7.5t-43.5 18.5q7 16 13 33.5t13 34.5q13 -7 32 -13t32 -6t26 5t13 18q0 16 -24.5 29.5t-63.5 17.5q7 19 15 38l16 38h-18v591h-209v89h534z" />
    <glyph glyph-name="tcedilla" unicode="&#x163;" horiz-adv-x="356" 
d="M309 90l32 -83q-13 -9 -35.5 -16t-42.5 -8l-7 -18q30 -10 51 -35.5t21 -51.5q0 -51 -37.5 -75t-84.5 -24q-20 0 -47.5 7t-43.5 19l27 67q12 -6 31.5 -12t32.5 -6t26 4.5t13 17.5q0 16 -24.5 29.5t-63.5 17.5l27 67q-51 14 -79.5 54t-28.5 101v250h-66v87h66v117l113 23
v-140h88l35 -87h-123v-231q0 -37 17 -61.5t53 -24.5q13 0 25.5 3.5t24.5 8.5z" />
    <glyph glyph-name="Tcaron" unicode="&#x164;" horiz-adv-x="565" 
d="M111 900h107l69 -76l68 76h105l-141 -161h-68zM558 591h-228v-591h-114v591h-209v89h534z" />
    <glyph glyph-name="tcaron" unicode="&#x165;" horiz-adv-x="519" 
d="M441 732q28 0 48 -22t20 -59q0 -53 -34.5 -109.5t-87.5 -84.5l-25 53q25 20 42 39t24 50q-19 1 -36.5 20.5t-17.5 44.5t19.5 46.5t47.5 21.5zM341 7q-15 -10 -41.5 -17.5t-48.5 -7.5q-81 0 -128 42t-47 121v250h-66v87h66v117l113 23v-140h88l35 -87h-123v-231
q0 -37 17 -61.5t53 -24.5q13 0 25.5 3.5t24.5 8.5z" />
    <glyph glyph-name="Umacron" unicode="&#x16a;" horiz-adv-x="706" 
d="M224 859h257v-90h-257v90zM195 254q0 -85 43.5 -129t113.5 -44q72 0 114.5 45t42.5 128v426h114v-435q0 -110 -73 -183t-198 -73t-197.5 73t-72.5 183v435h113v-426z" />
    <glyph glyph-name="umacron" unicode="&#x16b;" horiz-adv-x="564" 
d="M152 709h258v-89h-258v89zM402 50q-33 -31 -79 -49.5t-85 -18.5q-94 0 -135 55t-41 135v313h114v-306q0 -46 22.5 -73.5t67.5 -27.5q26 0 58 14t59 35v358h113v-485h-62z" />
    <glyph glyph-name="Uring" unicode="&#x16e;" horiz-adv-x="706" 
d="M351 934q41 0 72 -28t31 -69t-31 -67t-72 -26t-71.5 26t-30.5 67t30.5 69t71.5 28zM351 797q17 0 29 12t12 28q0 17 -12 29t-29 12q-16 0 -28.5 -12t-12.5 -29q0 -16 12.5 -28t28.5 -12zM195 254q0 -85 43.5 -129t113.5 -44q72 0 114.5 45t42.5 128v426h114v-435
q0 -110 -73 -183t-198 -73t-197.5 73t-72.5 183v435h113v-426z" />
    <glyph glyph-name="uring" unicode="&#x16f;" horiz-adv-x="564" 
d="M284 784q40 0 71 -28t31 -68q0 -42 -31 -68t-71 -26q-43 0 -73.5 26t-30.5 68q0 40 30.5 68t73.5 28zM284 647q16 0 27.5 12.5t11.5 28.5t-11.5 28t-27.5 12q-17 0 -29 -12t-12 -28t12 -28.5t29 -12.5zM402 50q-33 -31 -79 -49.5t-85 -18.5q-94 0 -135 55t-41 135v313
h114v-306q0 -46 22.5 -73.5t67.5 -27.5q26 0 58 14t59 35v358h113v-485h-62z" />
    <glyph glyph-name="Uhungarumlaut" unicode="&#x170;" horiz-adv-x="706" 
d="M444 900h111l-93 -161h-78zM273 900h110q-24 -40 -47 -80.5t-46 -80.5h-77zM195 254q0 -85 43.5 -129t113.5 -44q72 0 114.5 45t42.5 128v426h114v-435q0 -110 -73 -183t-198 -73t-197.5 73t-72.5 183v435h113v-426z" />
    <glyph glyph-name="uhungarumlaut" unicode="&#x171;" horiz-adv-x="564" 
d="M383 750h110l-93 -161h-78zM212 750h110l-93 -161h-78zM402 50q-33 -31 -79 -49.5t-85 -18.5q-94 0 -135 55t-41 135v313h114v-306q0 -46 22.5 -73.5t67.5 -27.5q26 0 58 14t59 35v358h113v-485h-62z" />
    <glyph glyph-name="Uogonek" unicode="&#x172;" horiz-adv-x="706" 
d="M195 254q0 -85 43.5 -129t113.5 -44q72 0 114.5 45t42.5 128v426h114v-435q0 -88 -47 -153t-130 -90q-17 -14 -32.5 -41.5t-15.5 -49.5q0 -16 9.5 -25t26.5 -9q9 0 21 4.5t24 13.5q7 -17 16 -34.5t17 -34.5q-21 -17 -45 -25t-52 -8q-50 0 -81.5 31.5t-31.5 77.5
q0 19 8.5 44t21.5 44q-116 6 -183 77.5t-67 177.5v435h113v-426z" />
    <glyph glyph-name="uogonek" unicode="&#x173;" horiz-adv-x="564" 
d="M402 50q-33 -31 -79 -49.5t-85 -18.5q-94 0 -135 55t-41 135v313h114v-306q0 -46 22.5 -73.5t67.5 -27.5q26 0 58 14t59 35v358h113v-485q-16 -16 -31.5 -40.5t-15.5 -48.5q0 -16 9.5 -25t27.5 -9q8 0 20 4.5t23 13.5l34 -70q-21 -16 -45 -24t-52 -8q-50 0 -81.5 31.5
t-31.5 77.5q0 39 20 72t42 54z" />
    <glyph glyph-name="Ydieresis" unicode="&#x178;" horiz-adv-x="590" 
d="M204 875q25 0 42 -17.5t17 -41.5q0 -25 -17 -42t-42 -17t-42.5 17t-17.5 42q0 24 17.5 41.5t42.5 17.5zM386 875q25 0 42.5 -17.5t17.5 -41.5q0 -25 -17.5 -42t-42.5 -17q-24 0 -41.5 17t-17.5 42q0 24 17.5 41.5t41.5 17.5zM235 0l1 268l-230 396l117 16l168 -299
l175 299h119l-236 -414v-266h-114z" />
    <glyph glyph-name="Zacute" unicode="&#x179;" horiz-adv-x="576" 
d="M264 900h118q-23 -40 -46 -80.5t-47 -80.5h-85zM552 0h-521q-4 22 -7 44l-6 44q99 125 200.5 251.5t200.5 251.5h-359q-3 22 -6.5 44.5t-7.5 44.5h491l12 -89l-409 -503h399l6 -44t7 -44z" />
    <glyph glyph-name="zacute" unicode="&#x17a;" horiz-adv-x="455" 
d="M244 750h118l-93 -161h-86zM424 430l-252 -339h248l10 -91h-393l-15 59l249 342h-210l-22 92h379z" />
    <glyph glyph-name="Zdotaccent" unicode="&#x17b;" horiz-adv-x="576" 
d="M290 884q28 0 46.5 -20t18.5 -48t-18.5 -47t-46.5 -19t-48 19t-20 47t20 48t48 20zM552 0h-521q-4 22 -7 44l-6 44q99 125 200.5 251.5t200.5 251.5h-359q-3 22 -6.5 44.5t-7.5 44.5h491l12 -89l-409 -503h399l6 -44t7 -44z" />
    <glyph glyph-name="zdotaccent" unicode="&#x17c;" horiz-adv-x="455" 
d="M250 734q28 0 48 -19.5t20 -47.5q0 -29 -20 -48t-48 -19t-47.5 19t-19.5 48q0 28 19.5 47.5t47.5 19.5zM424 430l-252 -339h248l10 -91h-393l-15 59l249 342h-210l-22 92h379z" />
    <glyph glyph-name="Zcaron" unicode="&#x17d;" horiz-adv-x="576" 
d="M114 900h108q16 -19 34 -38t35 -38q16 19 33.5 38t34.5 38h104l-140 -161h-68zM552 0h-521q-4 22 -7 44l-6 44q99 125 200.5 251.5t200.5 251.5h-359q-3 22 -6.5 44.5t-7.5 44.5h491l12 -89l-409 -503h399l6 -44t7 -44z" />
    <glyph glyph-name="zcaron" unicode="&#x17e;" horiz-adv-x="455" 
d="M69 750h107l69 -76l69 76h105l-142 -161h-67zM424 430l-252 -339h248l10 -91h-393l-15 59l249 342h-210l-22 92h379z" />
    <glyph glyph-name="florin" unicode="&#x192;" horiz-adv-x="351" 
d="M197 60q0 -78 -45 -123.5t-126 -45.5q-22 0 -49 7.5t-41 18.5l31 83q12 -5 25 -8.5t26 -3.5q35 0 50.5 24t15.5 61v314h-74v88h74v56q0 79 45 125t126 46q22 0 49 -8.5t41 -18.5l-31 -83q-13 5 -26 8.5t-25 3.5q-35 0 -50.5 -24.5t-15.5 -61.5v-43h91l36 -88h-127v-327z
" />
    <glyph glyph-name="Scommaaccent" unicode="&#x218;" horiz-adv-x="547" 
d="M82 131q29 -15 76.5 -30t92.5 -15q67 0 101 23t34 63q0 91 -171 140.5t-171 203.5q0 75 60 127.5t169 52.5q51 0 100 -15t86 -33q-9 -23 -19 -45.5t-19 -44.5q-27 13 -62 25.5t-79 12.5q-51 0 -86 -18.5t-35 -59.5q0 -95 171.5 -145.5t171.5 -199.5q0 -81 -64.5 -133.5
t-185.5 -52.5q-43 0 -108.5 17.5t-87.5 36.5zM251 -21q28 0 48 -22t20 -59q0 -53 -32 -99t-77 -68l-26 53q16 8 31.5 24t21.5 38q-18 1 -35 21t-17 45t19 46t47 21z" />
    <glyph glyph-name="scommaaccent" unicode="&#x219;" horiz-adv-x="437" 
d="M349 368q-31 15 -61.5 24.5t-67.5 9.5q-31 0 -49 -12.5t-18 -34.5q0 -17 21.5 -30.5t61.5 -28.5q60 -21 112 -59.5t52 -100.5q0 -70 -50.5 -109t-148.5 -39q-31 0 -81 11t-83 36l34 82q33 -16 66 -24.5t63 -8.5q42 0 64.5 12.5t22.5 34.5q0 24 -23.5 42.5t-67.5 32.5
q-57 19 -108.5 53.5t-51.5 93.5q0 68 50 106.5t136 38.5q31 0 79 -12.5t82 -35.5zM211 -21q28 0 48.5 -22t20.5 -59q0 -53 -32.5 -99t-77.5 -68l-26 53q16 7 32 23.5t21 38.5q-18 0 -35.5 20t-17.5 45t19.5 46.5t47.5 21.5z" />
    <glyph glyph-name="uni021A" unicode="&#x21a;" horiz-adv-x="565" 
d="M558 591h-228v-591h-114v591h-209v89h534zM275 -21q28 0 48 -22t20 -59q0 -53 -32.5 -99t-78.5 -68l-25 53q16 8 32 24t22 38q-19 1 -36.5 21t-17.5 45t20 46t48 21z" />
    <glyph glyph-name="uni021B" unicode="&#x21b;" horiz-adv-x="356" 
d="M341 7q-15 -10 -41.5 -17.5t-48.5 -7.5q-81 0 -128 42t-47 121v250h-66v87h66v117l113 23v-140h88l35 -87h-123v-231q0 -37 17 -61.5t53 -24.5q13 0 25.5 3.5t24.5 8.5zM226 -21q28 0 48 -22t20 -59q0 -53 -32.5 -99t-77.5 -68l-26 53q16 7 32 23.5t22 38.5
q-18 0 -35.5 20t-17.5 45t19.5 46.5t47.5 21.5z" />
    <glyph glyph-name="circumflex" unicode="&#x2c6;" horiz-adv-x="380" 
d="M123 589h-107l140 161h68l141 -161h-105l-68 76z" />
    <glyph glyph-name="caron" unicode="&#x2c7;" horiz-adv-x="380" 
d="M16 750h107l69 -76l68 76h105l-141 -161h-68z" />
    <glyph glyph-name="uni02C9" unicode="&#x2c9;" horiz-adv-x="288" 
d="M16 709h257v-89h-257v89z" />
    <glyph glyph-name="breve" unicode="&#x2d8;" horiz-adv-x="317" 
d="M301 747q0 -60 -34 -107t-108 -48q-74 1 -108.5 48t-34.5 107h78q0 -26 15 -49.5t50 -23.5q34 0 49.5 23.5t15.5 49.5h77z" />
    <glyph glyph-name="dotaccent" unicode="&#x2d9;" horiz-adv-x="166" 
d="M83 734q28 0 47 -19.5t19 -47.5q0 -29 -19 -48t-47 -19t-47.5 19t-19.5 48q0 28 19.5 47.5t47.5 19.5z" />
    <glyph glyph-name="ring" unicode="&#x2da;" horiz-adv-x="237" 
d="M118 784q41 0 72 -28t31 -68q0 -42 -31 -68t-72 -26t-71.5 26t-30.5 68q0 40 30.5 68t71.5 28zM118 647q17 0 29 12.5t12 28.5t-12 28t-29 12q-16 0 -28.5 -12t-12.5 -28t12.5 -28.5t28.5 -12.5z" />
    <glyph glyph-name="ogonek" unicode="&#x2db;" horiz-adv-x="241" 
d="M59 5h104q-18 -15 -35 -43.5t-17 -50.5q0 -16 10 -25t27 -9q8 0 20.5 4.5t23.5 13.5l33 -70q-21 -16 -44.5 -24t-51.5 -8q-51 0 -82 31.5t-31 77.5q0 23 13 55t30 48z" />
    <glyph glyph-name="tilde" unicode="&#x2dc;" horiz-adv-x="348" 
d="M260 711h72q0 -63 -31 -88t-70 -25q-37 0 -59 19.5t-49 19.5q-12 0 -21 -11t-10 -23h-75q0 63 30.5 87.5t70.5 24.5q37 0 60.5 -19t51.5 -19q12 0 20.5 10.5t9.5 23.5z" />
    <glyph glyph-name="hungarumlaut" unicode="&#x2dd;" horiz-adv-x="373" 
d="M247 750h110l-93 -161h-77zM76 750h109l-92 -161h-77z" />
    <glyph glyph-name="pi" unicode="&#x3c0;" horiz-adv-x="686" 
d="M127 0v396h-96v89h624v-89h-97v-396h-113v396h-205v-396h-113z" />
    <glyph glyph-name="dv_Candrabindu" unicode="&#x901;" horiz-adv-x="0" 
d="M249 900q-30 0 -50.5 21t-20.5 51t20.5 51t50.5 21t51 -21t21 -51t-21 -51t-51 -21zM397 951l85 -53q-40 -78 -102 -109t-131 -31t-130.5 31t-101.5 109l85 53q24 -51 66.5 -75t80.5 -24q39 0 79 22.5t69 76.5z" />
    <glyph glyph-name="dv_Anusvara" unicode="&#x902;" horiz-adv-x="0" 
d="M88 765q-30 0 -50.5 21t-20.5 51t20.5 51t50.5 21q31 0 51.5 -21t20.5 -51t-20.5 -51t-51.5 -21z" />
    <glyph glyph-name="dv_Visarga" unicode="&#x903;" horiz-adv-x="194" 
d="M97 392q-31 0 -51.5 20.5t-20.5 50.5q0 29 20.5 50t51.5 21q30 0 51 -21t21 -50q0 -30 -21 -50.5t-51 -20.5zM97 47q-31 0 -51.5 20t-20.5 51q0 29 20.5 50.5t51.5 21.5q30 0 51 -21.5t21 -50.5q0 -31 -21 -51t-51 -20z" />
    <glyph glyph-name="dv_ShortA" unicode="&#x904;" horiz-adv-x="942" 
d="M530 191q0 -88 -67.5 -147t-183.5 -59q-60 0 -117 16t-99 40l22 100q46 -28 92 -42t96 -14q51 0 92 26.5t41 77.5q0 54 -35.5 86t-128.5 32h-87l-16 88h110q72 0 107 32t35 78q0 37 -28 64.5t-80 27.5q-49 0 -95 -16t-96 -51q-4 25 -8.5 51t-8.5 51q46 31 101 48t118 17
q113 0 167.5 -57.5t54.5 -132.5q0 -31 -16.5 -61t-41.5 -50h256v187h-99l-17 97h121v5q0 33 -18.5 52t-55.5 19h-55q-83 0 -134 39.5t-51 100.5v36l109 -17q0 -32 21 -46t55 -14h59q76 0 131 -41.5t55 -100.5v-33h102l16 -97h-117v-599l-122 16v305h-242q28 -19 43 -49.5
t15 -64.5z" />
    <glyph glyph-name="dv_A" unicode="&#x905;" horiz-adv-x="942" 
d="M530 191q0 -88 -67.5 -147t-183.5 -59q-60 0 -117 16t-99 40l22 100q46 -28 92 -42t96 -14q52 0 92.5 26t40.5 78q0 54 -35.5 86t-128.5 32h-87l-16 88h110q72 0 107 32t35 78q0 37 -28 64.5t-80 27.5q-49 0 -95 -16t-96 -51q-4 25 -8.5 51t-8.5 51q46 31 101 48t118 17
q113 0 167.5 -57.5t54.5 -132.5q0 -31 -16.5 -61t-41.5 -50h256v187h-99l-17 97h339l16 -97h-117v-599l-122 16v305h-242q28 -19 43 -49.5t15 -64.5z" />
    <glyph glyph-name="dv_Aa" unicode="&#x906;" horiz-adv-x="1261" 
d="M530 191q0 -88 -67.5 -147t-183.5 -59q-60 0 -117 16t-99 40l22 100q46 -28 92 -42t96 -14q52 0 92.5 26t40.5 78q0 54 -35.5 86t-128.5 32h-87l-16 88h110q72 0 107 32t35 78q0 37 -28 64.5t-80 27.5q-49 0 -95 -16t-96 -51q-4 25 -8.5 51t-8.5 51q46 31 101 48t118 17
q113 0 167.5 -57.5t54.5 -132.5q0 -31 -16.5 -61t-41.5 -50h256v187h-99l-17 97h657l17 -97h-116v-599l-124 16v583h-196v-599l-122 16v305h-242q28 -19 43 -49.5t15 -64.5z" />
    <glyph glyph-name="dv_I" unicode="&#x907;" horiz-adv-x="556" 
d="M221 89q13 -2 27.5 -3.5t30.5 -1.5q56 0 81.5 22.5t25.5 50.5t-18.5 47t-55.5 19h-93q-63 0 -116 40.5t-53 108.5q0 72 48.5 110.5t119.5 38.5h113v62h-331q-2 24 -4.5 48t-6.5 49h566q3 -25 5.5 -49t6.5 -48h-115v-164h-231q-25 0 -40 -15t-15 -32q0 -19 16 -33.5
t41 -14.5h81q90 0 148.5 -40t58.5 -127q0 -73 -64.5 -122t-177.5 -49l13 -18q22 -28 38 -47.5t26 -31.5q-20 -14 -40.5 -28.5t-40.5 -29.5l-126 167q-30 14 -60 43t-30 70q0 25 17.5 41t43.5 16q38 0 68.5 -23.5t42.5 -55.5z" />
    <glyph glyph-name="dv_Ii" unicode="&#x908;" horiz-adv-x="556" 
d="M221 89q13 -2 27.5 -3.5t30.5 -1.5q55 1 82.5 23t27.5 50q0 25 -20 45.5t-57 20.5h-93q-63 0 -116 40.5t-53 108.5q0 72 48.5 110.5t119.5 38.5h113v62h-331q-2 24 -4.5 48t-6.5 49h323q-19 22 -31.5 57.5t-12.5 65.5q0 59 42 107t111 48q43 0 77.5 -17t50.5 -33l-47 -80
q-13 11 -28 20t-36 9q-28 0 -43.5 -21.5t-15.5 -46.5q0 -32 15.5 -61t33.5 -48h127q3 -25 5.5 -49t6.5 -48h-115v-164h-231q-24 0 -39.5 -14t-15.5 -33t16 -33.5t41 -14.5h81q90 0 148.5 -40t58.5 -127q0 -72 -64.5 -121.5t-177.5 -49.5q0 -4 6 -10t8 -9l63 -78
q-20 -14 -40.5 -28.5t-40.5 -29.5l-126 167q-30 14 -59 43t-29 71q0 25 16.5 40.5t42.5 15.5q38 0 68.5 -23.5t42.5 -55.5z" />
    <glyph glyph-name="dv_U" unicode="&#x909;" horiz-adv-x="596" 
d="M525 191q0 -88 -67.5 -147t-183.5 -59q-60 0 -117 16t-98 40l22 100q46 -28 91.5 -42t95.5 -14q53 0 92.5 26t39.5 78q0 54 -35.5 86t-127.5 32h-87l-8 44l-8 44h110q72 0 107.5 32t35.5 78q0 25 -12.5 45.5t-36.5 32.5h-333l-8 48t-8 49h601l17 -97h-115q10 -16 15 -36
t5 -40q0 -45 -26.5 -93t-82.5 -66q60 -13 91 -59.5t31 -97.5z" />
    <glyph glyph-name="dv_Uu" unicode="&#x90a;" horiz-adv-x="880" 
d="M492 583q9 -16 14.5 -36t5.5 -40q0 -45 -27 -92.5t-82 -66.5q17 -4 32.5 -11t27.5 -17q25 25 69 46.5t99 21.5q104 0 159.5 -58.5t55.5 -149.5q0 -93 -66 -146.5t-157 -53.5l-22 100q59 0 93 29t34 76q0 45 -27.5 73.5t-71.5 28.5q-42 0 -68 -16.5t-43 -36.5
q4 -10 5.5 -21.5t1.5 -21.5q0 -88 -67.5 -147t-183.5 -59q-59 0 -116 16t-100 41l23 100q46 -29 91.5 -43t95.5 -14q52 0 92 26.5t40 77.5q0 54 -35 86t-128 32h-87l-16 89h110q72 0 107.5 32t35.5 78q0 24 -13 44.5t-36 32.5h-333l-16 97h886l16 -97h-399z" />
    <glyph glyph-name="dv_VocalicR" unicode="&#x90b;" horiz-adv-x="906" 
d="M598 150q33 -10 46.5 -12t35.5 -2q28 0 47.5 17t19.5 51q0 25 -11.5 55.5t-35.5 64.5q-25 -27 -89.5 -47.5t-121.5 -20.5v-272l-123 16v193l-216 -129q-17 22 -33.5 45.5t-33.5 45.5l253 150q-44 43 -77.5 57.5t-64.5 14.5q-18 0 -48.5 -9t-63.5 -25l-47 103
q31 15 79.5 27t67.5 12q40 0 86 -9t98 -54v161h-361l-8 48t-8 49h912l16 -97h-428v-228q53 0 95.5 17.5t55.5 31.5q-7 11 -13 26.5t-6 35.5q0 31 19 45t44 14q35 0 71 -22.5t36 -62.5q0 -13 -4 -24.5t-14 -22.5q43 -49 62.5 -102.5t19.5 -90.5q0 -78 -47.5 -121t-122.5 -43
q-31 0 -60 4t-54 14z" />
    <glyph glyph-name="dv_VocalicL" unicode="&#x90c;" horiz-adv-x="861" 
d="M621 0q0 -25 17.5 -41.5t47.5 -16.5q12 0 29 3t42 10l20 -96q-28 -7 -53.5 -9.5t-47.5 -2.5q-61 0 -110 40.5t-49 112.5q0 58 34.5 96t80.5 51v155q-4 43 -26 68.5t-57 25.5q-38 0 -60.5 -33.5t-22.5 -84.5v-140l-111 15l-1 125q0 51 -21.5 83t-72.5 32q-39 0 -64 -25
t-25 -58q0 -54 25.5 -117t84.5 -182l-98 -34q-57 110 -89.5 186t-32.5 154q0 71 59 125t140 55q44 -1 83 -16t65 -43q25 29 62.5 44t79.5 15q21 0 43.5 -6t38.5 -16v108h-627l-16 97h866l17 -97h-117v-525h-69q-30 0 -47.5 -16.5t-17.5 -41.5z" />
    <glyph glyph-name="dv_CandraE" unicode="&#x90d;" horiz-adv-x="721" 
d="M515 952l84 -52q-40 -80 -102 -110t-131 -30t-130.5 30.5t-101.5 109.5l85 52q24 -51 66.5 -74.5t80.5 -23.5q39 0 79 22t70 76zM495 274v309h-267v-422q0 -25 8.5 -50t35.5 -42l253 -158l-60 -92l-257 152q-51 29 -77 71t-26 109v432h-100l-16 97h728l16 -97h-115v-330
q0 -72 -43.5 -115t-135.5 -73l-52 92q57 20 83 43.5t25 73.5z" />
    <glyph glyph-name="dv_ShortE" unicode="&#x90e;" horiz-adv-x="721" 
d="M285 855h138q75 0 130 -41.5t55 -100.5v-33h109l15 -97h-114v-330q0 -72 -43.5 -115t-136.5 -73l-51 92q57 20 82.5 43.5t25.5 73.5v309h-267v-422q0 -26 8 -50.5t36 -41.5l253 -158q-15 -22 -30 -45.5t-31 -45.5q-54 32 -108.5 64t-108.5 65q-71 37 -106.5 79t-35.5 122
v433h-100l-8 48t-8 49h504v5q0 32 -20 51.5t-54 19.5h-134q-84 0 -135 39.5t-51 100.5v36l110 -17q0 -32 21 -46t55 -14z" />
    <glyph glyph-name="dv_E" unicode="&#x90f;" horiz-adv-x="721" 
d="M495 274v309h-267v-422q0 -25 8.5 -50t35.5 -42l253 -158l-60 -92l-257 152q-51 29 -77 71t-26 109v432h-100l-16 97h728l16 -97h-115v-330q0 -72 -43.5 -115t-135.5 -73l-52 92q57 20 83 43.5t25 73.5z" />
    <glyph glyph-name="dv_Ai" unicode="&#x910;" horiz-adv-x="721" 
d="M495 274v309h-267v-422q0 -25 8.5 -50t35.5 -42l253 -158l-60 -92l-257 152q-51 29 -77 71t-26 109v432h-100l-16 97h464l-227 209l91 70l281 -279h119l16 -97h-115v-330q0 -72 -43.5 -115t-135.5 -73l-52 92q57 20 83 43.5t25 73.5z" />
    <glyph glyph-name="dv_CandraO" unicode="&#x911;" horiz-adv-x="1261" 
d="M1085 951l85 -52q-40 -79 -101.5 -109t-130.5 -30t-131 30.5t-102 108.5l42 26l42 26q25 -51 68 -74t81 -23q34 0 76 21.5t71 75.5zM530 191q0 -88 -67.5 -147t-183.5 -59q-60 0 -117 16t-99 40l22 100q46 -28 92 -42t96 -14q52 0 92.5 26t40.5 78q0 54 -35.5 86
t-128.5 32h-87l-16 88h110q72 0 107 32t35 78q0 37 -28 64.5t-80 27.5q-49 0 -95 -16t-96 -51q-4 25 -8.5 51t-8.5 51q46 31 101 48t118 17q113 0 167.5 -57.5t54.5 -132.5q0 -31 -16.5 -61t-41.5 -50h256v187h-99l-17 97h657l17 -97h-116v-599l-124 16v583h-196v-599
l-122 16v305h-242q28 -19 43 -49.5t15 -64.5z" />
    <glyph glyph-name="dv_ShortO" unicode="&#x912;" horiz-adv-x="1261" 
d="M851 855h113q75 0 129.5 -41.5t54.5 -100.5v-33h107l17 -97h-116v-599l-124 16v583h-196v-599l-122 16v305h-242q28 -19 43 -50.5t15 -65.5q0 -88 -67.5 -146t-183.5 -58q-60 0 -117 16t-99 40l22 100q46 -28 92 -42t96 -14q52 0 92.5 25.5t40.5 76.5q0 54 -35.5 87
t-128.5 33h-87l-16 88h110q72 0 107 31.5t35 77.5q0 36 -28 64.5t-80 28.5q-49 0 -95 -16t-96 -51q-4 25 -8.5 51t-8.5 51q46 31 101 48t118 17q113 0 167.5 -58t54.5 -133q0 -31 -16.5 -60.5t-41.5 -49.5h256v187h-99l-17 97h436v5q0 33 -19 52t-56 19h-107
q-84 0 -135 39.5t-51 100.5v36l111 -17q0 -32 20 -46t54 -14z" />
    <glyph glyph-name="dv_O" unicode="&#x913;" horiz-adv-x="1261" 
d="M598 680h393q-57 51 -113.5 104t-113.5 105l91 70l282 -279h118l17 -97h-116v-599l-124 16v583h-196v-599l-122 16v305h-242q28 -19 43 -49.5t15 -64.5q0 -88 -67.5 -147t-183.5 -59q-60 0 -117 16t-99 40l22 100q46 -28 92 -42t96 -14q52 0 92.5 26t40.5 78
q0 54 -35.5 86t-128.5 32h-87l-16 88h110q72 0 106 33.5t34 79.5q0 34 -26 61.5t-80 27.5q-49 0 -95 -16t-96 -51q-4 25 -8.5 51t-8.5 51q46 31 101 48t118 17q113 0 166.5 -57.5t53.5 -132.5q0 -30 -15.5 -60t-40.5 -51h256v187h-99z" />
    <glyph glyph-name="dv_Au" unicode="&#x914;" horiz-adv-x="1261" 
d="M1138 680h117l17 -97h-116v-599l-124 16v583h-196v-599l-122 16v305h-242q28 -19 43 -49.5t15 -64.5q0 -88 -67.5 -147t-183.5 -59q-60 0 -117 16t-99 40l22 100q46 -28 92 -42t96 -14q52 0 92.5 26t40.5 78q0 54 -35.5 86t-128.5 32h-87l-16 88h110q72 0 107 32t35 78
q0 37 -28 64.5t-80 27.5q-49 0 -95 -16t-96 -51q-4 25 -8.5 51t-8.5 51q46 31 101 48t118 17q113 0 167.5 -57.5t54.5 -132.5q0 -31 -16.5 -61t-41.5 -50h256v187h-99l-17 97h426q-46 46 -73.5 60t-78.5 14h-96l-24 105h115q37 0 69 -6.5t64 -31.5l-54 163l113 33
q20 -84 39.5 -168.5t39.5 -168.5z" />
    <glyph glyph-name="dv_Ka" unicode="&#x915;" horiz-adv-x="905" 
d="M274 70q-101 0 -165.5 61t-64.5 154q0 91 63 153t167 62q32 0 68 -13.5t52 -31.5v128h-389l-16 97h912l15 -97h-399v-127q16 16 51 30.5t69 14.5q104 0 167.5 -62.5t63.5 -153.5q0 -101 -73 -158t-164 -57l-20 101q59 0 98 32t39 83q0 49 -32.5 81t-76.5 32
q-51 0 -79 -23t-43 -45v-347l-123 16v115q-16 -18 -52 -31.5t-68 -13.5zM162 284q0 -49 35.5 -81t80.5 -32q43 0 71.5 21t44.5 43v99q-16 23 -44.5 43.5t-71.5 20.5q-44 0 -79.5 -31.5t-36.5 -82.5z" />
    <glyph glyph-name="dv_Kha" unicode="&#x916;" horiz-adv-x="944" 
d="M426 328q0 81 57 136.5t150 55.5q22 0 43.5 -4.5t39.5 -13.5v81h-369q13 -27 20 -59t7 -60q0 -70 -40.5 -126.5t-105.5 -80.5q13 -53 70 -113t158 -60q51 0 95.5 19.5t72.5 47.5q-7 -1 -14.5 -1.5t-14.5 -0.5q-73 0 -121 54t-48 125zM551 329q0 -43 25 -65.5t57 -22.5
q33 0 57.5 23t24.5 64v2q-1 41 -26 64t-56 23q-32 0 -57 -23.5t-25 -64.5zM839 -16l-123 16v76q-49 -43 -117 -68t-143 -25q-153 0 -240 83.5t-105 176.5q-31 0 -54 6t-27 33q0 43 38.5 87.5t84.5 44.5q16 0 26.5 -19.5t17.5 -38.5q25 12 44 41.5t19 66.5q0 34 -12 67
t-32 52h-211l-8 48t-8 49h951l15 -97h-116v-599z" />
    <glyph glyph-name="dv_Ga" unicode="&#x917;" horiz-adv-x="677" 
d="M448 0v583h-199v-367q0 -31 -12.5 -49t-37.5 -18q-53 0 -97.5 46t-44.5 87q0 22 22 34.5t47 12.5v254h-121l-8 48t-8 49h682l16 -97h-116v-599z" />
    <glyph glyph-name="dv_Gha" unicode="&#x918;" horiz-adv-x="711" 
d="M483 0v154q-32 -31 -83 -56t-114 -25q-101 0 -160.5 53.5t-59.5 137.5q0 45 17.5 82t50.5 57q-26 20 -41.5 54.5t-15.5 71.5q0 11 4 26t10 28h-86l-16 97h716l17 -97h-116v-599zM188 262q0 -37 29 -59t72 -22q74 0 129 51t65 150v201h-259q-15 -7 -22.5 -23t-7.5 -33
q0 -34 26 -57t75 -23h46l20 -94h-59q-59 0 -86.5 -27t-27.5 -64z" />
    <glyph glyph-name="dv_Nga" unicode="&#x919;" horiz-adv-x="645" 
d="M575 291q-30 0 -50.5 21t-20.5 50q0 30 20.5 51t50.5 21q31 0 52 -21t21 -51q0 -29 -21 -50t-52 -21zM76 137q46 -29 93 -41t98 -12q52 0 77.5 20.5t25.5 48.5q0 26 -17.5 48t-56.5 22h-80q-63 0 -116.5 40.5t-53.5 108.5q0 72 48.5 110.5t119.5 38.5h119v62h-328l-8 48
t-8 49h651q4 -25 8 -49l8 -48h-211v-164h-227q-24 0 -40 -15t-16 -32q0 -28 25.5 -38t59.5 -10h39q96 0 156.5 -38.5t60.5 -128.5q0 -67 -59.5 -120t-170.5 -53q-59 0 -118.5 14.5t-99.5 38.5z" />
    <glyph glyph-name="dv_Ca" unicode="&#x91a;" horiz-adv-x="720" 
d="M493 0v105q-25 -13 -60.5 -21t-68.5 -8q-96 0 -165 51t-69 149q0 29 8 53.5t21 44.5h-108l-15 97h356l16 -97h-37q-65 -1 -96.5 -27t-31.5 -71q0 -46 35 -72t86 -26q43 0 81 23t48 60v322h-488l-16 97h726l16 -97h-116v-599z" />
    <glyph glyph-name="dv_Cha" unicode="&#x91b;" horiz-adv-x="823" 
d="M773 382q0 -122 -108.5 -259.5t-311.5 -137.5q-126 0 -203.5 55t-77.5 151q0 51 31.5 98t90.5 60q-55 19 -81.5 66.5t-26.5 91.5q0 21 5 40.5t14 35.5h-100l-8 48t-8 49h829l16 -97h-158v-50q48 -20 72.5 -62.5t24.5 -88.5zM197 195q0 -53 48.5 -81.5t114.5 -28.5
q85 0 147.5 40.5t90.5 92.5q-57 11 -100 55.5t-43 108.5q0 59 33 103.5t86 55.5v42h-315q-23 -12 -35.5 -32t-12.5 -45q0 -46 35 -77.5t107 -31.5h22q4 -22 8 -44.5t8 -44.5h-30q-84 0 -124 -29.5t-40 -83.5zM649 300q9 15 14.5 35t5.5 41q0 28 -13 50.5t-45 22.5
q-25 0 -39.5 -19.5t-14.5 -47.5q0 -36 29 -58.5t63 -23.5z" />
    <glyph glyph-name="dv_Ja" unicode="&#x91c;" horiz-adv-x="799" 
d="M572 369h-135q10 -19 17 -43t7 -52q0 -112 -73.5 -163t-163.5 -51q-61 0 -116 20.5t-93 45.5l22 110q45 -34 92 -54t91 -21q57 0 90.5 31.5t33.5 76.5q0 43 -26 71.5t-83 28.5h-60l-16 97h413v117h-567l-8 48t-8 49h805l17 -97h-118v-599l-121 16v369z" />
    <glyph glyph-name="dv_Jha" unicode="&#x91d;" horiz-adv-x="881" 
d="M653 583h-201v-164h-231q-25 0 -40 -14t-15 -33t16 -33.5t41 -14.5h81q54 0 96.5 -13.5t70.5 -41.5h182v314zM221 89q13 -2 27.5 -3.5t30.5 -1.5q53 0 80 22.5t27 50.5t-18.5 47t-55.5 19h-93q-63 0 -116 40.5t-53 108.5q0 72 48.5 110.5t119.5 38.5h113v62h-326l-8 48
t-8 49h887l17 -97h-117v-599l-123 16v178h-145q1 -5 2 -10.5t1 -10.5q0 -59 -46 -106.5t-129 -60.5q-16 -2 -33 -3l-34 -2l77 -96q-20 -14 -40.5 -28.5t-40.5 -29.5l-126 167q-30 14 -60 43t-30 70q0 25 17.5 41t43.5 16q38 0 68.5 -23.5t42.5 -55.5z" />
    <glyph glyph-name="dv_Nya" unicode="&#x91e;" horiz-adv-x="789" 
d="M37 247q36 -33 84 -53.5t99 -20.5t84 32t33 86q0 53 -32.5 85t-83.5 32q-22 0 -51 -4t-57 -12l-27 95q37 13 72 18t66 5q84 0 145 -43.5t76 -130.5h116v247h-556l-16 97h796l15 -97h-117v-599l-122 16v238h-117q-15 -83 -75.5 -125t-144.5 -42q-61 0 -115.5 20.5
t-93.5 46.5z" />
    <glyph glyph-name="dv_Tta" unicode="&#x91f;" horiz-adv-x="644" 
d="M170 237q0 -87 61.5 -119t133.5 -32q47 0 98.5 12.5t105.5 52.5l16 -112q-43 -28 -102 -42.5t-118 -14.5q-117 0 -213 57.5t-96 197.5q0 127 95.5 191.5t224.5 64.5h16v90h-387l-8 48t-8 49h650l15 -97h-139v-192h-139q-87 0 -146.5 -41.5t-59.5 -112.5z" />
    <glyph glyph-name="dv_Ttha" unicode="&#x920;" horiz-adv-x="716" 
d="M360 -18q-116 1 -210 57.5t-94 196.5q0 110 69.5 173t173.5 78v96h-294l-16 97h722l17 -97h-306v-97q99 -13 171.5 -70t72.5 -178q0 -128 -90.5 -191.5t-215.5 -64.5zM551 238q0 87 -59 118t-132 31q-83 0 -136.5 -39.5t-53.5 -111.5q0 -87 59 -118.5t131 -31.5
q84 0 137.5 40t53.5 112z" />
    <glyph glyph-name="dv_Dda" unicode="&#x921;" horiz-adv-x="537" 
d="M76 137q46 -29 93 -41t98 -12q53 0 82 22.5t29 50.5t-18 47t-55 19h-89q-63 0 -116.5 40.5t-53.5 108.5q0 72 48.5 110.5t119.5 38.5h119v62h-328l-8 48t-8 49h542l17 -97h-103v-164h-227q-24 0 -40 -15t-16 -32q0 -19 16 -33.5t41 -14.5h77q91 0 149 -40t58 -127
q0 -67 -59.5 -120t-170.5 -53q-59 0 -118.5 14.5t-99.5 38.5z" />
    <glyph glyph-name="dv_Ddha" unicode="&#x922;" horiz-adv-x="635" 
d="M515 583v-69q0 -28 0.5 -56t0.5 -56h-140q-87 0 -146.5 -41.5t-59.5 -116.5q0 -68 41 -107.5t92 -50.5q-13 12 -19 32.5t-6 37.5q0 63 44.5 108.5t110.5 45.5q69 0 113.5 -40t44.5 -107q0 -76 -63.5 -128.5t-164.5 -52.5q-107 0 -207 57.5t-100 203.5q0 126 95.5 194
t224.5 68h16v78h-387l-8 48t-8 49h642l16 -97h-132zM438 208q-22 0 -38 -13.5t-16 -40.5q0 -19 9 -36.5t26 -29.5q33 6 51.5 28.5t18.5 44.5q0 21 -14 34t-37 13z" />
    <glyph glyph-name="dv_Nna" unicode="&#x923;" horiz-adv-x="927" 
d="M523 361q0 -103 -61.5 -159.5t-154.5 -56.5q-92 1 -154 57t-62 159v222h-86l-8 48t-8 49h933q4 -25 8 -49l8 -48h-117v-599l-123 16v583h-175v-222zM214 583v-222q0 -52 24 -82.5t70 -30.5q44 0 68 30.5t24 82.5v222h-186z" />
    <glyph glyph-name="dv_Ta" unicode="&#x924;" horiz-adv-x="687" 
d="M460 0v368h-178q-51 0 -77 -19t-26 -56q0 -46 42 -117.5t102 -163.5l-110 -33q-51 73 -103 159.5t-52 158.5t48 121t135 49h219v116h-455l-16 97h694l15 -97h-115v-599z" />
    <glyph glyph-name="dv_Tha" unicode="&#x925;" horiz-adv-x="703" 
d="M240 516q-6 -17 -29.5 -29.5t-51.5 -12.5q-45 0 -79.5 27.5t-34.5 75.5q0 52 38 86t98 34q65 0 113 -50.5t48 -125.5q0 -86 -38 -126.5t-81 -65.5q13 -25 44 -47t80 -22q46 0 82 24.5t44 67.5q1 13 1.5 26t0.5 27v178h-82l-8 48t-8 49h321q4 -25 8 -49l8 -48h-116v-599
l-123 16v192q-24 -15 -54.5 -25t-77.5 -10q-92 0 -166.5 61.5t-74.5 141.5q6 8 12 15.5t12 14.5q47 15 77.5 46.5t36.5 79.5zM204 591q-4 8 -13.5 16.5t-20.5 8.5q-15 0 -26 -9.5t-11 -25.5q0 -13 9.5 -21.5t20.5 -8.5q19 0 29.5 11.5t11.5 28.5z" />
    <glyph glyph-name="dv_Da" unicode="&#x926;" horiz-adv-x="620" 
d="M578 -3l-97 -40l-32 60t-32 59q-23 -4 -44.5 -6.5t-37.5 -2.5q-124 0 -205 57.5t-81 174.5q0 116 85.5 170.5t211.5 54.5h14v59h-355l-8 48t-8 49h626l15 -97h-147v-158h-101q-93 0 -156 -27t-63 -99q0 -62 49.5 -95t122.5 -33q8 0 18 0.5t21 1.5q-1 5 -1.5 11t-0.5 11
q0 33 20.5 46t52.5 13q26 0 61.5 -19.5t35.5 -53.5q0 -16 -8.5 -35t-23.5 -35q16 -28 34 -58t34 -56z" />
    <glyph glyph-name="dv_Dha" unicode="&#x927;" horiz-adv-x="754" 
d="M262 587q-24 0 -46 -18t-22 -45q0 -34 26.5 -56t75.5 -22h33q7 -23 16 -46.5t17 -46.5h-60q-58 0 -88 -25t-30 -66q0 -38 35 -61.5t92 -23.5q79 0 144.5 58t69.5 165q0 14 0.5 28.5t0.5 29.5v125h-86l-16 97h325l16 -97h-116v-599l-123 16v157q-31 -33 -84.5 -61
t-132.5 -28q-125 0 -186 58t-61 138q0 44 23.5 84t57.5 55q-28 16 -47 52.5t-19 73.5q0 64 49.5 114.5t131.5 50.5q48 0 80.5 -17.5t50.5 -36.5l-57 -79q-16 15 -33 20.5t-37 5.5z" />
    <glyph glyph-name="dv_Na" unicode="&#x928;" horiz-adv-x="648" 
d="M420 285h-209q0 -30 -13 -54t-32 -24q-43 0 -88.5 36.5t-45.5 85.5q0 25 17 38.5t46 13.5h325v202h-415l-8 48t-8 49h655l15 -97h-116v-599l-123 16v285z" />
    <glyph glyph-name="dv_Nnna" unicode="&#x929;" horiz-adv-x="648" 
d="M420 285h-209q0 -30 -13 -54t-32 -24q-43 0 -88.5 36.5t-45.5 85.5q0 25 17 38.5t46 13.5h325v202h-415l-8 48t-8 49h655l15 -97h-116v-599l-123 16v285zM175 -63q-30 0 -50.5 21t-20.5 50t20.5 50t50.5 21t51 -21t21 -50t-21 -50t-51 -21z" />
    <glyph glyph-name="dv_Pa" unicode="&#x92a;" horiz-adv-x="672" 
d="M444 0v192q-23 -15 -59 -24.5t-69 -9.5q-99 0 -167 58t-68 161v206h-76l-16 97h678l16 -97h-116v-599zM205 377q0 -54 29.5 -85t86.5 -31q49 0 83.5 27t39.5 76v219h-239v-206z" />
    <glyph glyph-name="dv_Pha" unicode="&#x92b;" horiz-adv-x="954" 
d="M444 363v220h-240v-206q0 -54 30 -85.5t87 -31.5q49 0 83 27.5t40 75.5zM660 167q60 0 99 32t39 82t-32.5 81.5t-76.5 31.5q-51 0 -78.5 -22.5t-43.5 -44.5v-343l-123 16v192q-24 -15 -59.5 -25t-68.5 -10q-99 0 -167 58.5t-68 161.5v206h-76l-8 48t-8 49h961
q4 -25 8 -49l8 -48h-399v-127q21 16 54.5 28t64.5 12q104 0 167.5 -62t63.5 -154q0 -100 -73 -157.5t-164 -57.5z" />
    <glyph glyph-name="dv_Ba" unicode="&#x92c;" horiz-adv-x="630" 
d="M398 0v108q-22 -17 -55 -28.5t-65 -11.5q-101 0 -168 61.5t-67 154.5q0 92 65.5 155t169.5 63q32 0 65 -11.5t55 -27.5v120h-393l-8 48t-8 49h632l16 -97h-116v-599zM398 333q-16 23 -44.5 46t-78.5 23q-11 0 -21.5 -2.5t-20.5 -8.5l152 -172q4 4 7 9t6 9v96zM185 355
q-10 -14 -16.5 -31.5t-6.5 -38.5q0 -50 33.5 -83t79.5 -33q19 0 35.5 3t28.5 9z" />
    <glyph glyph-name="dv_Bha" unicode="&#x92d;" horiz-adv-x="770" 
d="M139 570q0 -17 12 -26t26 -9q10 0 21 5t16 12q0 23 -11 38.5t-28 15.5q-16 0 -26 -10.5t-10 -25.5zM542 0v227h-215q0 -37 -17.5 -57.5t-31.5 -20.5q-50 0 -94.5 34.5t-44.5 85.5q0 21 22.5 38t49.5 15l-2 133q-9 -4 -19 -4.5t-17 -0.5q-57 0 -94 36t-37 90t40.5 87.5
t93.5 33.5q71 0 111.5 -47.5t40.5 -125.5v-202h214v261h-102q-4 24 -8.5 48t-8.5 49h342l16 -97h-116v-599z" />
    <glyph glyph-name="dv_Ma" unicode="&#x92e;" horiz-adv-x="681" 
d="M453 227h-220q0 -25 -9.5 -51.5t-41.5 -26.5q-50 0 -94 34.5t-44 85.5q0 21 18 37t52 16v261h-109l-8 48t-8 49h687q4 -25 8 -49l8 -48h-116v-599l-123 16v227zM453 583h-220v-261h220v261z" />
    <glyph glyph-name="dv_Ya" unicode="&#x92f;" horiz-adv-x="654" 
d="M54 360q17 19 52 46t35 92q0 30 -16 53t-40 32h-80l-8 48t-8 49h661l15 -97h-116v-599l-123 16v191q-23 -14 -54.5 -24t-78.5 -10q-91 0 -165 61.5t-74 141.5zM426 583h-199q10 -16 17 -40.5t7 -50.5q0 -46 -19.5 -87t-60.5 -69q12 -25 43 -50.5t83 -25.5q50 0 87 28
t42 77v218z" />
    <glyph glyph-name="dv_Ra" unicode="&#x930;" horiz-adv-x="458" 
d="M276 -20q-38 65 -75.5 131t-75.5 132q-34 0 -59 5.5t-29 33.5q0 43 35.5 87.5t79.5 44.5q15 0 28.5 -21t19.5 -39q32 15 50 45.5t18 66.5q0 35 -12 66.5t-32 50.5h-219l-8 48t-8 49h464l16 -97h-113q13 -27 20 -59t7 -60q0 -70 -40.5 -127t-106.5 -80l156 -248
q-29 -7 -58 -14.5t-58 -14.5z" />
    <glyph glyph-name="dv_Rra" unicode="&#x931;" horiz-adv-x="458" 
d="M276 -20q-38 65 -75.5 131t-75.5 132q-34 0 -59 5.5t-29 33.5q0 43 35.5 87.5t79.5 44.5q15 0 28.5 -21t19.5 -39q32 15 50 45.5t18 66.5q0 35 -12 66.5t-32 50.5h-219l-8 48t-8 49h464l16 -97h-113q13 -27 20 -59t7 -60q0 -70 -40.5 -127t-106.5 -80l156 -248
q-29 -7 -58 -14.5t-58 -14.5zM86 -63q-30 0 -50.5 21t-20.5 50t20.5 50t50.5 21t51 -21t21 -50t-21 -50t-51 -21z" />
    <glyph glyph-name="dv_La" unicode="&#x932;" horiz-adv-x="861" 
d="M632 0v302q-4 43 -26 68.5t-57 25.5q-38 0 -60.5 -33.5t-22.5 -84.5v-140l-111 15l-1 125q0 51 -21.5 83t-72.5 32q-39 0 -64 -25t-25 -58q0 -54 25.5 -117t84.5 -182l-98 -34q-57 110 -89.5 186t-32.5 154q0 71 59 125t140 55q44 -1 83 -16t65 -43q25 29 62.5 44
t79.5 15q21 0 43.5 -6t38.5 -16v108h-627l-16 97h866l17 -97h-117v-599z" />
    <glyph glyph-name="dv_Lla" unicode="&#x933;" horiz-adv-x="911" 
d="M766 283q0 50 -34 87t-91 37q-52 0 -84.5 -48.5t-48.5 -101.5l-7 -23q22 -40 60.5 -65.5t79.5 -25.5q55 0 90 41.5t35 98.5zM153 265q0 -50 34.5 -86.5t90.5 -36.5q52 0 86.5 48.5t50.5 99.5q0 2 2.5 11.5t3.5 11.5q-22 40 -60 64.5t-83 25.5q-56 0 -90.5 -41.5
t-34.5 -96.5zM276 505q57 0 106.5 -25t86.5 -68q19 28 47 51t64 34v86h-575l-16 97h918l15 -97h-219v-83q76 -17 124 -76t48 -143q0 -99 -66.5 -168.5t-165.5 -69.5q-57 0 -105.5 24.5t-85.5 69.5q-29 -40 -73 -68t-101 -28q-102 0 -167.5 62.5t-65.5 163.5q0 99 65 168.5
t166 69.5z" />
    <glyph glyph-name="dv_Llla" unicode="&#x934;" horiz-adv-x="911" 
d="M766 283q0 50 -34 87t-91 37q-52 0 -84.5 -48.5t-48.5 -101.5l-7 -23q22 -40 60.5 -65.5t79.5 -25.5q55 0 90 41.5t35 98.5zM153 265q0 -50 34.5 -86.5t90.5 -36.5q52 0 86.5 48.5t50.5 99.5q0 2 2.5 11.5t3.5 11.5q-22 40 -60 64.5t-83 25.5q-56 0 -90.5 -41.5
t-34.5 -96.5zM276 505q57 0 106.5 -25t86.5 -68q19 28 47 51t64 34v86h-575l-16 97h918l15 -97h-219v-83q76 -17 124 -76t48 -143q0 -99 -66.5 -168.5t-165.5 -69.5q-57 0 -105.5 24.5t-85.5 69.5q-29 -40 -73 -68t-101 -28q-102 0 -167.5 62.5t-65.5 163.5q0 99 65 168.5
t166 69.5zM453 -139q-31 0 -51.5 20.5t-20.5 50.5q0 29 20.5 50.5t51.5 21.5q30 0 50.5 -21.5t20.5 -50.5q0 -30 -20.5 -50.5t-50.5 -20.5z" />
    <glyph glyph-name="dv_Va" unicode="&#x935;" horiz-adv-x="622" 
d="M274 70q-101 0 -165.5 61t-64.5 154q0 91 63 153t167 62q32 0 68 -13.5t52 -31.5v128h-389l-16 97h628l16 -97h-116v-599l-123 16v115q-16 -18 -52 -31.5t-68 -13.5zM162 284q0 -49 35.5 -81t80.5 -32q43 0 71.5 21t44.5 43v99q-16 23 -44.5 43.5t-71.5 20.5
q-44 0 -79.5 -31.5t-36.5 -82.5z" />
    <glyph glyph-name="dv_Sha" unicode="&#x936;" horiz-adv-x="801" 
d="M572 0v583h-99l-15 97h338l16 -97h-117v-599zM145 574q0 -15 11.5 -23t24.5 -8q29 0 45 19.5t17 33.5q-10 10 -24 15t-30 5q-19 -2 -31.5 -13.5t-12.5 -28.5zM140 235h-36q-20 0 -34.5 10.5t-17.5 28.5q0 43 35.5 87.5t80.5 44.5q16 0 29 -23t20 -42q40 10 65 43t25 73
q0 18 -4 39.5t-14 34.5q-11 -30 -45 -48.5t-72 -18.5q-51 0 -87.5 28.5t-36.5 79.5q0 54 43.5 89.5t107.5 35.5q106 0 164.5 -71.5t58.5 -165.5q0 -78 -51 -132t-120 -79q41 -60 82.5 -120t83.5 -120q-29 -7 -58.5 -14.5t-58.5 -14.5z" />
    <glyph glyph-name="dv_Ssa" unicode="&#x937;" horiz-adv-x="673" 
d="M445 0v192q-23 -15 -59.5 -25t-69.5 -10q-99 0 -167 58.5t-68 161.5v206h-76l-8 48t-8 49h679q4 -25 8 -49l8 -48h-116v-599zM445 373v210h-186l185 -221q1 3 1 5.5v5.5zM204 377q0 -54 30 -85.5t87 -31.5q28 0 52.5 9.5t40.5 25.5q-49 61 -105 129.5t-105 127.5v-175z
" />
    <glyph glyph-name="dv_Sa" unicode="&#x938;" horiz-adv-x="801" 
d="M573 583h-217q13 -27 20 -59t7 -60t-5.5 -52t-18.5 -46h214v217zM276 -20q-38 65 -75.5 131t-75.5 132q-34 0 -59 5.5t-29 33.5q0 43 35.5 87.5t79.5 44.5q15 0 28.5 -21t19.5 -39q32 15 50 45.5t18 66.5q0 35 -12 66.5t-32 50.5h-219l-8 48t-8 49h808q4 -25 8 -49l8 -48
h-117v-599l-123 16v274h-299q-9 -5 -18.5 -9.5t-19.5 -7.5l156 -248q-29 -7 -58 -14.5t-58 -14.5z" />
    <glyph glyph-name="dv_Ha" unicode="&#x939;" horiz-adv-x="551" 
d="M386 238q0 25 -27 43.5t-72 18.5q-46 0 -74 -26.5t-28 -64.5q0 -62 65.5 -91.5t134.5 -34.5l-26 -99q-115 6 -200.5 64t-85.5 161q0 35 11 66t33 55q-19 16 -28.5 38.5t-9.5 53.5q0 63 44 94.5t107 31.5h87v35h-313l-15 97h556l17 -97h-113v-128h-206q-23 0 -34 -8.5
t-11 -23.5q0 -10 5.5 -18.5t15.5 -12.5q16 4 33.5 7t36.5 3q98 0 154 -47.5t56 -112.5q0 -35 -15 -70t-49 -57l-86 59q20 15 28.5 30t8.5 34z" />
    <glyph glyph-name="dv_MatraOe" unicode="&#x93a;" horiz-adv-x="0" 
d="M-36 886v-206h-118v222z" />
    <glyph glyph-name="dv_MatraOoe" unicode="&#x93b;" 
d="M224 886v-206h102q4 -25 8.5 -49t8.5 -48h-116v-599l-124 16v583h-98l-8 48t-8 49h117v222z" />
    <glyph glyph-name="dv_Nukta" unicode="&#x93c;" horiz-adv-x="0" 
d="M88 -195q-30 0 -50.5 20.5t-20.5 50.5t20.5 51t50.5 21q31 0 51.5 -21t20.5 -51t-20.5 -50.5t-51.5 -20.5z" />
    <glyph glyph-name="dv_Avagraha" unicode="&#x93d;" horiz-adv-x="561" 
d="M94 150q42 -29 88 -46t90 -17q48 0 78.5 23t30.5 63q0 51 -49 122t-100 129l-153 173v83h402l20 -96h-269l73 -86q56 -67 122.5 -156t66.5 -169q0 -81 -59 -136t-171 -55q-43 0 -107.5 16.5t-116.5 51.5z" />
    <glyph glyph-name="dv_MatraAa" unicode="&#x93e;" 
d="M103 0v583h-98l-16 97h337l18 -97h-117v-599z" />
    <glyph glyph-name="dv_MatraI" unicode="&#x93f;" 
d="M741 701q-86 54 -208.5 100.5t-221.5 46.5q-62 0 -94.5 -28t-32.5 -64q0 -31 10.5 -50t16.5 -26h115l18 -97h-117v-599l-124 16v583h-98l-16 97h99q-7 10 -14 31t-7 54q0 79 61.5 131t167.5 52q128 0 276 -61.5t215 -109.5z" />
    <glyph glyph-name="dv_MatraIi" unicode="&#x940;" 
d="M-77 746q-28 -7 -56.5 -13.5t-56.5 -12.5q-12 16 -19.5 38.5t-7.5 52.5q0 57 44 97t113 40q102 0 170.5 -91.5t99.5 -176.5h115q4 -25 8.5 -49t8.5 -48h-116v-599l-124 16v583h-98l-8 48t-8 49h98q-16 47 -52 107t-90 60q-22 0 -32.5 -14.5t-10.5 -29.5q0 -16 6 -29.5
t16 -27.5z" />
    <glyph glyph-name="dv_MatraU" unicode="&#x941;" horiz-adv-x="0" 
d="M-344 -95q52 -62 94.5 -98.5t91.5 -36.5q31 0 47.5 16t16.5 41t-17.5 41.5t-46.5 16.5h-69v97h78q59 0 108.5 -41t49.5 -114q0 -72 -50 -113t-119 -41q-71 0 -138 49t-120 133z" />
    <glyph glyph-name="dv_MatraUu" unicode="&#x942;" horiz-adv-x="0" 
d="M17 -251q-53 63 -95 99.5t-91 36.5q-31 0 -47 -16t-16 -41t17 -41.5t46 -16.5h69v-97h-78q-59 0 -108.5 41.5t-49.5 113.5t50 113t119 41q71 0 138.5 -49t119.5 -133z" />
    <glyph glyph-name="dv_MatraVocalicR" unicode="&#x943;" horiz-adv-x="0" 
d="M-238 -172q0 -25 17.5 -41.5t47.5 -16.5q12 0 29.5 3t41.5 10l20 -95q-28 -9 -53.5 -11.5t-47.5 -2.5q-61 0 -109.5 41t-48.5 113t50.5 113t107.5 41h79v-97h-69q-30 0 -47.5 -17t-17.5 -40z" />
    <glyph glyph-name="dv_MatraVocalicRr" unicode="&#x944;" horiz-adv-x="0" 
d="M-243 -166q-11 9 -19 23t-8 29q0 54 36 75t76 21h54v-75h-37q-13 0 -24.5 -5t-11.5 -16q0 -8 11.5 -12.5t24.5 -4.5h32l-22 -71q-21 0 -36 -4.5t-15 -14.5t10 -14.5t31 -4.5h35l-23 -75h-29q-40 0 -76 21.5t-36 72.5q0 16 8.5 30.5t18.5 24.5z" />
    <glyph glyph-name="dv_MatraCandraE" unicode="&#x945;" horiz-adv-x="0" 
d="M397 952l85 -52q-40 -80 -102 -110t-131 -30t-130.5 30.5t-101.5 109.5l85 52q24 -51 66.5 -74.5t80.5 -23.5q39 0 79 22t69 76z" />
    <glyph glyph-name="dv_MatraShortE" unicode="&#x946;" horiz-adv-x="0" 
d="M-397 915q0 -41 32 -50.5t78 -9.5q70 -1 126.5 -37.5t57.5 -90.5l1 -100h-115v58q0 45 -27 58t-77 13q-94 0 -140 44t-46 111v21z" />
    <glyph glyph-name="dv_MatraE" unicode="&#x947;" horiz-adv-x="0" 
d="M-52 620h-141l-291 269l90 70z" />
    <glyph glyph-name="dv_MatraAi" unicode="&#x948;" horiz-adv-x="0" 
d="M-118 674h-109q-49 49 -76.5 64.5t-81.5 15.5h-96l-24 105h115q37 0 68 -5.5t64 -32.5q-13 40 -26.5 81.5t-26.5 81.5l112 33q21 -86 41 -172t40 -171z" />
    <glyph glyph-name="dv_MatraCandraO" unicode="&#x949;" 
d="M315 952l83 -52q-40 -80 -102 -110t-130 -30q-69 0 -130.5 30.5t-101.5 109.5l84 52q25 -51 67.5 -74.5t80.5 -23.5q39 0 79 22t70 76zM103 0v583h-98l-16 97h337l18 -97h-117v-599z" />
    <glyph glyph-name="dv_MatraShortO" unicode="&#x94a;" 
d="M-82 915q0 -32 20.5 -46t54.5 -14q15 0 29.5 -0.5t29.5 -1.5q70 -4 120.5 -43.5t50.5 -96.5v-33h103q4 -25 8.5 -49t8.5 -48h-116v-599l-124 16v583h-98l-8 48t-8 49h119v5q0 46 -29.5 58.5t-83.5 12.5q-84 0 -135 39.5t-51 100.5v36z" />
    <glyph glyph-name="dv_MatraO" unicode="&#x94b;" 
d="M-11 680h80l-226 209q23 17 46 34.5t45 35.5l281 -279h111q4 -25 8.5 -49t8.5 -48h-116v-599l-124 16v583h-98l-8 48t-8 49z" />
    <glyph glyph-name="dv_MatraAu" unicode="&#x94c;" 
d="M217 680h109q4 -25 8.5 -49t8.5 -48h-116v-599l-124 16v583h-98l-8 48t-8 49h116q-49 45 -75.5 59.5t-76.5 14.5h-97l-22 105h91q43 0 80 -5t74 -33q-13 40 -26.5 81.5t-26.5 81.5l113 33z" />
    <glyph glyph-name="dv_Halant" unicode="&#x94d;" horiz-adv-x="0" 
d="M-76 -348l-227 203l86 78l214 -217z" />
    <glyph glyph-name="dv_PrishtaMatraE" unicode="&#x94e;" horiz-adv-x="330" 
d="M103 0v680h222l17 -97h-117v-599z" />
    <glyph glyph-name="dv_MatraAw" unicode="&#x94f;" 
d="M-34 803h62h29t27 -1q-13 8 -27 16.5t-30 15.5q-37 14 -54.5 44.5t-17.5 73.5v31l98 -18q0 -34 16.5 -59t44.5 -32q56 -15 81.5 -54.5t25.5 -96.5v-43h105l18 -97h-117v-599l-124 16v583h-98l-16 97h125q-4 19 -13.5 27t-31.5 8h-98q-81 0 -131 41.5t-50 107.5v30l97 -18
q0 -34 21 -53.5t58 -19.5z" />
    <glyph glyph-name="dv_Om" unicode="&#x950;" horiz-adv-x="882" 
d="M642 806q-30 0 -50.5 21t-20.5 51t20.5 51t50.5 21t51 -21t21 -51t-21 -51t-51 -21zM790 857l85 -53q-40 -78 -102 -109t-131 -31t-130.5 31t-101.5 109l85 53q24 -51 66.5 -75t80.5 -24q39 0 79 22.5t69 76.5zM294 697q113 0 167.5 -57.5t54.5 -132.5q0 -45 -26.5 -93
t-81.5 -66q18 -4 33 -11t27 -17q26 24 69.5 46t98.5 22q103 0 159 -57t56 -147q0 -100 -66.5 -152t-157.5 -52q-6 25 -11.5 50t-10.5 50q60 0 94 29t34 75t-28 74.5t-72 28.5q-40 0 -66.5 -16.5t-42.5 -36.5q3 -10 4.5 -21.5t1.5 -21.5q0 -88 -67.5 -147t-183.5 -59
q-60 0 -118 16.5t-98 39.5l22 100q46 -28 92 -42t96 -14q52 0 92.5 26t40.5 78q0 54 -35.5 86t-128.5 32h-87l-16 88h110q72 0 107 32t35 78q0 37 -28 64.5t-80 27.5q-49 0 -95 -16t-96 -51q-4 25 -8.5 51t-8.5 51q46 31 101 48t118 17z" />
    <glyph glyph-name="dv_Udatta" unicode="&#x951;" horiz-adv-x="0" 
d="M117 748h-87l-13 201h114z" />
    <glyph glyph-name="dv_Anudatta" unicode="&#x952;" horiz-adv-x="0" 
d="M567 -171h-534l-16 96h535z" />
    <glyph glyph-name="dv_Graveaccent" unicode="&#x953;" horiz-adv-x="0" 
d="M218 748h-77l-124 201h117z" />
    <glyph glyph-name="dv_Acuteaccent" unicode="&#x954;" horiz-adv-x="0" 
d="M218 949l-125 -202h-76q21 51 42.5 101.5t42.5 100.5h116z" />
    <glyph glyph-name="dv_MatraCandraLongE" unicode="&#x955;" horiz-adv-x="0" 
d="M398 1041l84 -48q-40 -78 -101.5 -106.5t-130.5 -28.5t-130.5 28.5t-101.5 106.5l84 48q25 -50 67.5 -71.5t80.5 -21.5q35 0 77 19.5t71 73.5zM493 742h-454q-4 22 -8 42.5t-8 42.5h454q4 -22 8 -42.5t8 -42.5z" />
    <glyph glyph-name="dv_MatraUe" unicode="&#x956;" horiz-adv-x="0" 
d="M397 -49l85 -51q-40 -79 -102 -109.5t-131 -30.5t-130.5 30.5t-101.5 109.5l85 51q24 -51 66.5 -74.5t80.5 -23.5q39 0 79 22.5t69 75.5z" />
    <glyph glyph-name="dv_MatraUue" unicode="&#x957;" horiz-adv-x="0" 
d="M452 -47l84 -49q-44 -77 -109.5 -100.5t-111.5 -23.5t-111 24t-108 100l84 49q19 -49 59 -67.5t76 -18.5q33 0 72.5 16.5t64.5 69.5zM525 -162l83 -52q-49 -75 -130.5 -104t-162.5 -29q-78 0 -162.5 29.5t-135.5 102.5l83 52q34 -43 93 -67.5t122 -24.5t118 22t92 71z
" />
    <glyph glyph-name="dv_Qa" unicode="&#x958;" horiz-adv-x="905" 
d="M273 399q-43 0 -77 -32t-34 -82q0 -49 33.5 -81.5t77.5 -32.5q55 0 80 22.5t41 46.5v90q-16 23 -41 46t-80 23zM610 171q60 0 99 32t39 82t-32.5 82t-76.5 32q-51 0 -79 -23t-43 -45v-347l-123 16v110q-21 -16 -55 -28.5t-66 -12.5q-101 0 -165.5 61t-64.5 154
q0 92 63.5 154.5t166.5 62.5q32 0 66 -12.5t55 -28.5v123h-389l-8 48t-8 49h912l15 -97h-399v-124q20 17 53.5 29.5t65.5 12.5q104 0 167.5 -62.5t63.5 -154.5q0 -100 -72.5 -157.5t-163.5 -57.5zM176 -138q-31 0 -51.5 20.5t-20.5 50.5q0 29 20.5 50t51.5 21q30 0 51 -21
t21 -50q0 -30 -21 -50.5t-51 -20.5z" />
    <glyph glyph-name="dv_Khha" unicode="&#x959;" horiz-adv-x="944" 
d="M426 328q0 81 57 136.5t150 55.5q22 0 43.5 -4.5t39.5 -13.5v81h-369q13 -27 20 -59t7 -60q0 -70 -40.5 -126.5t-105.5 -80.5q13 -53 70 -113t158 -60q51 0 95.5 19.5t72.5 47.5q-7 -1 -14.5 -1.5t-14.5 -0.5q-73 0 -121 54t-48 125zM551 329q0 -43 25 -65.5t57 -22.5
q33 0 57.5 23t24.5 64q0 42 -25 65.5t-57 23.5t-57 -23.5t-25 -64.5zM107 -63q-30 0 -51 21t-21 50t21 50t51 21q29 0 50 -21t21 -50t-21 -50t-50 -21zM839 -16l-123 16v76q-49 -43 -117 -68t-143 -25q-153 0 -240 83.5t-105 176.5q-31 0 -54 6t-27 33q0 43 38.5 87.5
t84.5 44.5q16 0 26.5 -19.5t17.5 -38.5q25 12 44 41.5t19 66.5q0 34 -12 67t-32 52h-211l-8 48t-8 49h951l15 -97h-116v-599z" />
    <glyph glyph-name="dv_Ghha" unicode="&#x95a;" horiz-adv-x="677" 
d="M448 0v583h-199v-367q0 -31 -12.5 -49t-37.5 -18q-53 0 -97.5 46t-44.5 87q0 22 22 34.5t47 12.5v254h-121l-8 48t-8 49h682l16 -97h-116v-599zM196 -63q-31 0 -51.5 21t-20.5 50t20.5 50t51.5 21q29 0 50 -21t21 -50t-21 -50t-50 -21z" />
    <glyph glyph-name="dv_Za" unicode="&#x95b;" horiz-adv-x="799" 
d="M572 369h-135q10 -19 17 -43t7 -52q0 -112 -73.5 -163t-163.5 -51q-61 0 -116 20.5t-93 45.5l22 110q45 -34 92 -54t91 -21q57 0 90.5 31.5t33.5 76.5q0 43 -26 71.5t-83 28.5h-60l-16 97h413v117h-567l-8 48t-8 49h805l17 -97h-118v-599l-121 16v369zM226 -138
q-30 0 -51 20.5t-21 50.5q0 29 21 50t51 21q29 0 50.5 -21t21.5 -50q0 -30 -21.5 -50.5t-50.5 -20.5z" />
    <glyph glyph-name="dv_Dddha" unicode="&#x95c;" horiz-adv-x="537" 
d="M76 137q46 -29 93 -41t98 -12q59 0 85 22.5t26 50.5t-18 47t-55 19h-89q-63 0 -116.5 40.5t-53.5 108.5q0 72 48.5 110.5t119.5 38.5h119v62h-328l-8 48t-8 49h542l17 -97h-103v-164h-227q-24 0 -40 -15t-16 -32q0 -19 16 -33.5t41 -14.5h77q91 0 149 -40t58 -127
q0 -67 -59.5 -120t-170.5 -53q-59 0 -118.5 14.5t-99.5 38.5zM276 -197q-30 0 -51 20.5t-21 50.5t21 51t51 21t51 -21t21 -51t-21 -50.5t-51 -20.5z" />
    <glyph glyph-name="dv_Rha" unicode="&#x95d;" horiz-adv-x="624" 
d="M515 583v-69q0 -28 0.5 -56t0.5 -56h-140q-87 0 -146.5 -41.5t-59.5 -116.5q0 -68 41 -107.5t92 -50.5q-13 12 -19 32.5t-6 37.5q0 63 44.5 108.5t110.5 45.5q69 0 113.5 -40t44.5 -107q0 -76 -63.5 -128.5t-164.5 -52.5q-107 0 -207 57.5t-100 203.5q0 126 95.5 194
t224.5 68h16v78h-387l-8 48t-8 49h642l16 -97h-132zM438 208q-22 0 -38 -13.5t-16 -40.5q0 -19 9 -36.5t26 -29.5q33 6 51.5 28.5t18.5 44.5q0 21 -14 34t-37 13zM365 -199q-30 0 -50.5 21t-20.5 52q0 28 20.5 49.5t50.5 21.5q29 0 50.5 -21.5t21.5 -49.5q0 -31 -21.5 -52
t-50.5 -21z" />
    <glyph glyph-name="dv_Fa" unicode="&#x95e;" horiz-adv-x="954" 
d="M444 363v220h-240v-206q0 -54 30 -85.5t87 -31.5q49 0 83 27.5t40 75.5zM660 167q60 0 99 32t39 82t-32.5 81.5t-76.5 31.5q-51 0 -78.5 -22.5t-43.5 -44.5v-343l-123 16v192q-24 -15 -59.5 -25t-68.5 -10q-99 0 -167 58.5t-68 161.5v206h-76l-8 48t-8 49h961
q4 -25 8 -49l8 -48h-399v-127q21 16 54.5 28t64.5 12q104 0 167.5 -62t63.5 -154q0 -100 -73 -157.5t-164 -57.5zM223 -63q-30 0 -50.5 21t-20.5 50t20.5 50t50.5 21t51.5 -21t21.5 -50t-21.5 -50t-51.5 -21z" />
    <glyph glyph-name="dv_Yya" unicode="&#x95f;" horiz-adv-x="654" 
d="M54 360q17 19 52 46t35 92q0 30 -16 53t-40 32h-80l-8 48t-8 49h661l15 -97h-116v-599l-123 16v191q-23 -14 -54.5 -24t-78.5 -10q-91 0 -165 61.5t-74 141.5zM426 583h-199q10 -16 17 -40.5t7 -50.5q0 -46 -19.5 -87t-60.5 -69q12 -25 43 -50.5t83 -25.5q50 0 87 28
t42 77v218zM189 -63q-30 0 -51 21t-21 50t21 50t51 21t51 -21t21 -50t-21 -50t-51 -21z" />
    <glyph glyph-name="dv_VocalicRr" unicode="&#x960;" horiz-adv-x="901" 
d="M641 -87q0 25 10 44t30 35q-14 7 -23 21.5t-9 34.5q0 48 47.5 91t47.5 83q0 27 -12.5 49t-40.5 53q-26 -28 -84.5 -45.5t-117.5 -21.5v-273l-123 16v193l-216 -129q-17 22 -33.5 45.5t-33.5 45.5l253 150q-43 41 -76 57t-62 16q-16 0 -48.5 -9.5t-67.5 -25.5l-47 103
q31 16 81 27t67 11q41 0 86 -9.5t97 -52.5v161h-361l-8 48t-8 49h906l16 -97h-422v-227q57 9 92.5 19t49.5 29q-8 11 -14 26.5t-6 35.5q0 31 19.5 45.5t46.5 14.5q36 0 70.5 -23t34.5 -63q0 -13 -4.5 -24.5t-14.5 -22.5q41 -49 65.5 -88t24.5 -83q0 -55 -47 -93t-47 -62
q0 -16 10 -19.5t23 -3.5h40l-21 -92h-25q-13 0 -27 -7t-14 -19q0 -15 12 -21t25 -6h38l-23 -93h-35q-36 0 -78.5 26.5t-42.5 80.5z" />
    <glyph glyph-name="dv_VocalicLl" unicode="&#x961;" horiz-adv-x="861" 
d="M618 -5q-14 8 -24 25.5t-10 33.5q0 30 14.5 50t33.5 30v168q-4 43 -26 68.5t-57 25.5q-38 0 -60.5 -33.5t-22.5 -84.5v-140l-111 15l-1 125q0 51 -21.5 83t-72.5 32q-39 0 -64 -25t-25 -58q0 -54 25.5 -117t84.5 -182l-98 -34q-57 110 -89.5 186t-32.5 154q0 71 59 125
t140 55q44 -1 83 -16t65 -43q25 29 62.5 44t79.5 15q21 0 43.5 -6t38.5 -16v108h-627l-16 97h866l17 -97h-117v-505h-37q-12 0 -24 -5.5t-12 -18.5t12 -18t24 -5h32l-22 -70q-24 0 -37.5 -5.5t-13.5 -17.5q0 -13 10 -19t31 -6h35l-22 -74h-35q-39 0 -75.5 23.5t-36.5 75.5
q0 15 11 33.5t23 23.5z" />
    <glyph glyph-name="dv_MatraVocalicL" unicode="&#x962;" horiz-adv-x="0" 
d="M275 -152v-89l-84 21v68q0 25 -14 36t-31 11q-14 0 -26 -10.5t-12 -20.5q0 -34 17.5 -71.5t53.5 -104.5l-89 -21q-34 66 -53.5 111.5t-19.5 91.5q0 43 35.5 77t89.5 34q29 0 54.5 -14t36.5 -36q11 20 37.5 35t54.5 15q55 0 89.5 -34t34.5 -77q0 -31 -13.5 -54t-21.5 -43
q-3 -7 0.5 -16t15.5 -9h16l-20 -78h-28q-24 0 -53.5 14t-29.5 50q0 41 20.5 70.5t20.5 58.5q0 16 -12 24t-25 8q-16 0 -30 -12.5t-14 -34.5z" />
    <glyph glyph-name="dv_MatraVocalicLl" unicode="&#x963;" horiz-adv-x="0" 
d="M401 -412q-35 0 -61.5 18.5t-26.5 60.5q0 15 7 27t17 19q-5 5 -7.5 14t-2.5 15q-1 43 16 66.5t17 50.5q0 16 -11.5 26t-30.5 10q-16 0 -30 -12t-14 -34v-89l-83 21v68q0 25 -14 35.5t-31 10.5q-14 0 -26 -10.5t-12 -20.5q0 -34 17.5 -71t53.5 -105l-89 -20
q-34 66 -53.5 111t-19.5 91q0 43 35 77.5t90 34.5q29 0 54.5 -14.5t36.5 -36.5q11 20 37.5 35.5t54.5 15.5q54 0 89 -34t35 -78q0 -34 -16 -56t-16 -45q0 -7 4.5 -12t17.5 -5h11l-20 -69h-22q-10 0 -19 -4t-9 -12q0 -10 10 -13.5t21 -3.5h31l-21 -62h-20z" />
    <glyph glyph-name="dv_Danda" unicode="&#x964;" horiz-adv-x="403" 
d="M263 755v-771l-123 16v771z" />
    <glyph glyph-name="dv_DoubleDanda" unicode="&#x965;" horiz-adv-x="752" 
d="M612 755v-771l-124 16v771zM263 755v-771l-123 16v771z" />
    <glyph glyph-name="dv_Zero" unicode="&#x966;" horiz-adv-x="675" 
d="M338 57q-122 0 -202.5 83t-80.5 199t80 199t202 84q122 0 202 -83t80 -200q0 -116 -80 -199t-201 -83zM164 339q0 -78 49 -129.5t124 -51.5q76 0 124.5 51.5t48.5 129.5t-48.5 130t-124.5 52q-75 0 -124 -52t-49 -130z" />
    <glyph glyph-name="dv_One" unicode="&#x967;" horiz-adv-x="401" 
d="M50 328l82 65q7 5 14 11t14 11q-31 10 -65.5 45t-34.5 81q0 66 41 111t104 45q69 0 110.5 -43t41.5 -106q0 -49 -26 -98.5t-89 -99.5l-78 -62l-1 -1l198 -278q-29 -7 -59 -14t-59 -14l-195 305q0 10 0.5 21t1.5 21zM209 599q-18 0 -29 -16t-11 -37q0 -25 15 -46t39 -28
q13 11 22 30.5t9 37.5q0 22 -11.5 40.5t-33.5 18.5z" />
    <glyph glyph-name="dv_Two" unicode="&#x968;" horiz-adv-x="520" 
d="M179 244h-36q-20 0 -35 11t-15 29q0 40 34.5 85.5t79.5 45.5q15 0 29 -21.5t21 -42.5q44 10 67.5 46.5t23.5 76.5q0 49 -32.5 86t-88.5 37q-44 0 -80.5 -19t-52.5 -29q-10 22 -21.5 44t-21.5 44q22 17 72 38.5t106 21.5q123 0 178.5 -77t55.5 -150q0 -70 -45 -128.5
t-126 -86.5l158 -246l-116 -29z" />
    <glyph glyph-name="dv_Three" unicode="&#x969;" horiz-adv-x="546" 
d="M80 638q42 28 91.5 43.5t106.5 15.5q97 0 147.5 -50.5t50.5 -116.5q0 -43 -22.5 -83.5t-68.5 -54.5q48 -11 75.5 -52t27.5 -89q0 -78 -60 -127.5t-156 -55.5q18 -24 37 -47l38 -46q-20 -14 -40.5 -28.5t-40.5 -29.5q-31 42 -62.5 83.5t-63.5 83.5q-30 13 -59.5 42.5
t-29.5 70.5q0 25 17.5 40.5t42.5 15.5q35 0 69 -24.5t44 -58.5q6 -1 12 -1.5t12 -0.5q45 1 80.5 23t35.5 60q0 39 -30.5 69t-99.5 30h-82l-14 88h102q54 0 83 25t29 65q0 31 -26 50.5t-67 19.5q-46 0 -89 -17.5t-74 -42.5l-8 50z" />
    <glyph glyph-name="dv_Four" unicode="&#x96a;" horiz-adv-x="702" 
d="M532 152q0 -74 -49 -122t-132 -48t-132.5 48t-49.5 122q0 53 33 111.5t79 120.5q-56 62 -121 125t-120 114l67 87q88 -84 143 -138t101 -104q45 50 99.5 104t143.5 138l68 -87q-55 -51 -120.5 -114t-121.5 -125q47 -62 79.5 -120.5t32.5 -111.5zM283 152q0 -31 20.5 -49
t47.5 -18q28 0 47.5 18t19.5 49t-19.5 66.5t-47.5 75.5q-28 -40 -48 -75.5t-20 -66.5z" />
    <glyph glyph-name="dv_Five" unicode="&#x96b;" horiz-adv-x="562" 
d="M296 99q33 -11 47.5 -12.5t29.5 -1.5q34 0 48 15.5t14 35.5q0 30 -8.5 57t-21.5 49q-17 -4 -34.5 -6t-33.5 -2q-102 0 -179.5 54t-77.5 173v219h123v-219q0 -70 38 -97.5t101 -27.5q-3 10 -5.5 20t-2.5 20q0 20 19 43.5t50 23.5q37 0 69.5 -24.5t32.5 -61.5
q0 -14 -3.5 -27t-13.5 -26q25 -41 39 -91t14 -77q0 -58 -32.5 -105t-126.5 -47q-16 0 -48.5 3.5t-65.5 15.5l14 48z" />
    <glyph glyph-name="dv_Six" unicode="&#x96c;" horiz-adv-x="580" 
d="M477 112q16 -28 34 -58t34 -56l-48 -20l-48 -20l-66 119q-22 -7 -48.5 -8t-47.5 -1q-102 0 -164.5 52.5t-62.5 130.5q0 48 27 89t76 52q-46 14 -69 54.5t-23 83.5q0 66 51.5 116.5t147.5 50.5q57 0 106.5 -15.5t90.5 -43.5l-15 -100q-31 24 -73.5 42t-88.5 18
q-41 0 -68 -18.5t-27 -51.5q0 -40 29 -65t83 -25h92l6 -44t5 -44h-96q-69 0 -99.5 -30t-30.5 -69q0 -38 35 -60.5t81 -22.5q10 0 20 1.5t19 3.5q0 6 -0.5 11.5t-0.5 11.5q0 28 18.5 48t49.5 20q34 0 68.5 -22.5t34.5 -59.5q0 -17 -9 -35.5t-23 -34.5z" />
    <glyph glyph-name="dv_Seven" unicode="&#x96d;" horiz-adv-x="734" 
d="M550 429q-11 42 -35 69t-64 27q-28 0 -53 -21.5t-25 -56.5t23 -56.5t60 -21.5q29 0 56 16.5t38 43.5zM562 312q-24 -20 -55.5 -31.5t-58.5 -11.5q-82 0 -136.5 48.5t-54.5 122.5q0 80 53 134.5t137 54.5q122 0 182 -92.5t60 -236.5q0 -130 -86 -224t-239 -94
q-162 0 -246.5 94.5t-84.5 263.5q31 0 61.5 -0.5t61.5 -0.5q0 -119 56 -184t153 -65q90 0 143.5 61.5t53.5 160.5z" />
    <glyph glyph-name="dv_Eight" unicode="&#x96e;" horiz-adv-x="582" 
d="M173 218q0 -52 33 -89.5t90 -37.5q46 0 88 32t42 136l103 -30q4 -72 -43.5 -159.5t-196.5 -87.5q-113 0 -175 67t-62 164q0 132 99.5 274t193.5 223l69 -86q-111 -104 -176 -205.5t-65 -200.5z" />
    <glyph glyph-name="dv_Nine" unicode="&#x96f;" horiz-adv-x="493" 
d="M443 518q0 -77 -53 -128.5t-132 -52.5q-3 -3 -5.5 -4t-4.5 -1q3 -5 6.5 -10.5t7.5 -10.5q67 -98 86.5 -133t19.5 -79q0 -49 -40.5 -81t-103.5 -44l-18 88q24 7 37.5 16t13.5 30q0 20 -28 60.5t-77 109.5q-39 54 -70 107.5t-31 113.5q0 72 49.5 133.5t141.5 61.5
q93 0 147 -53.5t54 -122.5zM246 585q-34 0 -56.5 -24.5t-22.5 -62.5q0 -17 3 -31.5t7 -27.5q10 -6 26 -9.5t37 -3.5q40 0 62.5 24.5t22.5 57.5q0 31 -21 54t-58 23z" />
    <glyph glyph-name="dv_Abbreviation" unicode="&#x970;" horiz-adv-x="570" 
d="M287 526q100 0 169.5 -71t69.5 -172q0 -99 -69.5 -169.5t-170.5 -70.5q-103 0 -172.5 71t-69.5 174q0 99 69.5 168.5t173.5 69.5zM286 144q54 0 94 39t40 102q0 61 -40 99.5t-94 38.5q-55 0 -95 -39t-40 -99q0 -63 40 -102t95 -39z" />
    <glyph glyph-name="dv_Highspacedot" unicode="&#x971;" horiz-adv-x="223" 
d="M111 223q-29 0 -50 20.5t-21 51.5q0 29 21 50t50 21q31 0 51.5 -21t20.5 -50q0 -31 -20.5 -51.5t-51.5 -20.5z" />
    <glyph glyph-name="dv_CandraA" unicode="&#x972;" horiz-adv-x="942" 
d="M926 951l85 -52q-41 -79 -102.5 -109t-130.5 -30t-130 30.5t-101 108.5q20 13 41 26l42 26q25 -51 67.5 -74t80.5 -23q34 0 76 21.5t72 75.5zM530 191q0 -88 -67.5 -147t-183.5 -59q-60 0 -117 16t-99 40l22 100q46 -28 92 -42t96 -14q52 0 92.5 26t40.5 78
q0 54 -35.5 86t-128.5 32h-87l-16 88h110q72 0 107 32t35 78q0 37 -28 64.5t-80 27.5q-49 0 -95 -16t-96 -51q-4 25 -8.5 51t-8.5 51q46 31 101 48t118 17q113 0 167.5 -57.5t54.5 -132.5q0 -31 -16.5 -61t-41.5 -50h256v187h-99l-17 97h339l16 -97h-117v-599l-122 16v305
h-242q28 -19 43 -49.5t15 -64.5z" />
    <glyph glyph-name="dv_Oe" unicode="&#x973;" horiz-adv-x="942" 
d="M530 191q0 -88 -67.5 -147t-183.5 -59q-60 0 -117 16t-99 40l22 100q46 -28 92 -42t96 -14q52 0 92.5 26t40.5 78q0 54 -35.5 86t-128.5 32h-87l-16 88h110q72 0 107 33t35 77q0 37 -28 64.5t-80 27.5q-49 0 -95 -16t-96 -51q-4 25 -8.5 51t-8.5 51q46 31 101 48t118 17
q113 0 167.5 -57.5t54.5 -132.5q0 -31 -16.5 -61t-41.5 -50h256v187h-99l-17 97h118v222l118 -16v-206h103l16 -97h-117v-599l-122 16v305h-242q28 -19 43 -49.5t15 -64.5z" />
    <glyph glyph-name="dv_Ooe" unicode="&#x974;" horiz-adv-x="1261" 
d="M714 0v305h-241q28 -19 42.5 -49.5t14.5 -64.5q0 -88 -67.5 -147t-183.5 -59q-60 0 -117 16t-98 41l21 100q46 -29 92 -43t96 -14q53 0 93 26.5t40 77.5q0 54 -35 86t-128 32h-87l-17 89h110q72 0 107.5 32t35.5 78q0 36 -28 63.5t-80 27.5q-49 0 -95 -16t-97 -51
l-16 103q46 30 100.5 47.5t117.5 17.5q113 0 168 -58t55 -133q0 -31 -16.5 -61t-41.5 -50h255v187h-99l-17 97h432v222l118 -16v-206h108l16 -97h-116v-599l-124 16v583h-196v-599z" />
    <glyph glyph-name="dv_Aw" unicode="&#x975;" horiz-adv-x="1261" 
d="M893 803h62h29t27 -1q-13 8 -27 16.5t-30 15.5q-37 14 -54.5 44.5t-17.5 73.5v31l98 -18q0 -34 16.5 -59t44.5 -32q56 -15 81.5 -54.5t25.5 -96.5v-43h107l17 -97h-116v-599l-124 16v583h-196v-599l-122 16v305h-242q28 -19 43 -49.5t15 -64.5q0 -88 -67.5 -147
t-183.5 -59q-60 0 -117 16t-99 40l22 100q46 -28 92 -42t96 -14q52 0 92.5 26t40.5 78q0 54 -35.5 86t-128.5 32h-87l-16 88h110q72 0 107 33t35 77q0 37 -28 64.5t-80 27.5q-49 0 -95 -16t-96 -51q-4 25 -8.5 51t-8.5 51q46 31 101 48t118 17q113 0 167.5 -57.5
t54.5 -132.5q0 -31 -16.5 -61t-41.5 -50h256v187h-99l-17 97h443q-4 19 -13.5 27t-31.5 8h-98q-81 0 -131 41.5t-50 107.5v30l97 -18q0 -34 21 -53.5t58 -19.5z" />
    <glyph glyph-name="dv_Ue" unicode="&#x976;" horiz-adv-x="942" 
d="M530 191q0 -88 -67.5 -147t-183.5 -59q-60 0 -117 16t-99 40l22 100q46 -28 92 -42t96 -14q52 0 92.5 26t40.5 78q0 54 -35.5 86t-128.5 32h-87l-16 88h110q72 0 107 32t35 78q0 37 -28 64.5t-80 27.5q-49 0 -95 -16t-96 -51q-4 25 -8.5 51t-8.5 51q46 31 101 48t118 17
q113 0 167.5 -57.5t54.5 -132.5q0 -31 -16.5 -61t-41.5 -50h256v187h-99l-17 97h339l16 -97h-117v-599l-122 16v305h-242q28 -19 43 -49.5t15 -64.5zM534 -146q35 0 77 22t71 76q21 -13 42.5 -26t42.5 -26q-40 -79 -102 -109.5t-131 -30.5t-130.5 30.5t-101.5 109.5l42 26
t43 26q24 -51 66.5 -74.5t80.5 -23.5z" />
    <glyph glyph-name="dv_Uue" unicode="&#x977;" horiz-adv-x="942" 
d="M530 191q0 -88 -67.5 -147t-183.5 -59q-60 0 -117 16t-99 40l22 100q46 -28 92 -42t96 -14q52 0 92.5 26t40.5 78q0 54 -35.5 86t-128.5 32h-87l-16 88h110q72 0 107 32t35 78q0 37 -28 64.5t-80 27.5q-49 0 -95 -16t-96 -51q-4 25 -8.5 51t-8.5 51q46 31 101 48t118 17
q113 0 167.5 -57.5t54.5 -132.5q0 -31 -16.5 -61t-41.5 -50h256v187h-99l-17 97h339l16 -97h-117v-599l-122 16v305h-242q28 -19 43 -49.5t15 -64.5zM527 -132q33 0 72 16.5t64 68.5q22 -12 42.5 -24t42.5 -25q-45 -77 -110 -100t-111 -23q-47 0 -112 24t-108 99
q22 13 42.5 25t42.5 24q19 -48 59 -66.5t76 -18.5zM737 -162l83 -51q-50 -75 -131.5 -104.5t-161.5 -29.5q-78 0 -163 30t-136 102l42 26l42 26q34 -43 92.5 -67.5t122.5 -24.5q62 0 117.5 22t92.5 71z" />
    <glyph glyph-name="dv_MarwariDda" unicode="&#x978;" horiz-adv-x="642" 
d="M233 583v-224h113q99 0 167 -55.5t68 -158.5v-161q-6 1 -62.5 8t-60.5 8v145q0 54 -30 85t-87 31h-108q-6 -38 -20 -57t-31 -19q-50 0 -94 34.5t-44 85.5q0 21 18 37.5t52 16.5v224h-109l-8 48t-8 49h647q4 -25 8 -49l8 -48h-419z" />
    <glyph glyph-name="dv_Zha" unicode="&#x979;" horiz-adv-x="799" 
d="M572 369h-135q10 -19 17 -43t7 -52q0 -112 -73.5 -163t-163.5 -51q-61 0 -116 20.5t-93 45.5l22 110q45 -34 92 -54t91 -21q57 0 90.5 31.5t33.5 76.5q0 43 -26 71.5t-83 28.5h-60l-16 97h413v117h-567l-8 48t-8 49h805l17 -97h-118v-599l-121 16v369zM109 -116
q-29 0 -49.5 21t-20.5 51q0 29 20.5 50t49.5 21q30 0 51.5 -21t21.5 -50q0 -30 -21.5 -51t-51.5 -21zM334 -116q-30 0 -50.5 21t-20.5 51q0 29 20.5 50t50.5 21t51 -21t21 -50q0 -30 -21 -51t-51 -21zM223 -248q-31 0 -51.5 21t-20.5 52q0 29 20.5 50t51.5 21q29 0 50 -21
t21 -50q0 -31 -21 -52t-50 -21z" />
    <glyph glyph-name="dv_HeavyYa" unicode="&#x97a;" horiz-adv-x="652" 
d="M76 385q25 7 45 38.5t20 74.5q0 30 -15.5 53t-40.5 32h-79l-15 97h659l16 -97h-117v-599l-123 16v191q-23 -14 -54.5 -24t-77.5 -10q-92 0 -166 61.5t-74 141.5q6 6 11.5 12.5t10.5 12.5zM426 583h-169q43 -50 84.5 -101t84.5 -100v201zM171 336q13 -25 44 -50t82 -26
q33 0 61 12.5t45 34.5q-41 51 -78.5 98.5t-73.5 90.5q0 -45 -19 -88.5t-61 -71.5z" />
    <glyph glyph-name="dv_Gga" unicode="&#x97b;" horiz-adv-x="677" 
d="M448 0v583h-199v-367q0 -31 -12.5 -49t-37.5 -18q-53 0 -97.5 46t-44.5 87q0 22 22 34.5t47 12.5v254h-121l-8 48t-8 49h682l16 -97h-116v-599zM593 -170h-502l-15 95h501q4 -24 8 -47.5t8 -47.5z" />
    <glyph glyph-name="dv_Jja" unicode="&#x97c;" horiz-adv-x="799" 
d="M572 369h-135q10 -19 17 -43t7 -52q0 -112 -73.5 -163t-163.5 -51q-61 0 -116 20.5t-93 45.5l22 110q45 -34 92 -54t91 -21q57 0 90.5 31.5t33.5 76.5q0 43 -26 71.5t-83 28.5h-60l-16 97h413v117h-567l-8 48t-8 49h805l17 -97h-118v-599l-121 16v369zM679 -170h-597
l-15 95h595z" />
    <glyph glyph-name="dv_GlottalStop" unicode="&#x97d;" horiz-adv-x="556" 
d="M283 698q112 0 168 -62.5t56 -144.5q0 -66 -48.5 -132t-135.5 -102l1 -250l-124 38v274q81 25 130.5 71t49.5 100q0 50 -29 76.5t-75 26.5q-51 0 -100 -21t-100 -55l-16 112q47 31 102 50t121 19z" />
    <glyph glyph-name="dv_Ddda" unicode="&#x97e;" horiz-adv-x="537" 
d="M76 137q46 -29 93 -41t98 -12q53 0 82 22.5t29 50.5t-18 47t-55 19h-89q-63 0 -116.5 40.5t-53.5 108.5q0 72 48.5 110.5t119.5 38.5h119v62h-328l-8 48t-8 49h542l17 -97h-103v-164h-227q-24 0 -40 -15t-16 -32q0 -19 16 -33.5t41 -14.5h77q91 0 149 -40t58 -127
q0 -67 -59.5 -120t-170.5 -53q-59 0 -118.5 14.5t-99.5 38.5zM493 -170h-425l-17 95h425z" />
    <glyph glyph-name="dv_Bba" unicode="&#x97f;" horiz-adv-x="626" 
d="M398 0v108q-22 -17 -55 -28.5t-65 -11.5q-101 0 -168 61.5t-67 154.5q0 92 65.5 155t169.5 63q32 0 65 -11.5t55 -27.5v120h-393l-8 48t-8 49h632l16 -97h-116v-599zM398 333q-16 23 -44.5 46t-78.5 23q-11 0 -21.5 -2.5t-20.5 -8.5l152 -172q4 4 7 9t6 9v96zM185 355
q-10 -14 -16.5 -31.5t-6.5 -38.5q0 -50 33.5 -83t79.5 -33q19 0 35.5 3t28.5 9zM549 -170h-464q-4 24 -8 47.5t-8 47.5h464q4 -24 8 -47.5t8 -47.5z" />
    <glyph glyph-name="uni200C" unicode="&#x200c;" horiz-adv-x="0" 
d="M-30 1237h60v-1305h-60v1305z" />
    <glyph glyph-name="uni200D" unicode="&#x200d;" horiz-adv-x="0" 
d="M74 1320l40 -40l-74 -74l74 -74l-39 -39l-45 44v-1205h-60v1204l-44 -43l-39 39l74 74l-74 74l40 40l73 -74z" />
    <glyph glyph-name="endash" unicode="&#x2013;" horiz-adv-x="413" 
d="M397 229h-371l-10 89h372z" />
    <glyph glyph-name="emdash" unicode="&#x2014;" horiz-adv-x="516" 
d="M501 229h-475l-10 89h476z" />
    <glyph glyph-name="quoteleft" unicode="&#x2018;" horiz-adv-x="162" 
d="M77 457q-29 0 -48.5 22.5t-19.5 58.5q0 53 35 109.5t87 84.5l26 -53q-25 -20 -42.5 -39t-23.5 -50q19 -1 36 -21t17 -45t-19.5 -46t-47.5 -21z" />
    <glyph glyph-name="quoteright" unicode="&#x2019;" horiz-adv-x="162" 
d="M85 732q28 0 48 -22t20 -59q0 -53 -34.5 -109.5t-87.5 -84.5l-25 53q25 20 42 39t22 50q-17 1 -34.5 20.5t-17.5 44.5t19.5 46.5t47.5 21.5z" />
    <glyph glyph-name="quotesinglbase" unicode="&#x201a;" horiz-adv-x="162" 
d="M85 133q28 0 48 -22.5t20 -58.5q0 -53 -34.5 -109.5t-87.5 -85.5l-25 54q25 20 42 39t22 50q-17 1 -34.5 21t-17.5 45t19.5 46t47.5 21z" />
    <glyph glyph-name="quotedblleft" unicode="&#x201c;" horiz-adv-x="337" 
d="M77 457q-29 0 -48.5 22.5t-19.5 58.5q0 53 35 109.5t87 84.5l26 -53q-25 -20 -42.5 -39t-23.5 -50q19 -1 36 -21t17 -45t-19.5 -46t-47.5 -21zM252 457q-28 0 -48 22.5t-20 58.5q0 53 35.5 109.5t86.5 84.5l26 -53q-25 -20 -42.5 -39t-22.5 -50q17 -1 35 -21t18 -45
t-20 -46t-48 -21z" />
    <glyph glyph-name="quotedblright" unicode="&#x201d;" horiz-adv-x="337" 
d="M261 732q28 0 47.5 -22t19.5 -59q0 -53 -35 -109.5t-86 -84.5l-26 53q25 20 42 39t23 50q-19 1 -36 20.5t-17 44.5t19.5 46.5t48.5 21.5zM85 732q28 0 48 -22t20 -59q0 -53 -34.5 -109.5t-87.5 -84.5l-25 53q25 20 42 39t22 50q-17 1 -34.5 20.5t-17.5 44.5t19.5 46.5
t47.5 21.5z" />
    <glyph glyph-name="quotedblbase" unicode="&#x201e;" horiz-adv-x="337" 
d="M261 133q28 0 47.5 -22.5t19.5 -58.5q0 -53 -35 -109.5t-86 -85.5l-26 54q25 20 42 39t23 50q-19 1 -36 21t-17 45t19.5 46t48.5 21zM85 133q28 0 48 -22.5t20 -58.5q0 -52 -34.5 -109t-87.5 -86l-25 54q25 20 42 39t22 50q-17 1 -34.5 21t-17.5 45t19.5 46t47.5 21z" />
    <glyph glyph-name="dagger" unicode="&#x2020;" horiz-adv-x="407" 
d="M266 780v-155h103l18 -104h-121l-11 -525l-101 4l-10 521h-106l-19 104h125v158z" />
    <glyph glyph-name="daggerdbl" unicode="&#x2021;" horiz-adv-x="442" 
d="M154 -6l5 168h-109l-19 103h125l3 245h-109l-19 104h130l-5 169l131 -3l-5 -166h109l18 -104h-126v-122.5t-1 -122.5h109l18 -103h-129l5 -161z" />
    <glyph glyph-name="bullet" unicode="&#x2022;" horiz-adv-x="261" 
d="M130 228q-43 0 -72.5 29.5t-29.5 71.5t29.5 72t72.5 30q42 0 72 -30t30 -72t-30 -71.5t-72 -29.5z" />
    <glyph glyph-name="ellipsis" unicode="&#x2026;" horiz-adv-x="478" 
d="M404 123q26 0 43.5 -18t17.5 -44q0 -25 -17.5 -43t-43.5 -18q-25 0 -43 18t-18 43q0 26 18 44t43 18zM241 123q25 0 43 -18t18 -44q0 -25 -18 -43t-43 -18q-27 0 -45 18t-18 43q0 26 18 44t45 18zM74 123q25 0 43 -18t18 -44q0 -25 -18 -43t-43 -18t-44 18t-19 43
q0 26 19 44t44 18z" />
    <glyph glyph-name="perthousand" unicode="&#x2030;" horiz-adv-x="1305" 
d="M664 706l-301 -710l-112 4l299 710zM31 533q0 78 50 123.5t113 45.5q66 0 115 -44.5t49 -124.5q0 -78 -50 -124t-113 -46q-65 0 -114.5 44.5t-49.5 125.5zM128 533q0 -45 19.5 -66.5t47.5 -21.5q25 0 45.5 21.5t20.5 65.5q0 43 -19.5 65t-47.5 22q-24 0 -45 -21.5
t-21 -64.5zM947 169q0 79 50 124t114 45t113.5 -44t49.5 -124q0 -78 -50 -124t-113 -46q-66 0 -115 44.5t-49 124.5zM559 169q0 79 50 124t114 45q65 0 113.5 -44t48.5 -124q0 -78 -49.5 -124t-112.5 -46q-65 0 -114.5 44.5t-49.5 124.5zM1044 170q0 -45 19.5 -66.5
t47.5 -21.5q25 0 45.5 21.5t20.5 65.5q0 43 -19.5 65t-46.5 22q-25 0 -46 -21.5t-21 -64.5zM656 170q0 -45 19.5 -66.5t47.5 -21.5q25 0 45.5 21.5t20.5 65.5q0 43 -20 65t-46 22q-25 0 -46 -21.5t-21 -64.5z" />
    <glyph glyph-name="guilsinglleft" unicode="&#x2039;" horiz-adv-x="215" 
d="M23 269l155 139l23 -81q-22 -20 -44 -41t-44 -41l88 -83l-23 -79l-155 138v48z" />
    <glyph glyph-name="guilsinglright" unicode="&#x203a;" horiz-adv-x="215" 
d="M37 408l155 -139v-48l-155 -138l-23 79l87 83l-87 83z" />
    <glyph glyph-name="fraction" unicode="&#x2044;" horiz-adv-x="428" 
d="M423 706l-302 -710l-115 4l300 710z" />
    <glyph glyph-name="Euro" unicode="&#x20ac;" horiz-adv-x="621" 
d="M491 207h-233q19 -55 57.5 -90.5t103.5 -35.5q43 0 75 9t62 22l42 -84q-36 -19 -85 -30.5t-92 -11.5q-120 0 -185 63t-87 158h-99l-11 85h97q-1 10 -1.5 21.5t-0.5 23.5t1 24.5t2 23.5h-87l-11 85h111q25 99 94 161.5t183 62.5q33 0 80 -10t87 -32l-35 -82q-41 13 -64 21
t-67 8q-63 0 -105 -34.5t-63 -94.5h221l10 -85h-249q-1 -11 -2 -22.5t-1 -24.5q0 -12 1 -24t2 -22h239z" />
    <glyph glyph-name="Turkishlira" unicode="&#x20ba;" horiz-adv-x="563" 
d="M395 417l-175 -62v-250q81 0 138 61.5t57 152.5h115q0 -137 -86 -225t-211 -93q-11 -1 -23 -1h-23h-80v315l-70 -24l-16 86l86 30v45q-17 -6 -35 -12.5t-35 -13.5q-4 22 -8 43.5t-8 43.5l86 30v152l113 11v-122q40 13 79.5 28t79.5 28q4 -22 8 -43.5t8 -42.5l-175 -62
v-44l159 55q4 -21 8 -42.5t8 -43.5z" />
    <glyph glyph-name="Ruble" unicode="&#x20bd;" horiz-adv-x="636" 
d="M498 128h-260v-128h-112v128h-61l-9 88h70v51h-69v93h69v320h203q110 0 186.5 -44t76.5 -160q-1 -114 -83 -161.5t-189 -47.5h-82v-51h251zM327 586h-89v-226h88q64 0 104 23.5t44 87.5q0 72 -39 93.5t-108 21.5z" />
    <glyph glyph-name="litre" unicode="&#x2113;" horiz-adv-x="419" 
d="M54 161l-14 50l-14 50q16 10 34 22.5t35 25.5v244q0 70 44 109.5t106 39.5q59 0 99.5 -38.5t40.5 -104.5q0 -69 -52 -146t-124 -141v-98q0 -37 10 -62.5t44 -25.5q10 0 27 3t39 19l38 -72q-27 -24 -57.5 -35t-58.5 -11q-87 0 -121.5 47.5t-34.5 124.5v24
q-10 -7 -20 -13.5t-21 -11.5zM273 554q0 28 -10 39t-21 11q-14 -1 -23.5 -13t-9.5 -43v-136q28 33 46 69t18 73z" />
    <glyph glyph-name="trademark" unicode="&#x2122;" horiz-adv-x="777" 
d="M350 615h-127v-310h-81v310h-117v65h314q3 -16 6 -32.5t5 -32.5zM555 403l-84 103v-201h-83v375h39q35 -43 69.5 -86t69.5 -86l127 172h38v-375h-82v193l-70 -90q-5 -1 -11.5 -2.5t-12.5 -2.5z" />
    <glyph glyph-name="Ohm" unicode="&#x2126;" horiz-adv-x="749" 
d="M570 342q0 118 -54.5 187.5t-141.5 69.5t-141 -69.5t-54 -187.5q0 -81 29.5 -152t81.5 -99l1 -91h-229l-5 91h94q-43 42 -66.5 112.5t-23.5 141.5q0 155 82.5 251.5t230.5 99.5q149 -3 231.5 -99.5t82.5 -251.5q0 -71 -23 -141.5t-68 -112.5h95l-6 -91h-229l2 91
q52 28 81.5 99t29.5 152z" />
    <glyph glyph-name="estimated" unicode="&#x212e;" horiz-adv-x="520" 
d="M483 212h-335q7 -57 42.5 -93t100.5 -36q39 0 67.5 9t60.5 24q8 -20 17 -41t16 -41q-32 -24 -81.5 -35t-79.5 -11q-125 0 -194 69.5t-69 184.5t64 185.5t174 70.5q125 0 171 -86.5t46 -199.5zM373 288q-7 54 -35 83.5t-75 29.5t-76.5 -30t-37.5 -83h224z" />
    <glyph glyph-name="partialdiff" unicode="&#x2202;" horiz-adv-x="554" 
d="M498 274q0 -137 -71 -205.5t-178 -68.5q-95 0 -154 65.5t-59 147.5q0 80 59.5 143t157.5 63q34 0 63.5 -11.5t54.5 -28.5q-25 65 -81.5 117.5t-131.5 69.5l51 74q131 -27 210 -141.5t79 -224.5zM393 239q-15 33 -52 60.5t-88 27.5q-53 0 -83 -36.5t-30 -82.5t30.5 -80.5
t81.5 -34.5q63 0 98.5 40t42.5 106z" />
    <glyph glyph-name="Delta" unicode="&#x2206;" horiz-adv-x="634" 
d="M365 680l263 -664l-113 -16h-509l260 680h99zM314 526l-163 -436h330z" />
    <glyph glyph-name="product" unicode="&#x220f;" horiz-adv-x="623" 
d="M72 680h478v-680h-112v593h-255v-593h-111v680z" />
    <glyph glyph-name="summation" unicode="&#x2211;" horiz-adv-x="474" 
d="M416 592h-266l157 -227v-40l-160 -237h292l17 -88h-430v88l178 256q-43 62 -88 124t-88 124v88h371q4 -22 8.5 -44t8.5 -44z" />
    <glyph glyph-name="minus" unicode="&#x2212;" horiz-adv-x="450" 
d="M434 229h-409l-9 89h407z" />
    <glyph glyph-name="divisionslash" unicode="&#x2215;" horiz-adv-x="428" 
d="M423 706l-302 -710l-115 4l300 710z" />
    <glyph glyph-name="bulletmath" unicode="&#x2219;" horiz-adv-x="261" 
d="M130 228q-43 0 -72.5 29.5t-29.5 71.5t29.5 72t72.5 30q42 0 72 -30t30 -72t-30 -71.5t-72 -29.5z" />
    <glyph glyph-name="radical" unicode="&#x221a;" horiz-adv-x="597" 
d="M592 706l-296 -710l-121 4l-169 317l116 4l110 -202l246 591z" />
    <glyph glyph-name="infinity" unicode="&#x221e;" horiz-adv-x="845" 
d="M706 260q0 46 -32 79.5t-84 33.5q-47 0 -79 -44t-46 -93l-5 -21q21 -36 55 -59t75 -24q52 0 84 38.5t32 89.5zM139 244q0 -46 32 -80t84 -34q47 0 79 44.5t46 93.5l5 22q-20 35 -55 57.5t-75 23.5q-52 0 -84 -38t-32 -89zM253 465q52 0 97.5 -23.5t79.5 -63.5
q27 37 67.5 62.5t92.5 25.5q95 0 155.5 -57.5t60.5 -150.5q0 -92 -60.5 -155.5t-153.5 -63.5q-52 0 -97.5 23.5t-79.5 64.5q-28 -37 -68 -63.5t-92 -26.5q-95 0 -155.5 58t-60.5 150q0 93 60.5 156.5t153.5 63.5z" />
    <glyph glyph-name="integral" unicode="&#x222b;" horiz-adv-x="406" 
d="M259 -9q0 -78 -43 -124t-124 -46q-22 0 -47 8t-38 18l30 83q13 -4 24 -7.5t23 -3.5q36 0 49 24t13 61v610q0 79 43 124t124 45q23 0 47.5 -7.5t39.5 -18.5l-32 -82q-12 4 -23.5 7.5t-23.5 3.5q-35 0 -48.5 -24t-13.5 -61v-610z" />
    <glyph glyph-name="approxequal" unicode="&#x2248;" horiz-adv-x="503" 
d="M354 382q11 1 25.5 9.5t16.5 34.5q14 -4 50 -10.5t36 -15.5q0 -70 -48 -89.5t-86 -19.5q-39 0 -93 21t-105 21q-12 0 -28 -9t-17 -34l-85 18q0 76 47.5 96t87.5 20q34 0 94.5 -21t104.5 -21zM354 188q11 1 25.5 9.5t16.5 34.5q14 -4 50 -10.5t36 -15.5q0 -71 -48 -90.5
t-86 -19.5q-39 0 -93 21t-105 21q-12 0 -28 -9t-17 -33l-85 18q0 75 47.5 96t87.5 21q34 0 94.5 -21.5t104.5 -21.5z" />
    <glyph glyph-name="notequal" unicode="&#x2260;" horiz-adv-x="491" 
d="M414 517l-53 -118h101l9 -85h-147l-51 -117h189l9 -85h-237l-57 -127l-100 5l54 122h-101l-10 85h148l54 117h-192l-10 85h238l54 121z" />
    <glyph glyph-name="lessequal" unicode="&#x2264;" horiz-adv-x="345" 
d="M303 110l-285 160v72l285 161l22 -94l-183 -102l183 -104zM322 0h-296l-7 80h298z" />
    <glyph glyph-name="greaterequal" unicode="&#x2265;" horiz-adv-x="345" 
d="M327 270l-285 -160l-22 93l182 104l-182 102l22 94l285 -161v-72zM324 0h-297l-7 80h297z" />
    <glyph glyph-name="lozenge" unicode="&#x25ca;" horiz-adv-x="553" 
d="M254 0l-231 283v32l231 285h45l230 -285v-32l-230 -283h-45zM136 300l140 -176l141 176l-141 175z" />
    <glyph glyph-name="uni25CC" unicode="&#x25cc;" horiz-adv-x="672" 
d="M335 510q-14 0 -23 9t-9 23t9 23.5t23 9.5t23.5 -9.5t9.5 -23.5t-9.5 -23t-23.5 -9zM435 493q-14 0 -23 9t-9 23t9 23.5t23 9.5t23.5 -9.5t9.5 -23.5t-9.5 -23t-23.5 -9zM237 558q14 0 23 -9.5t9 -23.5t-9 -23t-23 -9t-23.5 9t-9.5 23t9.5 23.5t23.5 9.5zM520 437
q-14 0 -23 9t-9 23t9 23.5t23 9.5t23.5 -9.5t9.5 -23.5t-9.5 -23t-23.5 -9zM152 502q14 0 23 -9.5t9 -23.5t-9 -23t-23 -9t-23.5 9t-9.5 23t9.5 23.5t23.5 9.5zM573 349q-14 0 -23 9t-9 23t9 23.5t23 9.5t23.5 -9.5t9.5 -23.5t-9.5 -23t-23.5 -9zM99 414q14 0 23 -9.5
t9 -23.5t-9 -23t-23 -9t-23.5 9t-9.5 23t9.5 23.5t23.5 9.5zM589 254q-14 0 -23 9t-9 23t9 23.5t23 9.5t23.5 -9.5t9.5 -23.5t-9.5 -23t-23.5 -9zM83 319q14 0 23 -9.5t9 -23.5t-9 -23t-23 -9t-23.5 9t-9.5 23t9.5 23.5t23.5 9.5zM573 161q-14 0 -23 9t-9 23t9 23.5t23 9.5
t23.5 -9.5t9.5 -23.5t-9.5 -23t-23.5 -9zM99 226q14 0 23 -9.5t9 -23.5t-9 -23t-23 -9t-23.5 9t-9.5 23t9.5 23.5t23.5 9.5zM521 72q-14 0 -23 9t-9 23t9 23.5t23 9.5t23.5 -9.5t9.5 -23.5t-9.5 -23t-23.5 -9zM151 137q14 0 23 -9.5t9 -23.5t-9 -23t-23 -9t-23.5 9t-9.5 23
t9.5 23.5t23.5 9.5zM237 82q14 0 23 -9.5t9 -23.5t-9 -23t-23 -9t-23.5 9t-9.5 23t9.5 23.5t23.5 9.5zM435 17q-14 0 -23 9t-9 23t9 23.5t23 9.5t23.5 -9.5t9.5 -23.5t-9.5 -23t-23.5 -9zM335 0q-14 0 -23 9t-9 23t9 23.5t23 9.5t23.5 -9.5t9.5 -23.5t-9.5 -23t-23.5 -9z
" />
    <glyph glyph-name="commaaccent" unicode="&#xf6c3;" horiz-adv-x="166" 
d="M82 -21q28 0 48 -22t20 -59q0 -53 -32 -99t-78 -68l-26 53q16 7 32 23.5t22 38.5q-19 0 -36 20t-17 45t19.5 46.5t47.5 21.5z" />
    <glyph glyph-name="fi" unicode="&#xfb01;" horiz-adv-x="602" 
d="M10 0zM84 531q0 79 45 125t126 46q22 0 49 -8.5t41 -18.5l-31 -83q-13 5 -26 8.5t-25 3.5q-35 0 -50.5 -24.5t-15.5 -61.5v-43h91l36 -88h-127v-387h-113v387h-74v88h74v56zM476 563q-28 0 -47 19t-19 47q-1 28 18.5 47.5t47.5 19.5t47.5 -19.5t19.5 -47.5t-19.5 -47
t-47.5 -19zM419 0v485h114v-485h-114z" />
    <glyph glyph-name="fl" unicode="&#xfb02;" horiz-adv-x="609" 
d="M10 0zM84 531q0 79 45 125t126 46q22 0 49 -8.5t41 -18.5l-31 -83q-13 5 -26 8.5t-25 3.5q-35 0 -50.5 -24.5t-15.5 -61.5v-43h91l36 -88h-127v-387h-113v387h-74v88h74v56zM423 0v695l113 11v-706h-113z" />
    <glyph glyph-name="grave.case" horiz-adv-x="209" 
d="M16 900h118l60 -161h-86z" />
    <glyph glyph-name="dieresis.case" horiz-adv-x="334" 
d="M76 875q25 0 41.5 -17.5t16.5 -41.5q0 -25 -16.5 -42t-41.5 -17t-42.5 17t-17.5 42q0 24 17.5 41.5t42.5 17.5zM258 875q25 0 42 -17.5t17 -41.5q0 -25 -17 -42t-42 -17q-24 0 -42 17t-18 42q0 24 18 41.5t42 17.5z" />
    <glyph glyph-name="macron.case" horiz-adv-x="288" 
d="M16 859h257v-89h-257v89z" />
    <glyph glyph-name="acute.case" horiz-adv-x="209" 
d="M76 900h118l-92 -161h-86z" />
    <glyph glyph-name="circumflex.case" horiz-adv-x="380" 
d="M123 739h-107l140 161h68l141 -161h-105l-68 76z" />
    <glyph glyph-name="caron.case" horiz-adv-x="380" 
d="M16 900h107l69 -76l68 76h105l-141 -161h-68z" />
    <glyph glyph-name="breve.case" horiz-adv-x="317" 
d="M301 897q0 -60 -34 -107t-108 -48q-74 1 -108.5 48t-34.5 107h78q0 -26 15 -49.5t50 -23.5q34 0 49.5 23.5t15.5 49.5h77z" />
    <glyph glyph-name="dotaccent.case" horiz-adv-x="166" 
d="M83 884q28 0 47 -19.5t19 -47.5q0 -29 -19 -48t-47 -19t-47.5 19t-19.5 48q0 28 19.5 47.5t47.5 19.5z" />
    <glyph glyph-name="ring.case" horiz-adv-x="237" 
d="M118 934q41 0 72 -28t31 -68q0 -42 -31 -68t-72 -26t-71.5 26t-30.5 68q0 40 30.5 68t71.5 28zM118 797q17 0 29 12.5t12 28.5t-12 28t-29 12q-16 0 -28.5 -12t-12.5 -28t12.5 -28.5t28.5 -12.5z" />
    <glyph glyph-name="tilde.case" horiz-adv-x="348" 
d="M260 861h72q0 -63 -31 -88t-70 -25q-37 0 -59 19.5t-49 19.5q-12 0 -21 -11t-10 -23h-75q0 63 30.5 87.5t70.5 24.5q37 0 60.5 -19t51.5 -19q12 0 20.5 10.5t9.5 23.5z" />
    <glyph glyph-name="hungarumlaut.case" horiz-adv-x="373" 
d="M247 900h110l-93 -161h-77zM76 900h109l-92 -161h-77z" />
    <glyph glyph-name="dv_La.MAR" horiz-adv-x="810" 
d="M639 310q0 33 -25 58t-64 25t-61.5 -32t-22.5 -83v-140l-111 15l-1 125q0 51 -21.5 83t-72.5 32q-39 0 -64 -25t-25 -58q0 -54 25.5 -117t84.5 -182l-98 -34q-57 110 -89.5 186t-32.5 154q0 71 59 125t140 55q44 -1 83 -16t65 -43q16 19 37.5 32t46.5 19v94h-487l-16 97
h817l16 -97h-207v-98q58 -19 96 -66t38 -102q0 -78 -32.5 -154t-89.5 -186l-97 34q58 119 83.5 182t25.5 117z" />
    <glyph glyph-name="dv_Sha.MAR" horiz-adv-x="821" 
d="M592 0v583h-301v-52q85 -16 121.5 -72.5t36.5 -117.5q0 -69 -43.5 -115.5t-127.5 -76.5l96 -141q-29 -7 -58 -14.5t-57 -14.5q-23 39 -46 79l-46 80q-32 0 -58.5 5t-30.5 33q0 44 35.5 88.5t79.5 44.5q15 0 30 -21t22 -42q43 10 67 33.5t24 60.5q0 46 -34 72.5t-84 26.5
q-40 0 -74 -19t-50 -29l-43 87q16 13 47 29.5t71 24.5v51h-164l-8 48t-8 49h826l17 -97h-117v-599z" />
    <glyph glyph-name="dv_oldJha" horiz-adv-x="1054" 
d="M139 570q0 -17 12 -26t26 -9q10 0 21 5t16 12q0 23 -11 38.5t-28 15.5q-16 0 -26 -10.5t-10 -25.5zM542 0v227h-215q0 -42 -17.5 -60t-31.5 -18q-50 0 -94.5 34.5t-44.5 85.5q0 21 21.5 38t48.5 15v133q-9 -4 -19 -4.5t-17 -0.5q-57 0 -94 36t-37 90t40.5 87.5t93.5 33.5
q71 0 111.5 -47.5t40.5 -125.5v-202h214v261h-102q-4 24 -8.5 48t-8.5 49h626l16 -97h-400v-124q21 17 54.5 29.5t65.5 12.5q104 0 167.5 -62.5t63.5 -154.5q0 -100 -73.5 -157.5t-163.5 -57.5l-20 102q59 0 98.5 32t39.5 82t-33 82t-77 32q-52 0 -79.5 -23t-42.5 -45v-347z
" />
    <glyph glyph-name="dv_KSsa" horiz-adv-x="800" 
d="M251 587q-16 0 -27 -13t-11 -29q0 -22 10.5 -40t28.5 -32q17 16 27.5 34.5t10.5 37.5q0 18 -11.5 30t-27.5 12zM573 0v321h-62q-60 0 -128 9t-127 31q-36 -28 -64 -55t-28 -57q0 -43 33 -63.5t67 -20.5q7 0 17.5 1t20.5 2q-1 4 -1.5 10t-0.5 12q0 24 13 43t38 19
q43 0 80 -21.5t37 -60.5q0 -14 -9 -32.5t-21 -31.5q16 -28 34.5 -58.5t34.5 -56.5q-24 -10 -48.5 -20t-48.5 -20l-66 119q-22 -6 -46 -8t-34 -1q-84 0 -150 45t-66 141q0 55 37 94t82 70q-30 25 -47.5 57.5t-17.5 73.5q0 53 41.5 99t113.5 46q69 0 107.5 -41t38.5 -95
q0 -34 -16.5 -63t-41.5 -54q41 -10 85.5 -13.5t81.5 -3.5h61v263h223l16 -97h-117v-599z" />
    <glyph glyph-name="dv_JNya" horiz-adv-x="813" 
d="M584 0v369h-131q11 -19 17.5 -43t6.5 -52q0 -112 -72 -163t-157 -51h-10.5t-10.5 1l76 -94l-80 -58l-126 168q-31 13 -60.5 43t-29.5 70q0 25 17.5 41t42.5 16q37 0 68 -23.5t43 -55.5q15 -3 29.5 -4.5t29.5 -1.5q57 0 90.5 30t33.5 78q0 43 -26.5 71t-82.5 28h-60
l-17 97h409v117h-579l-16 97h819l16 -97h-116v-599z" />
    <glyph glyph-name="dv_Jha.NEP" horiz-adv-x="508" 
d="M196 145q-8 0 -16.5 0.5t-16.5 0.5q-23 0 -39.5 9.5t-16.5 28.5q0 43 35.5 87.5t79.5 44.5q16 0 30 -22t22 -41q39 8 62.5 31.5t23.5 60.5q0 42 -31 64t-82 23q-10 -42 -43 -70.5t-82 -28.5q-30 0 -57.5 8.5t-51.5 29.5q11 19 23 38t23 38q13 -10 25 -14t22 -4
q22 0 31 15t9 37q0 20 -18 53t-36 49h-87l-8 48t-8 49h513l16 -97h-312q9 -9 17 -22.5t13 -28.5q117 -1 179 -55.5t62 -135.5q0 -66 -44 -116t-125 -69l50 -78l50 -78q-28 -7 -57 -14.5t-57 -14.5q-24 43 -49 87t-49 87z" />
    <glyph glyph-name="dv_Reph" horiz-adv-x="0" 
d="M-118 674h-117q-21 22 -34.5 60.5t-13.5 69.5q0 59 42 106.5t111 47.5q43 0 77.5 -17t50.5 -33l-47 -80q-13 11 -28 20t-36 9q-28 0 -43.5 -21.5t-15.5 -46.5q0 -34 17.5 -65t36.5 -50z" />
    <glyph glyph-name="dv_Reph.MAR" horiz-adv-x="499" 
d="M510 583h-505l-16 97h504zM397 410l85 -52q-40 -79 -102 -109.5t-131 -30.5t-130.5 31t-101.5 109l85 52q24 -51 66.5 -74t80.5 -23q39 0 79 21.5t69 75.5z" />
    <glyph glyph-name="dv_Rakar" horiz-adv-x="0" 
d="M81 -170l-77 50l141 134h89l141 -134l-72 -50l-110 104z" />
    <glyph glyph-name="dv_MatraI.1" 
d="M833 701q-87 54 -245.5 100.5t-266.5 46.5q-68 0 -102.5 -28t-34.5 -64q0 -31 10.5 -50t16.5 -26h115l18 -97h-117v-599l-124 16v583h-98l-16 97h99q-7 10 -14 31t-7 54q0 79 63 131t176 52q147 0 325.5 -61.5t246.5 -109.5z" />
    <glyph glyph-name="dv_MatraI.2" 
d="M1083 701q-101 32 -362 89.5t-408 57.5q-67 0 -98 -28t-31 -64q0 -31 10.5 -50t16.5 -26h115l18 -97h-117v-599l-124 16v583h-98l-16 97h99q-7 10 -14 31t-7 54q0 79 59.5 131t172.5 52q183 0 459.5 -70t369.5 -101z" />
    <glyph glyph-name="dv_MatraI.3" 
d="M925 701q-101 37 -306 92t-304 55q-68 0 -99.5 -28t-31.5 -64q0 -31 10.5 -50t16.5 -26h115l18 -97h-117v-599l-124 16v583h-98l-16 97h99q-7 10 -14 31t-7 54q0 79 60 131t173 52q129 0 359 -68.5t311 -102.5z" />
    <glyph glyph-name="dv_MatraI.4" 
d="M569 701q-57 50 -125 98.5t-152 48.5q-60 0 -84 -28t-24 -64q0 -31 10.5 -50t16.5 -26h115l18 -97h-117v-599l-124 16v583h-98l-16 97h99q-7 10 -14 31t-7 54q0 79 52.5 131t156.5 52q112 0 203 -63t135 -108z" />
    <glyph glyph-name="dv_MatraIReph" 
d="M863 674h-118q-7 7 -14 17.5t-11 20.5q-87 53 -202.5 94.5t-207.5 41.5q-61 0 -94 -28t-33 -64q0 -31 11 -50t16 -26h116l17 -97h-116v-599l-124 16v583h-98l-16 97h99q-7 10 -14 31t-7 53q0 80 61 132t168 52q97 0 209 -38.5t194 -81.5q8 52 49 91t103 39q43 0 77 -17
t50 -33l-46 -80q-14 11 -28.5 20t-35.5 9q-28 0 -44 -21.5t-16 -46.5q0 -34 18 -65t37 -50z" />
    <glyph glyph-name="dv_MatraIReph.1" 
d="M953 674h-117q-8 7 -15 17.5t-11 21.5q-90 53 -239 94t-250 41q-68 0 -103 -28t-35 -64q0 -31 11 -50t16 -26h116l17 -97h-116v-599l-124 16v583h-98l-16 97h99q-7 10 -14 31t-7 53q0 80 63 132t176 52q114 0 252 -39.5t231 -83.5q7 53 48 93t104 40q43 0 77.5 -17
t50.5 -33l-47 -80q-13 11 -28 20t-36 9q-28 0 -43.5 -21.5t-15.5 -46.5q0 -34 17.5 -65t36.5 -50z" />
    <glyph glyph-name="dv_MatraIReph.2" 
d="M1161 674h-117q-9 9 -16.5 20.5t-13.5 25.5q-132 37 -351 82t-346 45q-69 0 -101.5 -27t-32.5 -64q0 -31 11 -50t16 -26h116q2 -10 9 -48.5t8 -48.5h-116v-599l-124 16v583h-98q-2 10 -8 48.5t-8 48.5h99q-7 10 -14 31t-7 53q0 80 59.5 132t172.5 52q140 0 347.5 -45.5
t350.5 -86.5q7 54 46.5 98t105.5 44q43 0 77.5 -17t50.5 -33l-47 -80q-13 11 -28 20t-36 9q-28 0 -43.5 -21.5t-15.5 -46.5q0 -34 17.5 -65t36.5 -50z" />
    <glyph glyph-name="dv_MatraIReph.3" 
d="M1031 674h-118q-7 7 -14.5 18t-12.5 23q-113 38 -295 85t-275 47q-69 0 -101 -27.5t-32 -63.5q0 -31 11 -50t16 -26h116q2 -10 9 -48.5t8 -48.5h-116v-599l-124 16v583h-98q-2 10 -8 48.5t-8 48.5h99q-7 10 -14 31t-7 53q0 81 61 132.5t174 51.5q101 0 272.5 -46.5
t291.5 -86.5q5 54 46 98.5t107 44.5q43 0 77 -17t50 -33l-46 -80q-14 11 -28.5 20t-35.5 9q-28 0 -44 -21.5t-16 -46.5q0 -34 18 -65t37 -50z" />
    <glyph glyph-name="dv_MatraIReph.4" 
d="M669 674h-117q-13 13 -23.5 33.5t-16.5 41.5q-48 40 -102 69.5t-118 29.5q-60 0 -84.5 -28t-24.5 -64q0 -31 11 -50t16 -26h116l17 -97h-116v-599l-124 16v583h-98l-16 97h99q-7 10 -14 31t-7 53q0 80 52.5 132t156.5 52q68 0 129 -26.5t110 -60.5q16 41 53.5 69t88.5 28
q43 0 77.5 -17t50.5 -33l-47 -80q-13 11 -28 20t-36 9q-28 0 -43.5 -21.5t-15.5 -46.5q0 -34 17.5 -65t36.5 -50z" />
    <glyph glyph-name="dv_MatraIi.1" 
d="M-370 746q-28 -7 -55.5 -13.5t-55.5 -12.5q-12 16 -20 37.5t-8 51.5q0 59 51.5 99t149.5 40q173 0 324.5 -92t193.5 -176h115q4 -25 8.5 -49t8.5 -48h-116v-599l-124 16v583h-98l-8 48t-8 49h98q-29 49 -146 108t-243 59q-44 0 -65.5 -17t-21.5 -30q0 -18 5 -29t15 -25z
" />
    <glyph glyph-name="dv_MatraIi.2" 
d="M-193 746q-28 -7 -55.5 -13.5t-55.5 -12.5q-12 16 -19.5 38.5t-7.5 52.5q0 57 46 97t120 40q118 0 227 -90.5t148 -177.5h115q4 -25 8.5 -49t8.5 -48h-116v-599l-124 16v583h-98l-8 48t-8 49h98q-22 49 -91.5 108t-147.5 59q-31 0 -45 -17t-14 -31q0 -17 5 -28t14 -25z
" />
    <glyph glyph-name="dv_MatraIiReph.1" 
d="M-370 746q-28 -7 -55.5 -13.5t-55.5 -12.5q-12 16 -20 37.5t-8 51.5q0 59 51.5 99t149.5 40q99 0 196 -35t171 -84q10 50 49 89.5t101 39.5q44 0 78 -17t50 -33l-46 -80q-14 11 -29 20t-35 9q-28 0 -44 -21.5t-16 -46.5q0 -31 15.5 -60.5t33.5 -48.5h109q4 -25 8.5 -49
t8.5 -48h-116v-599l-124 16v583h-98l-8 48t-8 49h98q-29 49 -146 108t-243 59q-44 0 -65.5 -17t-21.5 -30q0 -18 5 -29t15 -25z" />
    <glyph glyph-name="dv_MatraIiReph.2" 
d="M-193 746q-28 -7 -55.5 -13.5t-55.5 -12.5q-12 16 -19.5 38.5t-7.5 52.5q0 57 46 97t120 40q60 0 121 -27.5t112 -67.5q13 43 51.5 74t92.5 31q43 0 77.5 -17t50.5 -33l-47 -80q-13 11 -28 20t-36 9q-28 0 -43.5 -21.5t-15.5 -46.5q0 -31 15 -60.5t33 -48.5h107
q4 -25 8.5 -49t8.5 -48h-116v-599l-124 16v583h-98l-8 48t-8 49h98q-22 49 -91.5 108t-147.5 59q-31 0 -45 -17t-14 -31q0 -17 5 -28t14 -25z" />
    <glyph glyph-name="dv_MatraIiReph" 
d="M-76 746q-28 -7 -56.5 -13.5t-56.5 -12.5q-12 16 -19.5 38.5t-7.5 52.5q0 57 44 97t113 40q43 0 79 -18t67 -47q19 32 52.5 53.5t77.5 21.5t78 -17t50 -33l-46 -80q-14 11 -29 20t-35 9q-28 0 -44 -21.5t-16 -46.5q0 -29 13.5 -57.5t22.5 -51.5h115q4 -25 8.5 -49
t8.5 -48h-116v-599l-124 16v583h-98l-8 48t-8 49h98q-16 47 -52 107t-90 60q-22 0 -32.5 -14.5t-10.5 -29.5q0 -16 6 -29.5t16 -27.5z" />
    <glyph glyph-name="dv_MatraEReph" horiz-adv-x="0" 
d="M-59 620h-141l-291 269q10 7 45.5 35t45.5 35l130 -130q8 41 40.5 73.5t83.5 32.5q35 0 62.5 -9.5t49.5 -29.5l-44 -75q-14 9 -26 13.5t-23 4.5q-24 0 -33.5 -17t-9.5 -37q0 -18 13 -48t28 -49z" />
    <glyph glyph-name="dv_MatraAiReph" horiz-adv-x="0" 
d="M-114 674h-108q-46 46 -81 63t-102 17h-69q-6 26 -12 52.5t-11 52.5h122q34 -1 62.5 -7.5t59.5 -30.5q-13 40 -26.5 81.5t-26.5 81.5l112 33q5 -21 9.5 -41.5t9.5 -40.5q12 7 27 12t31 5q35 0 62.5 -10t48.5 -29l-45 -75q-13 9 -25 14t-24 5q-22 0 -32.5 -17t-10.5 -36
v-6z" />
    <glyph glyph-name="dv_MatraOReph" 
d="M-11 680h80l-226 209q23 17 46 34.5t45 35.5l125 -126q12 49 50 87t99 38q43 0 77.5 -17t50.5 -33l-47 -80q-13 11 -28 20t-36 9q-28 0 -43.5 -21.5t-15.5 -46.5q0 -31 15 -60.5t33 -48.5h112q4 -25 8.5 -49t8.5 -48h-116v-599l-124 16v583h-98l-8 48t-8 49z" />
    <glyph glyph-name="dv_MatraAuReph" 
d="M217 680h109q4 -25 8.5 -49t8.5 -48h-116v-599l-124 16v583h-98l-8 48t-8 49h116q-48 45 -74.5 59.5t-77.5 14.5h-97l-22 105h124q34 -1 62.5 -7.5t58.5 -30.5q-13 40 -26.5 81.5t-26.5 81.5l113 33q4 -21 9 -41.5t10 -40.5q16 10 35 16.5t41 6.5q43 0 77.5 -17t50.5 -33
l-47 -80q-13 11 -28 20t-36 9q-28 0 -43.5 -20.5t-15.5 -44.5z" />
    <glyph glyph-name="dv_RakarMatraU" horiz-adv-x="0" 
d="M81 -170l-77 50l141 134h89l141 -134l-72 -50l-110 104zM8 -239q53 -61 95 -98t91 -37q31 0 47.5 16t16.5 41t-17 41.5t-47 16.5h-69v96h79q58 0 108 -40.5t50 -113.5q0 -72 -50 -113t-119 -41q-72 0 -138.5 49t-120.5 133z" />
    <glyph glyph-name="dv_RakarMatraUu" horiz-adv-x="0" 
d="M81 -170l-77 50l141 134h89l141 -134l-72 -50l-110 104zM380 -395q-53 61 -95 98t-91 37q-31 0 -47.5 -16t-16.5 -40q0 -25 17.5 -42t46.5 -17h69v-96h-78q-59 0 -109 41t-50 114q0 72 50.5 112.5t119.5 40.5q71 0 137.5 -48.5t119.5 -132.5z" />
    <glyph glyph-name="dv_KRa" horiz-adv-x="905" 
d="M162 300q0 -49 35.5 -81t80.5 -32q43 0 71.5 20.5t44.5 43.5v98q-16 24 -44.5 44.5t-71.5 20.5q-44 0 -79.5 -32t-36.5 -82zM197 97q-69 20 -111 74t-42 129q0 91 63 153.5t167 62.5q32 0 68 -13.5t52 -31.5v112h-389l-16 97h912l15 -97h-399v-111q16 16 51 30.5t69 14.5
q104 0 167.5 -62.5t63.5 -154.5q0 -100 -73 -157.5t-164 -57.5l-20 102q59 0 98 32t39 82t-32.5 82t-76.5 32q-51 0 -79 -23t-43 -45v-363l-123 16v96l-254 -151l-81 71z" />
    <glyph glyph-name="dv_KRa.NEP" horiz-adv-x="878" 
d="M582 167q60 0 99 32t39 82t-32.5 81.5t-75.5 31.5q-52 0 -79.5 -23t-43.5 -45v-342l-123 16v196l-216 -129q-17 22 -33.5 45.5t-33.5 45.5l253 150q-46 46 -81 59.5t-66 13.5q-13 0 -43.5 -10t-63.5 -25l-47 103q37 19 88 28.5t72 9.5q37 0 80 -11.5t91 -50.5v158h-361
l-8 48t-8 49h885l16 -97h-401v-128q21 17 54.5 29t65.5 12q104 0 167.5 -62t63.5 -154q0 -100 -73.5 -157.5t-163.5 -57.5z" />
    <glyph glyph-name="dv_KhRa" horiz-adv-x="944" 
d="M228 260q13 -54 79 -105.5t167 -51.5q43 0 67.5 10t52.5 35q-72 8 -120 59.5t-48 120.5q0 87 60 139t159 52q19 -1 37 -5.5t34 -11.5v81h-369q13 -27 20 -58t7 -59q0 -69 -40.5 -126t-105.5 -80zM551 329q0 -43 25 -65.5t57 -22.5q33 0 57.5 23t24.5 64v2q-1 41 -26 64
t-56 23q-32 0 -57 -23.5t-25 -64.5zM432 -96l-83 68l59 42q-126 23 -203.5 84t-93.5 148h-30q-20 0 -34.5 10.5t-16.5 27.5q0 43 38.5 87.5t84.5 44.5q16 0 26.5 -18.5t17.5 -39.5q25 12 44 41.5t19 66.5q0 35 -12 66.5t-32 50.5h-211l-8 48t-8 49h951l15 -97h-116v-599
l-123 16v117z" />
    <glyph glyph-name="dv_GRa" horiz-adv-x="677" 
d="M448 0v159l-278 -213l-81 69q90 66 179.5 133t179.5 133v302h-199v-352q0 -31 -12.5 -49t-37.5 -18q-53 0 -97.5 46t-44.5 87q0 22 22 34.5t47 12.5v239h-121l-8 48t-8 49h682l16 -97h-116v-599z" />
    <glyph glyph-name="dv_GhRa" horiz-adv-x="711" 
d="M188 262q0 -37 29 -59t72 -22q18 0 35 2.5t33 8.5l126 99v292h-259q-15 -7 -22.5 -23t-7.5 -33q0 -34 26 -57t75 -23h46l20 -94h-59q-59 0 -86.5 -27t-27.5 -64zM204 -55l-81 70l89 69q-68 16 -107 64.5t-39 115.5q0 45 17.5 82t50.5 57q-26 20 -41.5 54.5t-15.5 71.5
q0 11 4 26t10 28h-86l-16 97h716l17 -97h-116v-599l-123 16v168z" />
    <glyph glyph-name="dv_CRa" horiz-adv-x="720" 
d="M493 0v132l-282 -182l-81 71l163 101q-71 15 -117 63.5t-46 128.5q0 28 8 52.5t21 44.5h-108l-15 98h356l16 -97l-37 -1q-65 -1 -96.5 -27t-31.5 -70q0 -46 35 -72.5t86 -26.5q43 0 81 23t48 60v285h-488l-16 97h726l16 -97h-116v-599z" />
    <glyph glyph-name="dv_JRa" horiz-adv-x="848" 
d="M620 369h-183q10 -19 17 -43t7 -52q0 -112 -73.5 -163t-163.5 -51q-61 0 -116 20.5t-93 45.5l22 110q45 -34 92 -54t91 -21q57 0 90.5 31.5t33.5 76.5q0 43 -26 71.5t-83 28.5h-60l-16 97h461v117h-615l-8 48t-8 49h854q4 -25 8 -49l8 -48h-117v-599l-122 16v149
l-219 -211q-20 18 -41 35.5t-40 34.5l300 277v84z" />
    <glyph glyph-name="dv_JhRa" horiz-adv-x="919" 
d="M690 583h-238v-164h-231q-25 0 -40 -14t-15 -33t16 -33.5t41 -14.5h81q54 0 97 -14t70 -42q54 0 109.5 0.5t109.5 0.5v314zM221 89q13 -2 27.5 -3.5t30.5 -1.5q57 0 82 22.5t25 50.5t-18.5 47t-55.5 19h-93q-63 0 -116 40.5t-53 108.5q0 72 48.5 110.5t119.5 38.5h113v62
h-326l-8 48t-8 49h925q4 -25 8 -49l8 -48h-117v-599l-123 16v123l-111 -146l-95 48q32 37 65.5 76t65.5 77h-107q1 -5 2 -10.5t1 -10.5q0 -59 -46 -106.5t-129 -60.5q-16 -2 -33 -3l-34 -2l77 -96q-20 -14 -40.5 -28.5t-40.5 -29.5l-126 167q-30 14 -60 43t-30 70
q0 25 17.5 41t43.5 16q38 0 68.5 -23.5t42.5 -55.5z" />
    <glyph glyph-name="dv_TRa" horiz-adv-x="595" 
d="M489 583v-599l-123 16v193l-216 -129q-17 22 -33.5 45.5t-33.5 45.5l253 150q-46 46 -81 59.5t-66 13.5q-13 0 -43.5 -10t-63.5 -25l-47 103q31 15 79.5 27t67.5 12q40 0 86 -9t98 -54v161h-361l-8 48t-8 49h600l17 -97h-117z" />
    <glyph glyph-name="dv_TRa.alt" horiz-adv-x="709" 
d="M482 0v277l-125 -137l-82 70l159 158h-152q-51 0 -77 -19t-26 -56q0 -46 42 -117.5t102 -163.5l-110 -33q-51 73 -103 159.5t-52 158.5t48 121t135 49h241v116h-477l-16 97h716l16 -97h-116v-599z" />
    <glyph glyph-name="dv_ThRa" horiz-adv-x="703" 
d="M204 591q-4 8 -13.5 16.5t-20.5 8.5q-15 0 -26 -9.5t-11 -25.5q0 -13 9.5 -21.5t20.5 -8.5q19 0 29.5 11.5t11.5 28.5zM240 516q-6 -17 -29.5 -29.5t-51.5 -12.5q-45 0 -79.5 27.5t-34.5 75.5q0 52 38 86t98 34q65 0 113 -50.5t48 -125.5q0 -86 -38 -126.5t-81 -65.5
q13 -25 44 -47t80 -22t86 28t42 77v218h-82l-8 48t-8 49h321q4 -25 8 -49l8 -48h-116v-599l-123 16v186q-73 -59 -147.5 -118t-147.5 -117q-19 17 -40 35t-41 34l193 144h-1q-75 19 -132 72t-57 124q6 8 12 15.5t12 14.5q54 22 81 50t33 76z" />
    <glyph glyph-name="dv_DRa" horiz-adv-x="620" 
d="M578 -3l-97 -40l-32 60t-32 59l-32 -32q-19 -31 -37 -63t-35 -63l-114 28l78 124q-101 12 -164.5 69t-63.5 160q0 116 85.5 170.5t211.5 54.5h14v59h-355l-8 48t-8 49h626l15 -97h-147v-158h-101q-93 0 -156 -27t-63 -99q0 -63 49.5 -95.5t122.5 -32.5q8 0 18 0.5t21 1.5
q-1 5 -1.5 11t-0.5 11q0 33 20.5 46t52.5 13q26 0 61.5 -19.5t35.5 -53.5q0 -16 -8.5 -35t-23.5 -35q16 -28 34 -58t34 -56z" />
    <glyph glyph-name="dv_DhRa" horiz-adv-x="754" 
d="M526 0v169q-69 -56 -139.5 -112t-139.5 -111q-20 17 -40.5 35t-40.5 34l76 60q-86 17 -132.5 65t-46.5 117q0 46 21.5 87.5t58.5 58.5q-28 16 -47 52.5t-19 73.5q0 64 49.5 114.5t131.5 50.5q48 0 80.5 -17.5t50.5 -36.5l-57 -79q-16 15 -33 20.5t-37 5.5
q-28 0 -46.5 -18.5t-18.5 -43.5q0 -34 25 -56.5t74 -22.5h33q7 -23 16 -46.5t17 -46.5h-60q-58 0 -88 -25t-30 -66q0 -38 35 -65.5t92 -27.5q20 0 39 4t38 11l138 106v293h-86l-16 97h325l16 -97h-116v-599z" />
    <glyph glyph-name="dv_NRa" horiz-adv-x="626" 
d="M520 -16l-123 16v201q-60 -63 -121.5 -125.5t-122.5 -124.5q-19 17 -40 35t-41 34q69 69 139.5 137t139.5 136l-173 82q-11 -17 -27.5 -42t-41.5 -25q-37 0 -63 47.5t-26 81.5q0 33 13.5 58.5t42.5 25.5q8 0 17.5 -2.5t19.5 -6.5l284 -134v205h-392l-8 48t-8 49h632
l16 -97h-117v-599z" />
    <glyph glyph-name="dv_PRa" horiz-adv-x="672" 
d="M444 363v220h-240v-206q0 -54 30 -85.5t87 -31.5q49 0 83 27.5t40 75.5zM444 0v175l-281 -224l-81 69l189 142q-81 16 -135.5 69t-54.5 146v206h-76l-8 48t-8 49h678q4 -25 8 -49l8 -48h-116v-599z" />
    <glyph glyph-name="dv_PhRa" horiz-adv-x="954" 
d="M444 363v220h-240v-206q0 -54 30 -85.5t87 -31.5q49 0 83 27.5t40 75.5zM660 167q60 0 99 32t39 82t-32.5 81.5t-76.5 31.5q-51 0 -78.5 -22.5t-43.5 -44.5v-343l-123 16v175l-281 -224l-81 69l189 142q-81 15 -135.5 69t-54.5 146v206h-76l-8 48t-8 49h961q4 -25 8 -49
l8 -48h-399v-127q21 16 54.5 28t64.5 12q104 0 167.5 -62t63.5 -154q0 -100 -73 -157.5t-164 -57.5z" />
    <glyph glyph-name="dv_BRa" horiz-adv-x="626" 
d="M398 346q-16 23 -44.5 46t-78.5 23q-11 0 -21.5 -2.5t-20.5 -7.5l152 -172q4 4 7 8.5t6 9.5v95zM185 369q-10 -14 -16.5 -31.5t-6.5 -38.5q0 -51 33.5 -84t79.5 -33q19 0 35.5 3.5t28.5 8.5q-39 43 -77.5 87.5t-76.5 87.5zM398 0v98l-258 -152l-81 69q34 20 67.5 40.5
t67.5 39.5q-67 22 -109 76t-42 127q0 92 65.5 155t169.5 63q32 0 65 -12t55 -28v107h-393l-8 48t-8 49h632l16 -97h-116v-599z" />
    <glyph glyph-name="dv_BhRa" horiz-adv-x="770" 
d="M139 570q0 -17 12 -26t26 -9q10 0 21 5t16 12q0 23 -11 38.5t-28 15.5q-16 0 -26 -10.5t-10 -25.5zM542 0v186l-144 -118t-144 -117q-20 17 -40.5 35t-40.5 34l270 207h-116q0 -32 -17.5 -55t-31.5 -23q-50 0 -94.5 34.5t-44.5 85.5q0 21 20 37t50 16v133q-9 -4 -19 -4.5
t-17 -0.5q-57 0 -94 36t-37 90t40.5 87.5t93.5 33.5q71 0 111.5 -47.5t40.5 -125.5v-202h214v261h-102q-4 24 -8.5 48t-8.5 49h342l16 -97h-116v-599z" />
    <glyph glyph-name="dv_MRa" horiz-adv-x="681" 
d="M453 583h-220v-261h220v261zM576 -16l-123 16v186l-144 -118t-144 -117q-19 17 -40 35t-41 34q67 51 135.5 103.5t134.5 103.5h-132q0 -33 -13 -55.5t-27 -22.5q-50 0 -94 34.5t-44 85.5q0 21 16.5 37t53.5 16v261h-109l-8 48t-8 49h687q4 -25 8 -49l8 -48h-116v-599z
" />
    <glyph glyph-name="dv_YRa" horiz-adv-x="654" 
d="M426 583h-199q10 -16 17 -40.5t7 -50.5q0 -46 -19.5 -87t-60.5 -69q12 -25 43 -50.5t83 -25.5q50 0 87 28t42 77v218zM54 360q17 19 52 46t35 92q0 30 -16 53t-40 32h-80l-8 48t-8 49h661l15 -97h-116v-599l-123 16v178q-71 -57 -142.5 -114t-142.5 -113q-19 17 -40 35
t-41 34q48 36 96 71.5t95 71.5q-75 15 -136 70.5t-61 126.5z" />
    <glyph glyph-name="dv_LRa" horiz-adv-x="861" 
d="M632 0v175l-179 -225l-81 71l255 307q-8 31 -28.5 49.5t-49.5 18.5q-38 0 -60.5 -33.5t-22.5 -84.5v-99l-111 15l-1 84q0 51 -21.5 83t-72.5 32q-39 0 -64 -25t-25 -58q0 -54 25.5 -117t84.5 -182l-98 -34q-57 110 -89.5 186t-32.5 154q0 71 59 125t140 55q44 -1 83 -16
t65 -43q25 29 62.5 44t79.5 15q21 0 43.5 -6t38.5 -16v108h-627l-16 97h866l17 -97h-117v-599z" />
    <glyph glyph-name="dv_VRa" horiz-adv-x="622" 
d="M162 301q0 -51 32 -82.5t77 -32.5q55 0 81 23t42 46v91q-16 22 -42 45t-81 23q-44 0 -76 -32t-33 -81zM394 0v96l-254 -151l-81 71l137 80q-69 20 -110.5 74.5t-41.5 129.5q0 91 63 153.5t167 62.5q32 0 65.5 -12t54.5 -29v108h-389l-16 97h628l16 -97h-116v-599z" />
    <glyph glyph-name="dv_ShRa" horiz-adv-x="688" 
d="M293 551q0 18 -10.5 29t-27.5 11q-16 0 -27 -11t-11 -29q0 -16 8 -33t30 -39q21 21 29.5 39t8.5 33zM108 553q0 60 43.5 100t103.5 40q61 0 104 -40t43 -100q0 -33 -14.5 -73t-48.5 -68l121 -94v362h223l16 -97h-117v-599l-122 16v180l-280 -197l-42 101l237 167l-120 91
q-45 -35 -90.5 -71.5t-91.5 -71.5l-48 99l147 114q-27 28 -45.5 62.5t-18.5 78.5z" />
    <glyph glyph-name="dv_SsRa" horiz-adv-x="673" 
d="M445 373v210h-186l185 -221q1 3 1 5.5v5.5zM204 377q0 -54 30 -85.5t87 -31.5q28 0 52.5 9.5t40.5 25.5q-49 61 -105 129.5t-105 127.5v-175zM445 0v176l-282 -225l-81 69l189 142q-81 16 -135.5 69t-54.5 146v206h-76l-8 48t-8 49h679q4 -25 8 -49l8 -48h-116v-599z" />
    <glyph glyph-name="dv_SRa" horiz-adv-x="801" 
d="M573 583h-217q13 -27 20 -59t7 -60t-5.5 -52t-18.5 -46h214v217zM509 274h-235q-9 -5 -18.5 -9.5t-19.5 -7.5l102 -163zM276 -20q-38 65 -75.5 131t-75.5 132q-34 0 -59 5.5t-29 33.5q0 43 35.5 87.5t79.5 44.5q15 0 28.5 -21t19.5 -39q32 15 50 45.5t18 66.5
q0 35 -12 66.5t-32 50.5h-219l-8 48t-8 49h808q4 -25 8 -49l8 -48h-117v-599l-123 16v203l-181 -194q-29 -7 -58 -14.5t-58 -14.5z" />
    <glyph glyph-name="dv_HRa" horiz-adv-x="551" 
d="M227 177l37 123q-36 -7 -57.5 -32.5t-21.5 -59.5q0 -61 65 -91t135 -34l-27 -99q-114 6 -199.5 64t-85.5 160q0 36 11 67t33 55q-19 16 -28.5 38.5t-9.5 52.5q0 64 44 95.5t107 31.5h87v35h-314q-3 24 -6.5 48t-7.5 49h556l17 -97h-114v-128h-205q-23 0 -34 -8.5
t-11 -23.5q0 -10 5.5 -18.5t15.5 -12.5q16 4 33.5 6.5t36.5 2.5q98 0 153.5 -47t55.5 -112q0 -36 -14.5 -70.5t-48.5 -56.5q-20 15 -40 29t-39 29q16 13 23 29t7 36q0 13 -6.5 23t-16.5 17l-40 -122z" />
    <glyph glyph-name="dv_QRa" horiz-adv-x="905" 
d="M162 300q0 -49 35.5 -81t80.5 -32q43 0 71.5 20.5t44.5 43.5v98q-16 24 -44.5 44.5t-71.5 20.5q-44 0 -79.5 -32t-36.5 -82zM197 97q-69 20 -111 74t-42 129q0 91 63 153.5t167 62.5q32 0 68 -13.5t52 -31.5v112h-389l-16 97h912l15 -97h-399v-111q16 16 51 30.5t69 14.5
q104 0 167.5 -62.5t63.5 -154.5q0 -100 -73 -157.5t-164 -57.5l-20 102q59 0 98 32t39 82t-32.5 82t-76.5 32q-51 0 -79 -23t-43 -45v-363l-123 16v97l-238 -140l-97 59zM315 -139q-31 0 -52 20.5t-21 50.5q0 29 21 50.5t52 21.5q29 0 50 -21.5t21 -50.5q0 -30 -21 -50.5
t-50 -20.5z" />
    <glyph glyph-name="dv_KhhRa" horiz-adv-x="944" 
d="M228 260q13 -54 79 -105.5t167 -51.5q43 0 73 10.5t47 34.5q-72 8 -120 59.5t-48 120.5q0 87 60 139t159 52q19 -1 37 -5.5t34 -11.5v81h-369q13 -27 20 -58t7 -59q0 -69 -40.5 -126t-105.5 -80zM551 329q0 -43 25 -65.5t57 -22.5q33 0 57.5 23t24.5 64v2q-1 41 -26 64
t-56 23q-32 0 -57 -23.5t-25 -64.5zM432 -96l-83 68l59 42q-126 23 -203.5 84t-93.5 148h-30q-20 0 -34.5 10.5t-16.5 27.5q0 43 38.5 87.5t84.5 44.5q16 0 26.5 -18.5t17.5 -39.5q25 12 44 41.5t19 66.5q0 35 -12 66.5t-32 50.5h-211l-8 48t-8 49h951l15 -97h-116v-599
l-123 16v117zM107 -63q-30 0 -51 21t-21 50t21 50t51 21q29 0 50 -21t21 -50t-21 -50t-50 -21z" />
    <glyph glyph-name="dv_GhhRa" horiz-adv-x="677" 
d="M448 0v159l-278 -213l-81 69q90 66 179.5 133t179.5 133v302h-199v-352q0 -31 -12.5 -49t-37.5 -18q-53 0 -97.5 46t-44.5 87q0 22 22 34.5t47 12.5v239h-121l-8 48t-8 49h682l16 -97h-116v-599zM353 -129q-31 0 -51.5 21t-20.5 51q0 29 20.5 49.5t51.5 20.5
q29 0 50 -20.5t21 -49.5q0 -30 -21 -51t-50 -21z" />
    <glyph glyph-name="dv_ZRa" horiz-adv-x="848" 
d="M620 369h-183q10 -19 17 -43t7 -52q0 -112 -73.5 -163t-163.5 -51q-61 0 -116 20.5t-93 45.5l22 110q45 -34 92 -54t91 -21q57 0 90.5 31.5t33.5 76.5q0 43 -26 71.5t-83 28.5h-60l-16 97h461v117h-615l-8 48t-8 49h854q4 -25 8 -49l8 -48h-117v-599l-122 16v149
l-219 -211q-20 18 -41 35.5t-40 34.5l300 277v84zM141 -138q-30 0 -50.5 20.5t-20.5 50.5q0 29 20.5 50t50.5 21t51.5 -21t21.5 -50q0 -30 -21.5 -50.5t-51.5 -20.5z" />
    <glyph glyph-name="dv_FRa" horiz-adv-x="954" 
d="M444 363v220h-240v-206q0 -54 30 -85.5t87 -31.5q49 0 83 27.5t40 75.5zM660 167q60 0 99 32t39 82t-32.5 81.5t-76.5 31.5q-51 0 -78.5 -22.5t-43.5 -44.5v-343l-123 16v175l-281 -224l-81 69l189 142q-81 15 -135.5 69t-54.5 146v206h-76l-8 48t-8 49h961q4 -25 8 -49
l8 -48h-399v-127q21 16 54.5 28t64.5 12q104 0 167.5 -62t63.5 -154q0 -100 -73 -157.5t-164 -57.5zM344 -106q-29 0 -50 21.5t-21 50.5t21 50t50 21q31 0 52 -21t21 -50t-21 -50.5t-52 -21.5z" />
    <glyph glyph-name="dv_YyRa" horiz-adv-x="654" 
d="M426 583h-199q10 -16 17 -40.5t7 -50.5q0 -46 -19.5 -87t-60.5 -69q12 -25 43 -50.5t83 -25.5q50 0 87 28t42 77v218zM54 360q17 19 52 46t35 92q0 30 -16 53t-40 32h-80l-8 48t-8 49h661l15 -97h-116v-599l-123 16v178q-71 -57 -142.5 -114t-142.5 -113q-19 17 -40 35
t-41 34q48 36 96 71.5t95 71.5q-75 15 -136 70.5t-61 126.5zM327 -106q-29 0 -50 21.5t-21 50.5t21 50t50 21q31 0 52 -21t21 -50t-21 -50.5t-52 -21.5z" />
    <glyph glyph-name="dv_KSsRa" horiz-adv-x="866" 
d="M251 587q-16 0 -27 -13t-11 -29q0 -22 10.5 -40t28.5 -32q17 16 27.5 34.5t10.5 37.5q0 18 -11.5 30t-27.5 12zM651 0v243l-76 -100l-95 48l111 130h-80q-60 0 -128 9t-127 31q-36 -28 -64 -55t-28 -57q0 -43 33 -63.5t67 -20.5q7 0 17.5 1t20.5 2q-1 4 -1.5 10t-0.5 12
q0 28 18 47.5t49 19.5q34 0 68.5 -22.5t34.5 -59.5q0 -16 -9 -34.5t-23 -34.5q16 -28 34.5 -58.5t34.5 -56.5q-24 -10 -48.5 -20t-48.5 -20l-66 119l-34 -5q-12 -1 -24 -3t-22 -1q-84 0 -150 45t-66 141q0 55 37 94t82 70q-30 25 -47.5 57.5t-17.5 73.5q0 53 41.5 99
t113.5 46q69 0 107.5 -41t38.5 -95q0 -34 -16.5 -63t-41.5 -54q54 -13 110.5 -15t97.5 -2h98v263h223v-49t1 -48h-102v-599z" />
    <glyph glyph-name="dv_KR.half" horiz-adv-x="688" 
d="M162 300q0 -49 35.5 -81t80.5 -32q43 0 71.5 20.5t44.5 43.5v98q-16 24 -44.5 44.5t-71.5 20.5q-44 0 -79.5 -32t-36.5 -82zM197 97q-69 20 -111 74t-42 129q0 91 63 153.5t167 62.5q32 0 68 -13.5t52 -31.5v112h-389l-16 97h693l17 -97h-182v-111q16 16 51 27t69 11h163
v-95h-161q-51 0 -79 -23t-43 -45v-363l-123 16v97l-238 -140l-97 59z" />
    <glyph glyph-name="dv_GhR.half" horiz-adv-x="376" 
d="M527 324l6 -116l-329 -263l-81 70l89 69q-68 16 -107 64.5t-39 115.5q0 45 17.5 82t50.5 57q-26 20 -41.5 54.5t-15.5 71.5q0 11 4 26t10 28h-86l-16 97h385l16 -97h-166q-15 -7 -22.5 -23t-7.5 -33q0 -34 26 -57t75 -23h46l20 -94h-59q-59 0 -86.5 -27t-27.5 -64t29 -59
t72 -22q18 0 35 2.5t33 8.5z" />
    <glyph glyph-name="dv_TR.half" horiz-adv-x="261" 
d="M273 583h-268l-8 48t-8 49h267zM366 193l-216 -129q-17 22 -33.5 45.5t-33.5 45.5l253 150q-46 46 -81 59.5t-66 13.5q-13 0 -43.5 -10t-63.5 -25l-47 103q34 17 84 27.5t67 10.5q40 0 84.5 -10t95.5 -52v-229z" />
    <glyph glyph-name="dv_TR.half.alt" horiz-adv-x="372" 
d="M382 583h-377l-16 97h377zM482 467v-67l45 -76l-170 -184l-83 70l159 158h-151q-51 0 -77 -19t-26 -56q0 -46 42 -117.5t102 -163.5l-110 -33q-51 73 -103 159.5t-52 158.5t48 121t135 49h241z" />
    <glyph glyph-name="dv_DhR.half" horiz-adv-x="418" 
d="M570 324l5 -116q-81 -66 -164 -131.5t-164 -130.5q-20 17 -40.5 35t-40.5 34l76 60q-87 17 -133.5 68.5t-46.5 120.5q0 44 23.5 84t57.5 55q-28 16 -47 52.5t-19 73.5q0 64 49.5 114.5t131.5 50.5q48 0 80.5 -17.5t50.5 -36.5l-57 -79q-16 15 -33 20.5t-37 5.5
q-19 0 -43.5 -18t-24.5 -45q0 -34 26.5 -56t75.5 -22h33q7 -23 16 -46.5t17 -46.5h-60q-58 0 -88 -25t-30 -66q0 -38 35 -65.5t92 -27.5q20 0 40.5 4t45.5 20q46 29 88 63.5t85 67.5z" />
    <glyph glyph-name="dv_PR.half" horiz-adv-x="336" 
d="M444 361l59 -26q-4 -31 -8.5 -63t-8.5 -63l-323 -258l-81 69l189 142q-83 18 -136.5 69.5t-53.5 145.5v206h-76l-8 48t-8 49h342l17 -97h-144v-206q0 -54 30 -85.5t87 -31.5q49 0 83 27.5t40 73.5z" />
    <glyph glyph-name="dv_VR.half" horiz-adv-x="513" 
d="M524 583h-519l-16 97h518zM195 96q-68 21 -109.5 76.5t-41.5 127.5q0 90 63 153t166 63q100 -1 163 -63t63 -152q0 -27 -6 -51t-16 -45l-9 -65l-328 -195l-81 71zM381 300q0 50 -32 82t-78 32t-77.5 -33t-31.5 -80q0 -51 32 -82.5t77 -32.5q47 0 78.5 33t31.5 81z" />
    <glyph glyph-name="dv_ShR.half" horiz-adv-x="356" 
d="M109 552q0 58 42 99.5t104 41.5q61 0 103.5 -41.5t42.5 -99.5q0 -32 -15 -72t-47 -68q28 -22 57 -44.5t57 -44.5l32 -43l3 -80l-308 -217l-42 101l237 167l-120 91q-45 -35 -90.5 -71.5t-91.5 -71.5l-48 99l147 114q-25 28 -44 61t-19 79zM293 551q0 18 -10.5 29
t-27.5 11q-16 0 -27 -11t-11 -29q0 -16 8 -33t30 -39q21 21 29.5 39t8.5 33z" />
    <glyph glyph-name="dv_SsR.half" horiz-adv-x="336" 
d="M467 335l19 -126l-323 -258l-81 69l189 142q-83 18 -136.5 69.5t-53.5 145.5v206h-76l-8 48t-8 49h341l17 -97h-88zM204 377q0 -54 30 -85.5t87 -31.5q28 0 52.5 9.5t40.5 25.5q-49 61 -105 129.5t-105 127.5v-175z" />
    <glyph glyph-name="dv_SR.half" horiz-adv-x="466" 
d="M611 366v-124l-219 -233q-29 -7 -58 -14.5t-58 -14.5q-38 65 -75.5 131t-75.5 132q-34 0 -59 5.5t-29 33.5q0 43 35.5 87.5t79.5 44.5q15 0 28.5 -21t19.5 -39q32 15 50 45.5t18 66.5q0 35 -12 66.5t-32 50.5h-219l-8 48t-8 49h472l17 -97h-122q13 -27 20 -59t7 -60
t-5.5 -52t-18.5 -46h252zM509 274h-235q-9 -5 -18.5 -9.5t-19.5 -7.5l102 -163z" />
    <glyph glyph-name="dv_GR.half" horiz-adv-x="341" 
d="M352 583h-103v-352q0 -31 -12.5 -49t-37.5 -18q-53 0 -97.5 46t-44.5 87q0 22 22 34.5t47 12.5v239h-121l-8 48t-8 49h346zM492 313l6 -116l-328 -251l-81 69q100 75 201.5 149t201.5 149z" />
    <glyph glyph-name="dv_DR.half" horiz-adv-x="620" 
d="M578 -3l-97 -40l-59 109q-6 -1 -15 -2t-12 -1q-19 -31 -42 -72.5t-40 -72.5l-114 28l78 124q-101 12 -164.5 69t-63.5 160q0 116 85.5 170.5t211.5 54.5h14v59h-355l-8 48t-8 49h626l15 -97h-147v-158h-101q-93 0 -156 -27t-63 -99q0 -63 49.5 -95.5t122.5 -32.5
q8 0 18 0.5t21 1.5q-1 5 -1.5 11t-0.5 11q0 33 20.5 46t52.5 13q26 0 61.5 -19.5t35.5 -53.5q0 -16 -8.5 -35t-23.5 -35q16 -28 34 -58t34 -56zM530 -348l-227 203q21 19 42 39t42 39l215 -216z" />
    <glyph glyph-name="dv_BhR.half" horiz-adv-x="437" 
d="M577 322v-108q-80 -66 -161 -132t-162 -131q-20 17 -40.5 35t-40.5 34l270 207h-116q0 -28 -17.5 -53t-31.5 -25q-51 0 -94.5 35t-43.5 89q0 31 21 40t48 9v133q-9 -4 -19 -4.5t-17 -0.5q-58 0 -94.5 35t-36.5 91q0 54 41 87.5t93 33.5q71 0 111.5 -47.5t40.5 -125.5
v-202h249zM139 570q0 -17 12 -26t26 -9q10 0 21 5t16 12q0 23 -11 38.5t-28 15.5q-16 0 -26 -10.5t-10 -25.5z" />
    <glyph glyph-name="dv_GRYa" horiz-adv-x="995" 
d="M767 583h-199q10 -16 17 -40.5t7 -50.5q0 -46 -19.5 -87t-60.5 -69q12 -25 43 -50.5t83 -25.5q50 0 87 28t42 77v218zM395 360q17 19 52 46t35 92q0 30 -16 53t-40 32h-177v-352q0 -31 -12.5 -49t-37.5 -18q-53 0 -97.5 46t-44.5 87q0 22 22 34.5t47 12.5v239h-121l-8 48
t-8 49h1002l15 -97h-116v-599l-123 16v191q-23 -14 -54.5 -24t-78.5 -10q-37 0 -71.5 10.5t-64.5 29.5l-328 -251l-81 69l337 249q-15 22 -23 46.5t-8 49.5z" />
    <glyph glyph-name="dv_ChRYa" horiz-adv-x="1406" 
d="M455 382q0 59 41 109t110 50q24 0 44.5 -5t36.5 -12h180q67 0 101 -31.5t34 -67.5q0 -44 -22 -66.5t-58 -43.5q13 -26 44 -50.5t83 -25.5q51 0 87.5 28t41.5 77v239h-919q-23 -12 -35.5 -32t-12.5 -44q0 -46 35.5 -78t107.5 -32h22l15 -88h-30q-84 0 -124 -30t-40 -84
q0 -52 48.5 -81t114.5 -29q85 0 147.5 40.5t90.5 92.5q-57 11 -100 55.5t-43 108.5zM611 450q-25 0 -39 -20t-14 -48q0 -36 28.5 -58.5t62.5 -23.5q10 15 15.5 35.5t5.5 40.5q0 28 -13.5 51t-45.5 23zM244 -170l-77 50l115 110q-96 13 -153 66t-57 136q0 51 31.5 98t91.5 60
q-55 18 -82 65.5t-27 92.5q0 20 5 39.5t14 35.5h-99l-17 97h1411l18 -97h-117v-599l-123 16v170q-23 -14 -54 -24t-78 -10q-93 0 -166.5 61.5t-73.5 141.5l22 25q25 8 45 14.5t20 25.5q0 15 -21.5 21.5t-47.5 6.5h-60q4 -13 6.5 -25.5t2.5 -24.5q0 -110 -89.5 -238
t-261.5 -154l116 -110l-72 -50l-112 104z" />
    <glyph glyph-name="dv_TtTtYa" horiz-adv-x="1165" 
d="M466 583v-69h160q67 0 99 -32.5t32 -66.5q0 -47 -21.5 -69t-53.5 -42q13 -25 43.5 -50.5t82.5 -25.5q51 0 87.5 28.5t41.5 78.5v248h-471zM170 -172q0 -56 46 -86.5t113 -30.5q46 0 90.5 14.5t87.5 45.5l16 -112q-30 -22 -82.5 -36.5t-111.5 -14.5q-116 0 -194.5 53
t-78.5 163q0 119 87.5 168t200.5 49v51q-4 0 -9 -0.5t-10 -0.5q-116 0 -192.5 53.5t-76.5 162.5q0 119 87.5 168t199.5 49v59h-338l-8 48t-8 49h1172l15 -97h-115v-599l-124 16v159q-22 -14 -53 -23.5t-79 -9.5q-92 0 -166 61.5t-74 141.5q6 6 11.5 12t10.5 13q25 7 45 13.5
t20 25.5q0 15 -21.5 21.5t-47.5 6.5h-276q-59 0 -98 -28t-39 -82q0 -55 46 -85.5t113 -30.5q46 0 90 13.5t87 45.5q4 -28 8.5 -56t8.5 -56q-11 -8 -25.5 -15.5t-30.5 -13.5v-175h-160q-60 0 -98.5 -29t-38.5 -81z" />
    <glyph glyph-name="dv_TthTthYa" horiz-adv-x="1256" 
d="M385 583v-61q37 -4 69 -17.5t57 -34.5h204q66 0 101 -31t35 -68q0 -44 -22 -66.5t-57 -42.5q13 -25 44 -51t83 -26q50 0 87 28.5t41 77.5v292h-642zM171 307q0 -53 46 -84.5t108 -31.5q66 0 110 33t44 84q0 45 -40.5 79.5t-113.5 34.5q-72 0 -113 -35t-41 -80zM263 94
q-85 14 -146 67t-61 141q0 81 58 144t149 76v61h-258l-8 48t-8 49h1261q4 -25 8 -49l8 -48h-116v-599l-123 16v117q-23 -14 -54 -24t-78 -10q-92 0 -166 62t-74 141l22 24q25 8 45 14.5t20 25.5q0 16 -21.5 22.5t-47.5 6.5h-94q7 -18 11 -37.5t4 -39.5q0 -87 -61.5 -140.5
t-147.5 -67.5v-53q92 -11 150.5 -72.5t58.5 -145.5q0 -102 -82.5 -158.5t-186.5 -56.5t-186.5 55t-82.5 159q0 81 58 143.5t149 75.5v53zM171 -172q0 -54 46 -85.5t108 -31.5q66 0 110 33t44 84q0 46 -40.5 80t-113.5 34q-72 0 -113 -35.5t-41 -78.5z" />
    <glyph glyph-name="dv_DdDdYa" horiz-adv-x="1054" 
d="M370 583v-52h145q63 0 98.5 -32.5t35.5 -67.5q0 -44 -22 -66.5t-57 -42.5q13 -25 43.5 -50.5t83.5 -25.5q50 0 86.5 28t42.5 77v232h-456zM71 -253q37 -24 81 -34t77 -10t50 12t17 31q0 20 -14 33t-43 13h-55q-52 0 -95 37.5t-43 92.5q0 58 39.5 94t96.5 36h76v41
q-6 -1 -13.5 -1.5t-14.5 -0.5q-49 0 -96.5 12t-80.5 31l18 97q37 -23 81 -33.5t77 -10.5t50 13t17 31q0 20 -14 33t-43 13h-55q-52 0 -95 37.5t-43 92.5q0 58 39.5 93.5t96.5 35.5h76v47h-253l-8 48t-8 49h1059l18 -97h-118v-599l-122 16v176q-23 -13 -54.5 -22.5
t-77.5 -9.5q-93 0 -166.5 61t-73.5 140l21 27q25 7 45 13t20 26q0 14 -23 21t-59 7h-259q-21 0 -33 -9.5t-12 -22.5q0 -15 13 -24t33 -9h50q73 0 119.5 -36.5t46.5 -105.5q0 -27 -12 -52t-34 -44v-181h-171q-21 0 -33 -9.5t-12 -23.5t13 -23t33 -9h50q73 0 119.5 -37
t46.5 -106q0 -54 -48 -97t-138 -43q-49 0 -96.5 12t-80.5 31z" />
    <glyph glyph-name="dv_DdhDdhYa" horiz-adv-x="1171" 
d="M466 583v-61h166q66 0 98 -31.5t32 -67.5q0 -46 -21.5 -68.5t-53.5 -41.5q13 -25 44 -50.5t83 -25.5q50 0 87 28t41 77v241h-476zM393 285q-19 0 -32.5 -12t-13.5 -34q0 -17 7 -32.5t22 -25.5q28 5 43.5 25t15.5 39q0 17 -11 28.5t-31 11.5zM170 -163q0 -46 29.5 -77
t67.5 -40q-6 7 -8.5 17.5t-2.5 20.5q0 54 39.5 91.5t93.5 37.5q56 0 95 -33.5t39 -91.5q0 -65 -52 -109.5t-142 -44.5q-116 0 -194.5 56.5t-78.5 167.5q0 119 87.5 167.5t200.5 48.5v45q-6 -1 -11.5 -1h-11.5q-114 0 -189.5 58.5t-75.5 165.5q0 119 87.5 167.5t199.5 48.5
v51h-338l-8 48t-8 49h1177l15 -97h-116v-599l-123 16v168q-23 -14 -54 -24t-78 -10q-92 0 -166 62t-74 141l22 24q25 8 45 14.5t20 26.5q0 14 -21 21t-48 7h-239q-76 0 -127.5 -22t-51.5 -88q0 -46 29 -77t68 -39q-6 7 -8.5 17t-2.5 20q0 54 39.5 91.5t92.5 37.5
q57 0 96 -33t39 -91q0 -34 -14.5 -63.5t-41.5 -50.5v-186q-40 0 -80 0.5t-80 0.5q-60 0 -98.5 -29.5t-38.5 -80.5zM394 -199q-19 0 -33 -11.5t-14 -33.5q0 -17 7.5 -32.5t21.5 -24.5q28 4 44 23.5t16 38.5q0 17 -11.5 28.5t-30.5 11.5z" />
    <glyph glyph-name="dv_DdhRYa" horiz-adv-x="1206" 
d="M515 583v-88h152q66 0 98.5 -32.5t32.5 -66.5q0 -47 -21.5 -69t-53.5 -42q13 -25 44 -50.5t82 -25.5t87.5 28t41.5 76v270h-463zM252 -169l-76 50l113 108q-90 14 -161.5 73.5t-71.5 180.5q0 126 95.5 194t224.5 68h16v78h-387l-8 48t-8 49h1213q4 -25 8 -49l8 -48h-117
v-599l-123 16v140q-23 -13 -54 -23t-78 -10q-92 0 -166 61t-74 141l22 25q25 7 45.5 13.5t20.5 26.5q0 16 -22 22t-48 6h-248q-87 0 -146.5 -41.5t-59.5 -116.5q0 -68 41 -107.5t92 -50.5q-13 12 -19 32.5t-6 37.5q0 63 44.5 108.5t110.5 45.5q67 0 112.5 -40.5t45.5 -106.5
q0 -63 -43.5 -110t-115.5 -63l115 -109l-73 -50l-111 104q-27 -26 -55 -52.5t-56 -51.5zM438 208q-22 0 -38 -13.5t-16 -40.5q0 -19 9 -36.5t26 -29.5q33 6 51.5 28.5t18.5 44.5q0 21 -14 34t-37 13z" />
    <glyph glyph-name="dv_DGRa" horiz-adv-x="620" 
d="M578 -3l-97 -40l-54 99l-59 -122l-114 28q13 26 26 52.5t26 53.5q-22 1 -42 4t-39 9v-139q0 -42 -10 -58.5t-38 -16.5q-51 0 -94 44.5t-43 84.5q0 25 23.5 36.5t47.5 11.5v96q-29 28 -45.5 68t-16.5 91q0 116 85.5 170.5t211.5 54.5h14v59h-355l-8 48t-8 49h626l15 -97
h-147v-158h-110q-89 0 -149.5 -28.5t-60.5 -97.5q0 -63 49.5 -95.5t122.5 -32.5q8 0 18 0.5t21 1.5q-1 5 -1.5 11t-0.5 11q0 28 17.5 48t48.5 20q34 0 69 -22.5t35 -59.5q0 -16 -8.5 -35t-23.5 -35q16 -28 34 -58t34 -56z" />
    <glyph glyph-name="dv_DDYa" horiz-adv-x="1146" 
d="M452 583v-50h155q67 0 99.5 -33t32.5 -67q0 -46 -22 -68t-55 -41q13 -25 44 -51t82 -26t88 28t42 77v231h-466zM389 -8q-21 -4 -43.5 -6.5t-45.5 -2.5q-99 0 -165.5 46t-66.5 138q0 27 13.5 59.5t48.5 60.5q-25 19 -39.5 47.5t-14.5 63.5q0 60 44 99.5t114 39.5h94v46
h-323l-8 48t-8 49h1152q4 -25 8 -49l8 -48h-116v-599l-123 16v178q-24 -14 -55 -23.5t-78 -9.5q-92 0 -166 61t-74 141l23 26q25 7 45 13.5t20 25.5q0 15 -21.5 21.5t-48.5 6.5h-319q-19 0 -33.5 -12.5t-14.5 -32.5q0 -19 13.5 -34t34.5 -15h176l16 -90h-135
q-38 0 -73.5 -19t-35.5 -72q0 -34 31.5 -56.5t75.5 -22.5q13 0 24.5 1.5t24.5 3.5q-1 3 -1.5 7.5t-0.5 8.5q0 23 14.5 42.5t38.5 19.5q32 0 74.5 -22t42.5 -62q0 -13 -8.5 -31t-21.5 -31q16 -28 34 -58t34 -57l-97 -40z" />
    <glyph glyph-name="dv_DBRa" horiz-adv-x="622" 
d="M435 39l-18 37q-21 -6 -43.5 -7t-41.5 -2l84 -86q9 11 14 25.5t5 32.5zM244 40q0 -44 28 -69.5t67 -26.5q7 0 13.5 1.5t12.5 2.5l-116 124q-2 -7 -3.5 -15t-1.5 -17zM510 111q19 -33 52 -97.5t52 -95.5q-24 -10 -48.5 -19.5t-48.5 -19.5l-30 59q-13 -20 -31 -37.5
t-41 -27.5q-16 -26 -31 -53.5t-31 -53.5l-117 28q12 18 24 35.5t23 35.5q-63 14 -102.5 60.5t-39.5 113.5q0 19 3.5 36t10.5 33q-50 28 -78 76t-28 115q0 116 86 170.5t211 54.5h14v59h-355l-8 48t-8 49h626l15 -97h-147v-158h-101q-93 0 -156 -27t-63 -99q0 -63 49.5 -95.5
t122.5 -32.5q8 0 18 0.5t21 1.5q-1 5 -1.5 11t-0.5 11q0 33 20.5 46t52.5 13q26 0 61.5 -19.5t35.5 -53.5q0 -16 -8.5 -35t-23.5 -35z" />
    <glyph glyph-name="dv_DRYa" horiz-adv-x="812" 
d="M190 174q0 -43 34.5 -69.5t98.5 -26.5q16 0 34.5 2.5t37.5 6.5q46 40 94 81t95 81v334h-132v-143h-182q-27 0 -50.5 -9t-23.5 -36q0 -36 27 -42.5t48 -6.5h149l16 -90h-82q-80 0 -122 -17.5t-42 -64.5zM584 126q-69 -63 -139 -126.5t-139 -126.5q-20 18 -41 35.5
t-40 34.5l48 43q-98 10 -151.5 56t-53.5 125q0 27 13.5 59.5t47.5 60.5q-25 19 -39 48t-14 63q0 57 43.5 98t114.5 41h94v46h-323l-8 48t-8 49h818l16 -97h-117v-599l-122 16v126z" />
    <glyph glyph-name="dv_DVYa" horiz-adv-x="1184" 
d="M483 583v-66h162q67 0 99 -31.5t32 -66.5q0 -46 -21.5 -68.5t-53.5 -42.5q13 -25 43.5 -50.5t82.5 -25.5q51 0 87.5 28.5t42.5 77.5v245h-474zM244 40q0 -44 28 -69.5t67 -26.5q40 1 68 26.5t28 68.5l-18 37q-23 -5 -43.5 -7.5t-45.5 -1.5q-21 0 -40 2.5t-38 6.5
q-3 -8 -4.5 -17t-1.5 -19zM510 111q19 -33 52 -97.5t52 -95.5q-24 -10 -48.5 -19.5t-48.5 -19.5q-6 11 -12.5 23.5t-11.5 23.5q-25 -31 -63.5 -50t-88.5 -20q-88 0 -144 51t-56 132q0 19 3.5 36t10.5 33q-50 28 -78 76t-28 115q0 116 85.5 170.5t211.5 54.5h14v59h-355
l-8 48t-8 49h1190l17 -97h-117v-599l-122 16v163q-23 -13 -53.5 -22t-79.5 -9q-93 0 -166.5 60t-73.5 140l22 26q25 7 45 13t20 27q0 14 -21.5 20.5t-48.5 6.5h-255q-79 0 -131 -33.5t-52 -92.5q0 -63 49.5 -95.5t122.5 -32.5q8 0 18 0.5t21 1.5q-1 5 -1.5 11t-0.5 11
q0 31 18 49.5t48 18.5q34 0 69 -22.5t35 -59.5q0 -16 -8.5 -35t-23.5 -35z" />
    <glyph glyph-name="dv_DVRa" horiz-adv-x="622" 
d="M244 40q0 -44 28 -69.5t67 -26.5q40 1 68 26.5t28 68.5l-18 37q-20 -4 -42 -7t-47 -2q-21 0 -40 2.5t-38 6.5q-3 -8 -4.5 -17t-1.5 -19zM510 111q19 -33 52 -97.5t52 -95.5q-24 -10 -48.5 -19.5t-48.5 -19.5l-30 59q-13 -20 -31 -37.5t-41 -27.5q-16 -26 -31 -53.5
t-31 -53.5l-117 28q12 18 24 35.5t23 35.5q-63 14 -102.5 60.5t-39.5 113.5q0 19 3.5 36t10.5 33q-50 28 -78 76t-28 115q0 116 86 170.5t211 54.5h14v59h-355l-8 48t-8 49h626l15 -97h-147v-158h-101q-93 0 -156 -27t-63 -99q0 -63 49.5 -95.5t122.5 -32.5q8 0 18 0.5
t21 1.5q-1 5 -1.5 11t-0.5 11q0 33 20.5 46t52.5 13q26 0 61.5 -19.5t35.5 -53.5q0 -16 -8.5 -35t-23.5 -35z" />
    <glyph glyph-name="dv_DhNYa" horiz-adv-x="1086" 
d="M859 583h-200q9 -16 17 -40.5t8 -50.5q0 -43 -20.5 -86.5t-61.5 -69.5q13 -25 44 -50.5t82 -25.5t87.5 28t43.5 77v218zM486 360q17 19 52 46t35 92q0 30 -16 53t-41 32h-39l-8 48t-8 49h620q4 -25 8 -49l8 -48h-116v-599l-122 16v191q-24 -14 -55 -24t-78 -10
q-40 0 -78.5 13t-69.5 35l-295 -230q10 -14 19 -32t9 -37q0 -28 -28.5 -35.5t-49.5 -7.5q-36 0 -78 21.5t-42 64.5q0 32 54.5 71t74.5 55q-73 11 -126 56.5t-53 125.5q0 42 20 84.5t60 61.5q-31 17 -48.5 54t-17.5 72q0 74 55 119.5t126 45.5q36 0 71 -14t60 -40l-57 -79
q-15 14 -32.5 20t-37.5 6q-22 0 -45 -18t-23 -45q0 -57 46.5 -67.5t88.5 -10.5q7 -23 16 -46.5t17 -46.5q-51 0 -114.5 -9t-63.5 -82q0 -49 43 -71t84 -22q56 0 104 35.5t94 72.5q-11 19 -17 40t-6 43z" />
    <glyph glyph-name="dv_NNYa" horiz-adv-x="918" 
d="M689 583h-199q10 -16 17 -40.5t7 -50.5q0 -45 -19 -87t-62 -69q13 -25 44 -50.5t84 -25.5q50 0 86 28t42 77v218zM812 -16l-123 16v191q-23 -14 -54 -24t-78 -10q-52 0 -99 20.5t-79 54.5q-40 -22 -78.5 -44.5t-77.5 -44.5q7 -11 11 -24t4 -24q0 -14 -17 -36t-65 -22
q-34 0 -75.5 20.5t-41.5 60.5q0 16 9.5 31t26.5 25l241 136l-134 79q-8 -14 -23.5 -32t-43.5 -18q-1 0 -1.5 0.5t-1.5 0.5q-34 -1 -55 42t-21 82q0 27 16 53t47 26q13 0 25 -5t26 -13q52 -31 106 -63t106 -64q18 15 30 41t12 59q0 30 -16 53t-41 32h-342l-8 48t-8 49h923
l17 -97h-117v-599z" />
    <glyph glyph-name="dv_PTthYa" horiz-adv-x="1154" 
d="M572 434h-69q-7 -34 -23 -60t-40 -44q36 -26 56.5 -65t20.5 -85q0 -84 -61.5 -140t-160.5 -56q-98 0 -160 55.5t-62 139.5q0 47 20.5 87t57.5 66q-32 26 -51 65.5t-19 90.5v95h-76l-8 48t-8 49h1161l17 -97h-118v-599l-122 16v172q-23 -13 -54.5 -23.5t-77.5 -10.5
q-92 0 -166.5 62t-74.5 140q6 7 11.5 13.5t11.5 12.5q25 7 45 13.5t20 25.5q0 16 -21.5 22.5t-48.5 6.5zM204 488q0 -50 24 -80.5t67 -30.5q46 0 69 30t23 81v95h-183v-95zM511 583v-57h105q66 0 98 -31.5t32 -68.5q0 -45 -21 -67.5t-54 -40.5q13 -25 44 -51t83 -26
q50 0 86.5 28t42.5 77v237h-416zM191 180q0 -43 29.5 -71t74.5 -29q46 0 74.5 29.5t28.5 69.5q0 42 -29.5 70.5t-73.5 28.5q-47 0 -75.5 -29t-28.5 -69z" />
    <glyph glyph-name="dv_BhRYa" horiz-adv-x="1090" 
d="M139 570q0 -17 12 -26t26 -9q10 0 21 5t16 12q0 23 -11 38.5t-28 15.5q-16 0 -26 -10.5t-10 -25.5zM862 583h-199q10 -16 17.5 -40.5t7.5 -50.5q0 -43 -20 -86.5t-60 -69.5q12 -25 42.5 -50.5t82.5 -25.5q51 0 87.5 28t41.5 77v218zM513 385q24 7 44 38.5t20 74.5
q0 30 -16 53t-41 32h-80l-8 48t-8 49h662l16 -97h-117v-599l-123 16v191q-22 -14 -53 -24t-78 -10q-43 0 -84 14.5t-74 39.5q-79 -65 -159 -130.5t-160 -129.5q-20 17 -40.5 35t-40.5 34l270 207h-116q0 -37 -17.5 -57.5t-31.5 -20.5q-50 0 -94.5 34.5t-44.5 85.5
q0 21 21.5 38t48.5 15v133q-9 -4 -19 -4.5t-17 -0.5q-58 0 -94.5 35t-36.5 91q0 54 40.5 87.5t93.5 33.5q71 0 111.5 -47.5t40.5 -125.5v-202h166q-2 10 -3 19t-1 19z" />
    <glyph glyph-name="dv_ShRYa" horiz-adv-x="1015" 
d="M293 551q0 18 -10.5 29t-27.5 11q-16 0 -27 -11t-11 -29q0 -16 8 -33t30 -39q21 21 29.5 39t8.5 33zM435 383q25 8 46 39.5t21 75.5q0 30 -16 53t-41 32h-48q2 -8 3.5 -15.5t1.5 -16.5q0 -33 -15 -72t-48 -67q19 -16 39 -31t39 -30q2 5 9 18.5t9 13.5zM787 583h-200
q10 -16 17.5 -40.5t7.5 -50.5q0 -44 -19.5 -87t-61.5 -69q13 -25 44 -50.5t83 -25.5q50 0 87 28t42 77v218zM108 553q0 60 43.5 100t103.5 40q17 0 33.5 -3.5t30.5 -9.5h691l16 -97h-116v-599l-123 16v191q-24 -14 -54.5 -24t-77.5 -10q-43 0 -83.5 14t-72.5 38l-319 -226
l-42 101l237 167l-120 91q-45 -35 -90.5 -71.5t-91.5 -71.5l-48 99l147 114q-27 28 -45.5 62.5t-18.5 78.5z" />
    <glyph glyph-name="dv_SsTtYa" horiz-adv-x="1154" 
d="M191 180q0 -43 30.5 -71.5t85.5 -28.5q42 0 85 13t83 43l15 -104q-30 -21 -79.5 -34.5t-103.5 -13.5q-107 0 -170.5 55t-63.5 140q0 47 20.5 87t57.5 66q-32 26 -51 65.5t-19 90.5v95h-76l-8 48t-8 49h1161l17 -97h-118v-599l-122 16v172q-23 -13 -54.5 -23.5
t-77.5 -10.5q-93 0 -167 62t-74 140q6 7 11.5 13.5t11.5 12.5q25 7 45 13.5t20 25.5q0 16 -21.5 22.5t-48.5 6.5h-69q-16 -73 -74 -112.5t-134 -39.5h-5q-45 -1 -72 -32.5t-27 -69.5zM387 583h-125l121 -134q1 9 2.5 19t1.5 20v95zM511 583v-57h105q66 0 98 -31.5t32 -68.5
q0 -45 -21 -67.5t-54 -40.5q13 -25 44 -51t83 -26q50 0 86.5 28t42.5 77v237h-416zM204 488q0 -50 24 -80.5t67 -30.5q16 0 29.5 4t23.5 11l-144 160v-64z" />
    <glyph glyph-name="dv_SsTtVa" horiz-adv-x="593" 
d="M191 180q0 -43 30.5 -71t85.5 -28q42 0 85 12.5t83 43.5l16 -104q-2 -2 -5.5 -4t-5.5 -3v-384l-119 16v54q-16 -14 -47.5 -23.5t-64.5 -9.5q-81 0 -136.5 52.5t-56.5 141.5q0 50 21 94.5t59 73.5q-30 25 -46.5 60t-16.5 78q0 47 20.5 87t57.5 66q-32 26 -51 66t-19 91v94
h-76l-16 97h599l17 -97h-93v-94q0 -98 -63 -152.5t-153 -54.5h-6q-45 -1 -72 -32t-27 -70zM260 583l122 -136q2 9 3.5 19.5t1.5 22.5v94h-127zM205 489q0 -51 24 -81.5t67 -30.5q15 0 27.5 3.5t22.5 10.5l-141 161v-63zM361 -10q-13 -3 -27 -4.5t-27 -1.5q-10 0 -20 1l-20 2
q-39 -7 -65.5 -39t-26.5 -75q0 -47 27.5 -70t61.5 -23t60.5 18t36.5 41v151z" />
    <glyph glyph-name="dv_SsTthYa" horiz-adv-x="1154" 
d="M572 434h-69q-7 -34 -23 -60t-40 -44q36 -26 56.5 -65t20.5 -85q0 -84 -61.5 -140t-160.5 -56q-98 0 -160 55.5t-62 139.5q0 47 20.5 87t57.5 66q-32 26 -51 65.5t-19 90.5v95h-76l-8 48t-8 49h1161l17 -97h-118v-599l-122 16v172q-23 -13 -54.5 -23.5t-77.5 -10.5
q-92 0 -166.5 62t-74.5 140q6 7 11.5 13.5t11.5 12.5q25 7 45 13.5t20 25.5q0 16 -21.5 22.5t-48.5 6.5zM387 583h-125l121 -134q1 9 2.5 19t1.5 20v95zM511 583v-57h105q66 0 98 -31.5t32 -68.5q0 -45 -21 -67.5t-54 -40.5q13 -25 44 -51t83 -26q50 0 86.5 28t42.5 77v237
h-416zM204 488q0 -50 24 -80.5t67 -30.5q16 0 29.5 4t23.5 11l-144 160v-64zM191 180q0 -43 29.5 -71t74.5 -29q46 0 74.5 29.5t28.5 69.5q0 42 -29.5 70.5t-73.5 28.5q-47 0 -75.5 -29t-28.5 -69z" />
    <glyph glyph-name="dv_HMYa" horiz-adv-x="1470" 
d="M317 583h-314q-3 24 -6.5 48t-7.5 49h1476l16 -97h-117v-599l-122 16v191q-24 -14 -55 -24t-78 -10q-49 0 -95 19.5t-79 50.5h-232q0 -22 -10 -50t-41 -28q-50 0 -94 34.5t-44 85.5q0 7 3 14t8 14h-238q-45 0 -73.5 -27t-28.5 -64q0 -61 65 -90t135 -33l-27 -99
q-114 6 -199.5 63t-85.5 159q0 36 11 66t33 54q-19 16 -28.5 40t-9.5 54q0 63 44 95.5t107 32.5h87v35zM448 583v-128h-179q-38 0 -54.5 -7t-16.5 -26q0 -11 5.5 -22.5t15.5 -15.5q21 6 45.5 7.5t51.5 1.5h268v190h-136zM892 385q25 7 45 38.5t20 74.5q0 30 -16.5 53
t-40.5 32h-197v-261h171q-3 10 -4 19t-1 19zM1242 583h-200q10 -16 17 -40.5t7 -50.5q0 -44 -19.5 -87t-61.5 -69q13 -25 44.5 -50.5t83.5 -25.5q49 0 86.5 28t42.5 77v218z" />
    <glyph glyph-name="dv_NgYa" horiz-adv-x="1255" 
d="M445 583v-71h271q67 0 101 -32t34 -69q0 -44 -22 -66t-58 -42q13 -25 44.5 -51t83.5 -26q49 0 86 28t41 77v252h-581zM550 248q-30 0 -50.5 20.5t-20.5 51.5q0 30 20.5 51t50.5 21q31 0 52 -21t21 -51q0 -31 -21 -51.5t-52 -20.5zM76 137q46 -29 93 -41t98 -12
q52 0 81.5 21t29.5 52q0 26 -20 46t-53 20h-89q-63 0 -116.5 40.5t-53.5 108.5q0 72 48.5 110.5t119.5 38.5h119v62h-328l-8 48t-8 49h1262l15 -97h-116v-599l-124 16v157q-23 -14 -53.5 -23.5t-77.5 -9.5q-93 0 -166.5 61.5t-73.5 140.5l22 26q25 7 45 13.5t20 26.5
q0 14 -22 20.5t-48 6.5h-454q-25 0 -40.5 -14t-15.5 -33t16 -33.5t41 -14.5h77q91 0 149 -40t58 -127q0 -67 -59.5 -120t-170.5 -53q-59 0 -118.5 14.5t-99.5 38.5z" />
    <glyph glyph-name="dv_TtTta" horiz-adv-x="590" 
d="M170 -172q0 -56 46 -86.5t113 -30.5q46 0 90.5 14.5t87.5 45.5l16 -112q-30 -22 -82.5 -36.5t-111.5 -14.5q-116 0 -194.5 53t-78.5 163q0 121 87.5 169t200.5 48v51q-4 0 -9 -0.5t-9 -0.5q-116 0 -193 53t-77 163q0 119 87 168t200 49v59h-338l-8 48t-8 49h596l16 -97
h-135v-162h-159q-60 0 -98.5 -29t-38.5 -81q0 -55 46 -85.5t113 -30.5q46 0 90 13.5t87 45.5q4 -28 8.5 -56t8.5 -56q-11 -8 -25.5 -15.5t-30.5 -13.5v-175h-160q-60 0 -98.5 -28.5t-38.5 -81.5z" />
    <glyph glyph-name="dv_TtTtha" horiz-adv-x="623" 
d="M170 311q0 -53 45 -84.5t114 -31.5q46 0 90 13.5t87 45.5q4 -28 8.5 -56t8.5 -56q-23 -18 -59 -30.5t-79 -17.5v-53q92 -11 150.5 -72.5t58.5 -145.5q0 -102 -82.5 -158.5t-186.5 -56.5t-186.5 55t-82.5 159q0 81 58 143.5t149 75.5v55q-91 12 -149 64t-58 147
q0 119 87.5 168t199.5 49v59h-338l-8 48t-8 49h629l15 -97h-167v-162h-159q-59 0 -98 -28t-39 -82zM171 -172q0 -54 46 -85.5t108 -31.5q66 0 110 33t44 84q0 46 -40.5 80t-113.5 34q-72 0 -113 -35.5t-41 -78.5z" />
    <glyph glyph-name="dv_TtDdha" horiz-adv-x="590" 
d="M170 -163q0 -46 29.5 -77t67.5 -40q-6 7 -8.5 17.5t-2.5 20.5q0 54 39.5 91.5t93.5 37.5q57 0 95.5 -33t38.5 -92q0 -65 -52 -109.5t-142 -44.5q-116 0 -194.5 56.5t-78.5 167.5q0 120 87.5 168t200.5 48v44q-4 0 -9 -0.5t-9 -0.5q-116 0 -193 53t-77 163q0 119 87 168
t200 49v59h-338l-8 48t-8 49h596l16 -97h-135v-162h-159q-60 0 -98.5 -29t-38.5 -81q0 -55 46 -85.5t113 -30.5q46 0 90 13.5t87 45.5q4 -28 8.5 -56t8.5 -56q-11 -8 -25.5 -15.5t-30.5 -13.5v-167q-40 0 -80 0.5t-80 0.5q-60 0 -98.5 -29.5t-38.5 -80.5zM394 -199
q-19 0 -33 -11.5t-14 -33.5q0 -17 7.5 -32.5t21.5 -24.5q28 4 44 23.5t16 38.5q0 17 -11.5 28.5t-30.5 11.5z" />
    <glyph glyph-name="dv_TtYa" horiz-adv-x="1212" 
d="M515 583v-102h158q66 0 98.5 -31t32.5 -66q0 -46 -21.5 -69t-55.5 -42q13 -25 44.5 -50.5t82.5 -25.5t88 28.5t41 77.5v280h-468zM170 237q0 -87 61.5 -119t133.5 -32q47 0 98.5 12.5t105.5 52.5l16 -112q-43 -28 -102 -42.5t-118 -14.5q-117 0 -213 57.5t-96 197.5
q0 127 95.5 191.5t224.5 64.5h16v90h-387l-8 48t-8 49h1217l17 -97h-117v-599l-123 16v129q-23 -14 -54 -24t-78 -10q-93 0 -166.5 61.5t-73.5 140.5l23 25q24 8 43.5 14t19.5 26q0 15 -20.5 22t-47.5 7h-205q-102 0 -178 -33.5t-76 -120.5z" />
    <glyph glyph-name="dv_TtVa" horiz-adv-x="644" 
d="M170 237q0 -87 61.5 -119t133.5 -32q47 0 98.5 12.5t105.5 52.5l16 -112q-7 -5 -15 -9.5t-16 -8.5v-379l-124 16v62q-19 -18 -53 -29.5t-66 -11.5q-101 0 -162.5 57.5t-61.5 145.5q0 48 19 87.5t53 66.5q-46 29 -74.5 78.5t-28.5 122.5q0 127 95.5 191.5t224.5 64.5h16
v90h-387l-8 48t-8 49h650l15 -97h-139v-192h-139q-87 0 -146.5 -41.5t-59.5 -112.5zM430 -13q-16 -2 -32.5 -3.5t-32.5 -1.5q-17 0 -34 1.5t-34 3.5q-38 -5 -64.5 -33.5t-26.5 -70.5q0 -48 30 -75t74 -27q52 0 79 21.5t41 46.5v138z" />
    <glyph glyph-name="dv_TthTtha" horiz-adv-x="645" 
d="M655 583h-270v-61q92 -11 150.5 -73t58.5 -147q0 -87 -61.5 -140.5t-147.5 -67.5v-53q92 -11 150.5 -72.5t58.5 -145.5q0 -102 -82.5 -158.5t-186.5 -56.5t-186.5 55t-82.5 159q0 81 58 143.5t149 75.5v53q-85 14 -146 67t-61 141q0 81 58 144t149 76v61h-258l-8 48
t-8 49h651zM171 307q0 -53 46 -84.5t108 -31.5q66 0 110 33t44 84q0 45 -40.5 79.5t-113.5 34.5q-72 0 -113 -35t-41 -80zM171 -172q0 -54 46 -85.5t108 -31.5q66 0 110 33t44 84q0 46 -40.5 80t-113.5 34q-72 0 -113 -35.5t-41 -78.5z" />
    <glyph glyph-name="dv_TthYa" horiz-adv-x="1285" 
d="M422 583v-97q18 -2 35 -6t33 -10h256q67 0 101 -31t34 -68q0 -43 -22 -66t-57 -43q13 -25 44 -50.5t83 -26.5q50 0 87 28.5t41 77.5v292h-635zM551 238q0 87 -59 118t-132 31q-83 0 -136.5 -39.5t-53.5 -111.5q0 -87 59 -118.5t131 -31.5q84 0 137.5 40t53.5 112z
M360 -18q-116 1 -210 57.5t-94 196.5q0 110 69.5 173t173.5 78v96h-294l-16 97h1292l16 -97h-117v-599l-123 16v117q-23 -14 -54 -24t-78 -10q-92 0 -166 62t-74 141l22 25q25 7 45 13.5t20 25.5q0 16 -21 22.5t-48 6.5h-81q20 -26 32 -61t12 -80q0 -128 -90.5 -191.5
t-215.5 -64.5z" />
    <glyph glyph-name="dv_DdTta" horiz-adv-x="450" 
d="M100 -172q0 -54 44.5 -85.5t113.5 -31.5q46 0 90.5 14.5t87.5 45.5l16 -112q-29 -22 -82 -36.5t-112 -14.5q-116 0 -194 53t-78 163q0 119 86.5 168t200.5 49v55q-10 -3 -21 -4t-22 -1q-49 0 -96.5 12t-80.5 31l18 97q37 -23 81 -33.5t77 -10.5t50 13t17 31q0 20 -14 33
t-43 13h-55q-52 0 -95 37.5t-43 92.5q0 57 39.5 93t96.5 36h76v47h-253l-8 48t-8 49h456l16 -97h-91v-144h-171q-21 0 -33 -9.5t-12 -22.5q0 -15 13 -24t33 -9h50q73 0 119.5 -36.5t46.5 -105.5q0 -17 -5 -34t-14 -31v-229h-160q-58 0 -97.5 -27.5t-39.5 -82.5z" />
    <glyph glyph-name="dv_DdDda" horiz-adv-x="450" 
d="M71 -253q37 -24 81 -34t77 -10q31 0 50.5 13.5t19.5 30.5q0 22 -17 33.5t-43 11.5h-55q-52 0 -95 37.5t-43 92.5q0 58 39.5 94t96.5 36h76v41q-6 -1 -13.5 -1.5t-14.5 -0.5q-49 0 -96.5 12t-80.5 31l18 97q37 -23 81 -33.5t77 -10.5q35 0 51 13t16 31q0 20 -14 33t-43 13
h-55q-52 0 -95 37.5t-43 92.5q0 58 39.5 93.5t96.5 35.5h76v47h-253l-8 48t-8 49h456l16 -97h-91v-144h-171q-21 0 -33 -10t-12 -22q0 -15 13 -24t33 -9h50q73 0 119.5 -36.5t46.5 -105.5q0 -27 -12 -52t-34 -44v-181h-171q-21 0 -33 -10t-12 -23q0 -14 13 -23t33 -9h50
q73 0 119.5 -37t46.5 -106q0 -54 -48 -97t-138 -43q-49 0 -96.5 12t-80.5 31z" />
    <glyph glyph-name="dv_DdDdha" horiz-adv-x="450" 
d="M100 -163q0 -46 29.5 -77t67.5 -40q-7 7 -9 17.5t-2 20.5q0 54 39.5 91.5t93.5 37.5q57 0 95.5 -33t38.5 -92q0 -65 -52.5 -109.5t-142.5 -44.5q-116 0 -194 56.5t-78 167.5q0 119 86.5 167.5t200.5 48.5v48q-10 -3 -21 -4t-22 -1q-49 0 -96.5 12t-80.5 31l18 97
q37 -23 81 -33.5t77 -10.5t50 13t17 31q0 20 -14 33t-43 13h-55q-52 0 -95 37.5t-43 92.5q0 57 39.5 93t96.5 36h76v47h-253l-8 48t-8 49h456l16 -97h-91v-144h-171q-21 0 -33 -9.5t-12 -22.5q0 -15 13 -24t33 -9h50q73 0 119.5 -36.5t46.5 -105.5q0 -17 -5 -34t-14 -31
v-221q-40 0 -80 0.5t-80 0.5q-58 0 -97.5 -28.5t-39.5 -81.5zM323 -199q-19 0 -32 -11.5t-13 -33.5q0 -17 6.5 -32.5t20.5 -24.5q29 4 44.5 23.5t15.5 38.5q0 17 -11.5 28.5t-30.5 11.5z" />
    <glyph glyph-name="dv_DdYa" horiz-adv-x="1156" 
d="M445 583v-71h172q63 0 99 -32t36 -69q0 -44 -22 -66t-57 -42q13 -25 44 -51t83 -26q49 0 86 28t42 77v252h-483zM76 137q46 -29 93 -41t98 -12q52 0 81.5 21t29.5 52q0 28 -22 47t-51 19h-89q-63 0 -116.5 40.5t-53.5 108.5q0 72 48.5 110.5t119.5 38.5h119v62h-328
l-8 48t-8 49h1163q4 -25 8 -49l8 -48h-117v-599l-123 16v157q-23 -14 -54 -23.5t-77 -9.5q-93 0 -167 61.5t-74 140.5l22 26q25 7 45 13.5t20 26.5q0 14 -21.5 20.5t-47.5 6.5h-356q-25 0 -40.5 -14t-15.5 -33t16 -33.5t41 -14.5h77q91 0 149 -40t58 -127q0 -67 -59.5 -120
t-170.5 -53q-59 0 -118.5 14.5t-99.5 38.5z" />
    <glyph glyph-name="dv_DdhDdha" horiz-adv-x="590" 
d="M393 285q-19 0 -32.5 -12t-13.5 -34q0 -17 7 -32.5t22 -25.5q28 5 43.5 25t15.5 39q0 17 -11 28.5t-31 11.5zM170 -163q0 -46 29.5 -77t67.5 -40q-6 7 -8.5 17.5t-2.5 20.5q0 53 39.5 91t93.5 38q56 0 95 -33.5t39 -91.5q0 -65 -52 -109.5t-142 -44.5q-116 0 -194.5 56.5
t-78.5 167.5q0 120 87.5 168t200.5 48v45q-6 -1 -11.5 -1h-11.5q-114 0 -189.5 58.5t-75.5 165.5q0 119 87 167.5t200 48.5v51h-338l-8 48t-8 49h596l16 -97h-135v-153h-159q-60 0 -98.5 -29t-38.5 -81q0 -46 29 -77t68 -39q-6 7 -8.5 17t-2.5 20q0 53 39.5 91t92.5 38
q57 0 96 -33t39 -91q0 -34 -14.5 -63.5t-41.5 -50.5v-186q-40 0 -80 0.5t-80 0.5q-60 0 -98.5 -29.5t-38.5 -80.5zM394 -199q-19 0 -33 -11.5t-14 -33.5q0 -17 7.5 -32.5t21.5 -24.5q28 4 44 23.5t16 38.5q0 17 -11.5 28.5t-30.5 11.5z" />
    <glyph glyph-name="dv_DdhYa" horiz-adv-x="1206" 
d="M515 583v-88h152q66 0 98.5 -32.5t32.5 -66.5q0 -47 -21.5 -69t-53.5 -42q13 -25 44 -50.5t82 -25.5t87.5 28t41.5 76v270h-463zM-11 680h1213q4 -25 8 -49l8 -48h-117v-599l-123 16v140q-23 -13 -54 -23t-78 -10q-92 0 -166 61t-74 141l22 25q25 7 45.5 13.5t20.5 26.5
q0 16 -22 22t-48 6h-248q-87 0 -146.5 -41.5t-59.5 -116.5q0 -68 41 -107.5t92 -50.5q-13 12 -19 32.5t-6 37.5q0 63 44.5 108.5t110.5 45.5q69 0 113.5 -40t44.5 -107q0 -76 -63.5 -128.5t-164.5 -52.5q-107 0 -207 57.5t-100 203.5q0 126 95.5 194t224.5 68h16v78h-387
l-8 48t-8 49zM438 208q-22 0 -38 -13.5t-16 -40.5q0 -19 9 -36.5t26 -29.5q33 6 51.5 28.5t18.5 44.5q0 21 -14 34t-37 13z" />
    <glyph glyph-name="dv_DGa" horiz-adv-x="620" 
d="M578 -3l-97 -40l-32 60t-32 59q-23 -4 -44.5 -6.5t-37.5 -2.5q-30 0 -57.5 3.5t-52.5 10.5v-139q0 -42 -10 -58.5t-38 -16.5q-51 0 -95 44t-44 84q0 25 24 37t49 12v96q-29 28 -45.5 68t-16.5 91q0 116 85.5 170.5t211.5 54.5h14v59h-355l-8 48t-8 49h626l15 -97h-147
v-158h-137q-79 0 -131 -32.5t-52 -93.5q0 -63 49.5 -95.5t122.5 -32.5q8 0 18 0.5t21 1.5q-1 5 -1.5 11t-0.5 11q0 28 17.5 48t48.5 20q34 0 69 -22.5t35 -59.5q0 -16 -8.5 -35t-23.5 -35q16 -28 34 -58t34 -56z" />
    </font>
</defs>
</svg>
